{"glyphs":{"0":{"ha":463,"x_min":0,"x_max":0,"o":"m 232 -14 b 444 199 363 -14 444 69 l 444 760 b 232 972 444 889 363 972 b 18 760 100 972 18 889 l 18 199 b 232 -14 18 69 100 -14 z m 232 138 b 207 178 214 138 207 149 l 207 781 b 231 821 207 810 214 821 b 256 781 247 821 256 810 l 256 178 b 232 138 256 149 247 138 z "},"1":{"ha":319,"x_min":0,"x_max":0,"o":"m 106 0 l 294 0 l 294 958 l 179 958 l -3 847 l -3 681 l 106 744 z "},"2":{"ha":429,"x_min":0,"x_max":0,"o":"m 347 478 b 422 749 406 556 422 619 l 422 765 b 214 972 422 892 342 972 b 10 765 89 972 10 892 l 10 639 l 194 639 l 194 788 b 214 821 194 811 200 821 b 233 788 229 821 233 811 l 233 725 b 183 567 233 644 231 631 l 108 465 b 10 117 29 357 10 286 l 10 0 l 422 0 l 422 183 l 189 183 b 272 376 192 258 208 289 z "},"3":{"ha":438,"x_min":0,"x_max":0,"o":"m 347 518 l 347 521 b 421 681 396 549 421 597 l 421 765 b 214 972 421 892 340 972 b 10 765 86 972 10 892 l 10 663 l 193 663 l 193 788 b 213 821 193 811 199 821 b 232 788 228 821 232 811 l 232 650 b 197 583 232 596 226 583 l 142 583 l 142 432 l 203 432 b 238 365 232 432 238 424 l 238 178 b 214 138 238 149 232 138 b 190 178 196 138 190 149 l 190 335 l 7 335 l 7 197 b 217 -14 7 68 86 -14 b 426 197 346 -14 426 68 l 426 353 b 347 518 426 439 400 492 z "},"4":{"ha":472,"x_min":0,"x_max":0,"o":"m 219 0 l 410 0 l 410 143 l 475 143 l 475 294 l 410 294 l 410 958 l 171 958 l 0 294 l 0 143 l 219 143 z m 161 294 l 246 707 l 249 707 l 222 294 z "},"5":{"ha":447,"x_min":0,"x_max":0,"o":"m 224 -14 b 433 197 353 -14 433 68 l 433 508 b 289 683 433 617 376 683 b 192 633 244 683 213 667 l 189 633 l 192 775 l 419 775 l 419 958 l 31 958 l 17 442 l 197 442 l 197 475 b 225 532 197 518 207 532 b 244 503 240 532 244 518 l 244 178 b 221 138 244 149 238 138 b 197 178 203 138 197 149 l 197 329 l 13 329 l 13 197 b 224 -14 13 68 93 -14 z "},"6":{"ha":456,"x_min":0,"x_max":0,"o":"m 231 -14 b 443 199 361 -14 443 69 l 443 450 b 299 625 443 557 386 625 b 210 588 260 625 232 613 l 207 588 l 207 781 b 231 821 207 810 213 821 b 254 781 247 821 254 810 l 254 671 l 438 671 l 438 761 b 226 972 438 890 357 972 b 18 761 99 972 18 890 l 18 199 b 231 -14 18 69 100 -14 z m 231 138 b 207 178 213 138 207 149 l 207 417 b 235 474 207 460 217 474 b 254 444 249 474 254 460 l 254 178 b 231 138 254 149 247 138 z "},"7":{"ha":421,"x_min":0,"x_max":0,"o":"m 67 0 l 256 0 l 256 69 b 422 788 256 336 272 525 l 422 958 l -1 958 l -1 775 l 226 775 b 67 49 78 485 67 288 z "},"8":{"ha":449,"x_min":0,"x_max":0,"o":"m 224 -14 b 436 197 357 -14 436 67 l 436 350 b 356 519 436 438 413 492 l 356 522 b 433 669 408 550 433 599 l 433 761 b 224 972 433 893 354 972 b 15 761 94 972 15 893 l 15 669 b 93 522 15 599 40 550 l 93 519 b 13 350 36 492 13 438 l 13 197 b 224 -14 13 67 92 -14 z m 224 583 b 201 619 210 583 201 594 l 201 782 b 224 821 201 810 210 821 b 247 782 240 821 247 810 l 247 619 b 224 583 247 594 240 583 z m 224 138 b 201 181 207 138 201 149 l 201 390 b 224 432 201 421 207 432 b 247 390 242 432 247 421 l 247 181 b 224 138 247 149 242 138 z "},"9":{"ha":456,"x_min":0,"x_max":0,"o":"m 225 972 b 13 760 94 972 13 889 l 13 508 b 157 333 13 401 69 333 b 246 371 196 333 224 346 l 249 371 l 249 178 b 225 138 249 149 243 138 b 201 178 208 138 201 149 l 201 288 l 18 288 l 18 197 b 229 -14 18 68 99 -14 b 438 197 357 -14 438 68 l 438 760 b 225 972 438 889 356 972 z m 225 821 b 249 781 243 821 249 810 l 249 542 b 221 485 249 499 239 485 b 201 514 207 485 201 499 l 201 781 b 225 821 201 810 208 821 z "}," ":{"ha":192,"x_min":0,"x_max":0,"o":""},"A":{"ha":458,"x_min":0,"x_max":0,"o":"m -1 0 l 183 0 l 193 175 l 254 175 l 264 0 l 460 0 l 365 958 l 93 958 z m 199 333 l 222 800 l 225 800 l 249 333 z "},"Á":{"ha":458,"x_min":0,"x_max":0,"o":"m 118 1010 l 271 1010 l 428 1186 l 233 1186 z m -1 0 l 183 0 l 193 175 l 254 175 l 264 0 l 460 0 l 365 958 l 93 958 z m 199 333 l 222 800 l 225 800 l 249 333 z "},"Ă":{"ha":458,"x_min":0,"x_max":0,"o":"m 229 997 b 397 1186 340 997 397 1063 l 276 1186 b 229 1119 276 1142 263 1119 b 182 1186 196 1119 182 1142 l 61 1186 b 229 997 61 1063 118 997 z m -1 0 l 183 0 l 193 175 l 254 175 l 264 0 l 460 0 l 365 958 l 93 958 z m 199 333 l 222 800 l 225 800 l 249 333 z "},"Â":{"ha":458,"x_min":0,"x_max":0,"o":"m 29 1010 l 182 1010 l 229 1061 l 276 1010 l 429 1010 l 293 1186 l 165 1186 z m -1 0 l 183 0 l 193 175 l 254 175 l 264 0 l 460 0 l 365 958 l 93 958 z m 199 333 l 222 800 l 225 800 l 249 333 z "},"Ä":{"ha":458,"x_min":0,"x_max":0,"o":"m 42 1010 l 206 1010 l 206 1186 l 42 1186 z m 253 1010 l 417 1010 l 417 1186 l 253 1186 z m -1 0 l 183 0 l 193 175 l 254 175 l 264 0 l 460 0 l 365 958 l 93 958 z m 199 333 l 222 800 l 225 800 l 249 333 z "},"À":{"ha":458,"x_min":0,"x_max":0,"o":"m 188 1010 l 340 1010 l 225 1186 l 31 1186 z m -1 0 l 183 0 l 193 175 l 254 175 l 264 0 l 460 0 l 365 958 l 93 958 z m 199 333 l 222 800 l 225 800 l 249 333 z "},"Ā":{"ha":458,"x_min":0,"x_max":0,"o":"m 68 1039 l 390 1039 l 390 1160 l 68 1160 z m -1 0 l 183 0 l 193 175 l 254 175 l 264 0 l 460 0 l 365 958 l 93 958 z m 199 333 l 222 800 l 225 800 l 249 333 z "},"Ą":{"ha":458,"x_min":0,"x_max":0,"o":"m 382 -29 b 404 0 382 -15 389 -7 l 460 0 l 365 958 l 93 958 l -1 0 l 183 0 l 193 175 l 254 175 l 264 0 l 333 0 b 260 -93 304 -10 260 -40 b 379 -178 260 -149 303 -178 l 449 -178 l 449 -57 l 422 -57 b 382 -29 397 -57 382 -53 z m 199 333 l 222 800 l 225 800 l 249 333 z "},"Å":{"ha":458,"x_min":0,"x_max":0,"o":"m 229 1001 b 358 1126 306 1001 358 1056 b 229 1251 358 1199 306 1251 b 100 1126 153 1251 100 1199 b 229 1001 100 1056 153 1001 z m 229 1081 b 186 1126 203 1081 186 1099 b 229 1174 186 1154 203 1174 b 274 1126 256 1174 274 1154 b 229 1081 274 1099 256 1081 z m -1 0 l 183 0 l 193 175 l 254 175 l 264 0 l 460 0 l 365 958 l 93 958 z m 199 333 l 222 800 l 225 800 l 249 333 z "},"Ã":{"ha":458,"x_min":0,"x_max":0,"o":"m 43 1000 l 151 1000 b 178 1061 154 1047 160 1061 b 207 1046 185 1061 192 1057 b 297 1013 243 1019 265 1013 b 415 1197 367 1013 407 1065 l 307 1197 b 281 1138 304 1151 299 1138 b 251 1153 274 1138 267 1142 b 161 1186 215 1179 193 1186 b 43 1000 92 1186 51 1133 z m -1 0 l 183 0 l 193 175 l 254 175 l 264 0 l 460 0 l 365 958 l 93 958 z m 199 333 l 222 800 l 225 800 l 249 333 z "},"Æ":{"ha":615,"x_min":0,"x_max":0,"o":"m -4 0 l 179 0 l 197 175 l 271 175 l 271 0 l 610 0 l 610 158 l 464 158 l 464 436 l 585 436 l 585 594 l 464 594 l 464 800 l 610 800 l 610 958 l 146 958 z m 215 333 l 268 800 l 271 800 l 271 333 z "},"Ǽ":{"ha":615,"x_min":0,"x_max":0,"o":"m 194 1010 l 347 1010 l 504 1186 l 310 1186 z m -4 0 l 179 0 l 197 175 l 271 175 l 271 0 l 610 0 l 610 158 l 464 158 l 464 436 l 585 436 l 585 594 l 464 594 l 464 800 l 610 800 l 610 958 l 146 958 z m 215 333 l 268 800 l 271 800 l 271 333 z "},"B":{"ha":471,"x_min":0,"x_max":0,"o":"m 25 0 l 246 0 b 461 217 389 0 461 74 l 461 356 b 378 526 461 444 433 499 l 378 529 b 456 696 429 558 456 610 l 456 742 b 240 958 456 885 383 958 l 25 958 z m 218 592 l 218 800 l 224 800 b 263 743 254 800 263 789 l 263 649 b 224 592 263 603 254 592 z m 218 158 l 218 433 l 229 433 b 268 375 260 433 268 421 l 268 215 b 229 158 268 169 260 158 z "},"":{"ha":471,"x_min":0,"x_max":0,"o":"m 25 0 l 246 0 b 461 217 389 0 461 74 l 461 356 b 378 526 461 444 433 499 l 378 529 b 456 696 429 558 456 610 l 456 742 b 240 958 456 885 383 958 l 25 958 z m 218 592 l 218 800 l 224 800 b 263 743 254 800 263 789 l 263 649 b 224 592 263 603 254 592 z m 218 158 l 218 433 l 229 433 b 268 375 260 433 268 421 l 268 215 b 229 158 268 169 260 158 z "},"C":{"ha":450,"x_min":0,"x_max":0,"o":"m 226 -14 b 440 200 360 -14 440 68 l 440 401 l 251 401 l 251 183 b 232 147 251 157 246 147 b 211 183 215 147 211 157 l 211 775 b 232 811 211 801 215 811 b 251 775 246 811 251 801 l 251 597 l 440 597 l 440 758 b 226 972 440 890 360 972 b 18 758 97 972 18 890 l 18 200 b 226 -14 18 68 97 -14 z "},"Ć":{"ha":450,"x_min":0,"x_max":0,"o":"m 118 1010 l 271 1010 l 428 1186 l 233 1186 z m 226 -14 b 440 200 360 -14 440 68 l 440 401 l 251 401 l 251 183 b 232 147 251 157 246 147 b 211 183 215 147 211 157 l 211 775 b 232 811 211 801 215 811 b 251 775 246 811 251 801 l 251 597 l 440 597 l 440 758 b 226 972 440 890 360 972 b 18 758 97 972 18 890 l 18 200 b 226 -14 18 68 97 -14 z "},"Č":{"ha":450,"x_min":0,"x_max":0,"o":"m 165 1010 l 293 1010 l 429 1186 l 276 1186 l 229 1133 l 182 1186 l 29 1186 z m 226 -14 b 440 200 360 -14 440 68 l 440 401 l 251 401 l 251 183 b 232 147 251 157 246 147 b 211 183 215 147 211 157 l 211 775 b 232 811 211 801 215 811 b 251 775 246 811 251 801 l 251 597 l 440 597 l 440 758 b 226 972 440 890 360 972 b 18 758 97 972 18 890 l 18 200 b 226 -14 18 68 97 -14 z "},"Ç":{"ha":450,"x_min":0,"x_max":0,"o":"m 440 597 l 440 758 b 226 972 440 890 360 972 b 18 758 97 972 18 890 l 18 200 b 192 -11 18 81 83 3 l 171 -62 l 193 -62 b 213 -79 204 -62 213 -67 b 172 -104 213 -99 203 -104 l 129 -104 l 129 -178 l 232 -178 b 329 -107 286 -178 329 -164 b 236 -36 329 -54 300 -39 l 246 -14 b 440 200 367 -6 440 75 l 440 401 l 251 401 l 251 183 b 232 147 251 157 246 147 b 211 183 215 147 211 157 l 211 775 b 232 811 211 801 215 811 b 251 775 246 811 251 801 l 251 597 z "},"Ĉ":{"ha":450,"x_min":0,"x_max":0,"o":"m 29 1010 l 182 1010 l 229 1061 l 276 1010 l 429 1010 l 293 1186 l 165 1186 z m 226 -14 b 440 200 360 -14 440 68 l 440 401 l 251 401 l 251 183 b 232 147 251 157 246 147 b 211 183 215 147 211 157 l 211 775 b 232 811 211 801 215 811 b 251 775 246 811 251 801 l 251 597 l 440 597 l 440 758 b 226 972 440 890 360 972 b 18 758 97 972 18 890 l 18 200 b 226 -14 18 68 97 -14 z "},"Ċ":{"ha":450,"x_min":0,"x_max":0,"o":"m 138 1010 l 321 1010 l 321 1186 l 138 1186 z m 226 -14 b 440 200 360 -14 440 68 l 440 401 l 251 401 l 251 183 b 232 147 251 157 246 147 b 211 183 215 147 211 157 l 211 775 b 232 811 211 801 215 811 b 251 775 246 811 251 801 l 251 597 l 440 597 l 440 758 b 226 972 440 890 360 972 b 18 758 97 972 18 890 l 18 200 b 226 -14 18 68 97 -14 z "},"D":{"ha":474,"x_min":0,"x_max":0,"o":"m 25 0 l 242 0 b 457 217 385 0 457 74 l 457 742 b 242 958 457 885 385 958 l 25 958 z m 218 158 l 218 800 l 225 800 b 264 743 257 800 264 789 l 264 215 b 225 158 264 169 257 158 z "},"Ð":{"ha":475,"x_min":0,"x_max":0,"o":"m 243 958 l 26 958 l 26 558 l 1 558 l 1 400 l 26 400 l 26 0 l 243 0 b 458 217 386 0 458 74 l 458 742 b 243 958 458 885 386 958 z m 265 215 b 226 158 265 169 258 158 l 219 158 l 219 400 l 243 400 l 243 558 l 219 558 l 219 800 l 226 800 b 265 743 258 800 265 789 z "},"Ď":{"ha":474,"x_min":0,"x_max":0,"o":"m 154 1010 l 282 1010 l 418 1186 l 265 1186 l 218 1133 l 171 1186 l 18 1186 z m 25 0 l 242 0 b 457 217 385 0 457 74 l 457 742 b 242 958 457 885 385 958 l 25 958 z m 218 158 l 218 800 l 225 800 b 264 743 257 800 264 789 l 264 215 b 225 158 264 169 257 158 z "},"Đ":{"ha":475,"x_min":0,"x_max":0,"o":"m 243 958 l 26 958 l 26 558 l 1 558 l 1 400 l 26 400 l 26 0 l 243 0 b 458 217 386 0 458 74 l 458 742 b 243 958 458 885 386 958 z m 265 215 b 226 158 265 169 258 158 l 219 158 l 219 400 l 243 400 l 243 558 l 219 558 l 219 800 l 226 800 b 265 743 258 800 265 789 z "},"E":{"ha":403,"x_min":0,"x_max":0,"o":"m 25 0 l 397 0 l 397 158 l 218 158 l 218 436 l 372 436 l 372 594 l 218 594 l 218 800 l 397 800 l 397 958 l 25 958 z "},"":{"ha":403,"x_min":0,"x_max":0,"o":"m 25 0 l 397 0 l 397 158 l 218 158 l 218 436 l 372 436 l 372 594 l 218 594 l 218 800 l 397 800 l 397 958 l 25 958 z "},"É":{"ha":403,"x_min":0,"x_max":0,"o":"m 100 1010 l 253 1010 l 410 1186 l 215 1186 z m 25 0 l 397 0 l 397 158 l 218 158 l 218 436 l 372 436 l 372 594 l 218 594 l 218 800 l 397 800 l 397 958 l 25 958 z "},"Ĕ":{"ha":403,"x_min":0,"x_max":0,"o":"m 211 997 b 379 1186 322 997 379 1063 l 258 1186 b 211 1119 258 1142 244 1119 b 164 1186 178 1119 164 1142 l 43 1186 b 211 997 43 1063 100 997 z m 25 0 l 397 0 l 397 158 l 218 158 l 218 436 l 372 436 l 372 594 l 218 594 l 218 800 l 397 800 l 397 958 l 25 958 z "},"Ě":{"ha":403,"x_min":0,"x_max":0,"o":"m 147 1010 l 275 1010 l 411 1186 l 258 1186 l 211 1133 l 164 1186 l 11 1186 z m 25 0 l 397 0 l 397 158 l 218 158 l 218 436 l 372 436 l 372 594 l 218 594 l 218 800 l 397 800 l 397 958 l 25 958 z "},"Ê":{"ha":403,"x_min":0,"x_max":0,"o":"m 11 1010 l 164 1010 l 211 1061 l 258 1010 l 411 1010 l 275 1186 l 147 1186 z m 25 0 l 397 0 l 397 158 l 218 158 l 218 436 l 372 436 l 372 594 l 218 594 l 218 800 l 397 800 l 397 958 l 25 958 z "},"Ë":{"ha":403,"x_min":0,"x_max":0,"o":"m 24 1010 l 188 1010 l 188 1186 l 24 1186 z m 235 1010 l 399 1010 l 399 1186 l 235 1186 z m 25 0 l 397 0 l 397 158 l 218 158 l 218 436 l 372 436 l 372 594 l 218 594 l 218 800 l 397 800 l 397 958 l 25 958 z "},"Ė":{"ha":403,"x_min":0,"x_max":0,"o":"m 119 1010 l 303 1010 l 303 1186 l 119 1186 z m 25 0 l 397 0 l 397 158 l 218 158 l 218 436 l 372 436 l 372 594 l 218 594 l 218 800 l 397 800 l 397 958 l 25 958 z "},"È":{"ha":403,"x_min":0,"x_max":0,"o":"m 169 1010 l 322 1010 l 207 1186 l 13 1186 z m 25 0 l 397 0 l 397 158 l 218 158 l 218 436 l 372 436 l 372 594 l 218 594 l 218 800 l 397 800 l 397 958 l 25 958 z "},"Ē":{"ha":403,"x_min":0,"x_max":0,"o":"m 50 1039 l 372 1039 l 372 1160 l 50 1160 z m 25 0 l 397 0 l 397 158 l 218 158 l 218 436 l 372 436 l 372 594 l 218 594 l 218 800 l 397 800 l 397 958 l 25 958 z "},"Ę":{"ha":403,"x_min":0,"x_max":0,"o":"m 397 800 l 397 958 l 25 958 l 25 0 l 282 0 b 208 -93 253 -10 208 -40 b 328 -178 208 -149 251 -178 l 397 -178 l 397 -57 l 371 -57 b 331 -29 346 -57 331 -53 b 353 0 331 -15 338 -7 l 397 0 l 397 158 l 218 158 l 218 436 l 372 436 l 372 594 l 218 594 l 218 800 z "},"F":{"ha":396,"x_min":0,"x_max":0,"o":"m 25 0 l 218 0 l 218 419 l 374 419 l 374 578 l 218 578 l 218 800 l 397 800 l 397 958 l 25 958 z "},"G":{"ha":469,"x_min":0,"x_max":0,"o":"m 156 -14 b 279 71 218 -14 258 14 l 285 71 l 285 0 l 450 0 l 450 554 l 238 554 l 238 394 l 261 394 l 261 211 b 233 147 261 164 256 147 b 213 174 217 147 213 158 l 213 771 b 236 811 213 800 218 811 b 258 771 253 811 258 800 l 258 646 l 447 646 l 447 751 b 235 972 447 888 365 972 b 19 751 104 972 19 888 l 19 163 b 156 -14 19 53 69 -14 z "},"Ğ":{"ha":469,"x_min":0,"x_max":0,"o":"m 235 997 b 403 1186 346 997 403 1063 l 282 1186 b 235 1119 282 1142 268 1119 b 188 1186 201 1119 188 1142 l 67 1186 b 235 997 67 1063 124 997 z m 156 -14 b 279 71 218 -14 258 14 l 285 71 l 285 0 l 450 0 l 450 554 l 238 554 l 238 394 l 261 394 l 261 211 b 233 147 261 164 256 147 b 213 174 217 147 213 158 l 213 771 b 236 811 213 800 218 811 b 258 771 253 811 258 800 l 258 646 l 447 646 l 447 751 b 235 972 447 888 365 972 b 19 751 104 972 19 888 l 19 163 b 156 -14 19 53 69 -14 z "},"Ĝ":{"ha":469,"x_min":0,"x_max":0,"o":"m 35 1010 l 188 1010 l 235 1061 l 282 1010 l 435 1010 l 299 1186 l 171 1186 z m 156 -14 b 279 71 218 -14 258 14 l 285 71 l 285 0 l 450 0 l 450 554 l 238 554 l 238 394 l 261 394 l 261 211 b 233 147 261 164 256 147 b 213 174 217 147 213 158 l 213 771 b 236 811 213 800 218 811 b 258 771 253 811 258 800 l 258 646 l 447 646 l 447 751 b 235 972 447 888 365 972 b 19 751 104 972 19 888 l 19 163 b 156 -14 19 53 69 -14 z "},"Ģ":{"ha":469,"x_min":0,"x_max":0,"o":"m 156 -14 b 279 71 218 -14 258 14 l 285 71 l 285 0 l 450 0 l 450 554 l 238 554 l 238 394 l 261 394 l 261 211 b 233 147 261 164 256 147 b 213 174 217 147 213 158 l 213 771 b 236 811 213 800 218 811 b 258 771 253 811 258 800 l 258 646 l 447 646 l 447 751 b 235 972 447 888 365 972 b 19 751 104 972 19 888 l 19 163 b 156 -14 19 53 69 -14 z m 126 -278 l 240 -278 l 331 -169 l 331 -54 l 142 -54 l 142 -185 l 194 -185 z "},"Ġ":{"ha":469,"x_min":0,"x_max":0,"o":"m 143 1010 l 326 1010 l 326 1186 l 143 1186 z m 156 -14 b 279 71 218 -14 258 14 l 285 71 l 285 0 l 450 0 l 450 554 l 238 554 l 238 394 l 261 394 l 261 211 b 233 147 261 164 256 147 b 213 174 217 147 213 158 l 213 771 b 236 811 213 800 218 811 b 258 771 253 811 258 800 l 258 646 l 447 646 l 447 751 b 235 972 447 888 365 972 b 19 751 104 972 19 888 l 19 163 b 156 -14 19 53 69 -14 z "},"H":{"ha":479,"x_min":0,"x_max":0,"o":"m 25 0 l 218 0 l 218 436 l 261 436 l 261 0 l 454 0 l 454 958 l 261 958 l 261 594 l 218 594 l 218 958 l 25 958 z "},"Ħ":{"ha":494,"x_min":0,"x_max":0,"o":"m 497 847 l 461 847 l 461 958 l 268 958 l 268 847 l 225 847 l 225 958 l 32 958 l 32 847 l -3 847 l -3 707 l 32 707 l 32 0 l 225 0 l 225 436 l 268 436 l 268 0 l 461 0 l 461 707 l 497 707 z m 268 594 l 225 594 l 225 707 l 268 707 z "},"Ĥ":{"ha":479,"x_min":0,"x_max":0,"o":"m 39 1010 l 192 1010 l 239 1061 l 286 1010 l 439 1010 l 303 1186 l 175 1186 z m 25 0 l 218 0 l 218 436 l 261 436 l 261 0 l 454 0 l 454 958 l 261 958 l 261 594 l 218 594 l 218 958 l 25 958 z "},"I":{"ha":243,"x_min":0,"x_max":0,"o":"m 25 0 l 218 0 l 218 958 l 25 958 z "},"Í":{"ha":243,"x_min":0,"x_max":0,"o":"m 11 1010 l 164 1010 l 321 1186 l 126 1186 z m 25 0 l 218 0 l 218 958 l 25 958 z "},"Ĭ":{"ha":243,"x_min":0,"x_max":0,"o":"m 122 997 b 283 1186 232 997 283 1060 l 164 1186 b 122 1119 164 1139 154 1119 b 81 1186 90 1119 81 1139 l -39 1186 b 122 997 -39 1060 13 997 z m 25 0 l 218 0 l 218 958 l 25 958 z "},"Î":{"ha":243,"x_min":0,"x_max":0,"o":"m -74 1010 l 78 1010 l 122 1061 l 167 1010 l 318 1010 l 186 1186 l 58 1186 z m 25 0 l 218 0 l 218 958 l 25 958 z "},"Ï":{"ha":243,"x_min":0,"x_max":0,"o":"m -57 1010 l 103 1010 l 103 1186 l -57 1186 z m 142 1010 l 301 1010 l 301 1186 l 142 1186 z m 25 0 l 218 0 l 218 958 l 25 958 z "},"İ":{"ha":243,"x_min":0,"x_max":0,"o":"m 31 1010 l 214 1010 l 214 1186 l 31 1186 z m 25 0 l 218 0 l 218 958 l 25 958 z "},"Ì":{"ha":243,"x_min":0,"x_max":0,"o":"m 81 1010 l 233 1010 l 118 1186 l -76 1186 z m 25 0 l 218 0 l 218 958 l 25 958 z "},"Ī":{"ha":243,"x_min":0,"x_max":0,"o":"m -33 1039 l 278 1039 l 278 1160 l -33 1160 z m 25 0 l 218 0 l 218 958 l 25 958 z "},"Į":{"ha":243,"x_min":0,"x_max":0,"o":"m 218 0 l 218 958 l 25 958 l 25 0 l 96 0 b 26 -94 49 -21 26 -53 b 146 -178 26 -149 69 -178 l 215 -178 l 215 -57 l 189 -57 b 149 -31 164 -57 149 -53 b 158 0 149 -21 151 -11 z "},"Ĩ":{"ha":243,"x_min":0,"x_max":0,"o":"m -61 1000 l 47 1000 b 74 1061 50 1051 56 1061 b 103 1046 81 1061 89 1057 b 192 1013 136 1021 158 1013 b 306 1197 257 1013 296 1065 l 197 1197 b 171 1138 194 1147 189 1138 b 142 1153 164 1138 156 1142 b 53 1186 108 1178 86 1186 b -61 1000 -12 1186 -51 1133 z m 25 0 l 218 0 l 218 958 l 25 958 z "},"J":{"ha":449,"x_min":0,"x_max":0,"o":"m 214 -14 b 425 200 342 -14 425 69 l 425 958 l 232 958 l 232 181 b 211 147 232 157 225 147 b 192 181 199 147 192 157 l 192 401 l 3 401 l 3 200 b 214 -14 3 69 86 -14 z "},"Ĵ":{"ha":449,"x_min":0,"x_max":0,"o":"m 128 1010 l 281 1010 l 328 1061 l 375 1010 l 528 1010 l 392 1186 l 264 1186 z m 214 -14 b 425 200 342 -14 425 69 l 425 958 l 232 958 l 232 181 b 211 147 232 157 225 147 b 192 181 199 147 192 157 l 192 401 l 3 401 l 3 200 b 214 -14 3 69 86 -14 z "},"K":{"ha":483,"x_min":0,"x_max":0,"o":"m 488 0 l 401 511 l 479 958 l 290 958 l 221 513 l 218 513 l 218 958 l 25 958 l 25 0 l 218 0 l 218 481 l 221 481 l 292 0 z "},"Ķ":{"ha":483,"x_min":0,"x_max":0,"o":"m 488 0 l 401 511 l 479 958 l 290 958 l 221 513 l 218 513 l 218 958 l 25 958 l 25 0 l 218 0 l 218 481 l 221 481 l 292 0 z m 149 -278 l 263 -278 l 353 -169 l 353 -54 l 164 -54 l 164 -185 l 217 -185 z "},"L":{"ha":379,"x_min":0,"x_max":0,"o":"m 25 0 l 383 0 l 383 158 l 218 158 l 218 958 l 25 958 z "},"Ĺ":{"ha":379,"x_min":0,"x_max":0,"o":"m 11 1010 l 164 1010 l 321 1186 l 126 1186 z m 25 0 l 383 0 l 383 158 l 218 158 l 218 958 l 25 958 z "},"Ľ":{"ha":379,"x_min":0,"x_max":0,"o":"m 25 0 l 383 0 l 383 158 l 218 158 l 218 958 l 25 958 z m 218 754 l 325 754 b 414 935 381 806 414 874 l 414 958 l 282 958 b 288 919 285 946 288 932 b 218 754 288 863 263 801 z "},"Ļ":{"ha":379,"x_min":0,"x_max":0,"o":"m 25 0 l 383 0 l 383 158 l 218 158 l 218 958 l 25 958 z m 96 -278 l 210 -278 l 300 -169 l 300 -54 l 111 -54 l 111 -185 l 164 -185 z "},"Ł":{"ha":383,"x_min":0,"x_max":0,"o":"m 221 158 l 221 410 l 344 558 l 344 758 l 221 610 l 221 958 l 28 958 l 28 379 l 3 349 l 3 147 l 28 178 l 28 0 l 386 0 l 386 158 z "},"M":{"ha":694,"x_min":0,"x_max":0,"o":"m 25 0 l 188 0 l 188 796 l 190 796 l 261 0 l 406 0 l 476 796 l 479 796 l 479 0 l 669 0 l 669 958 l 369 958 l 336 565 l 333 565 l 301 958 l 25 958 z "},"N":{"ha":514,"x_min":0,"x_max":0,"o":"m 25 0 l 186 0 l 186 594 l 189 594 l 267 0 l 489 0 l 489 958 l 328 958 l 328 449 l 325 449 l 258 958 l 25 958 z "},"Ń":{"ha":514,"x_min":0,"x_max":0,"o":"m 147 1010 l 300 1010 l 457 1186 l 263 1186 z m 25 0 l 186 0 l 186 594 l 189 594 l 267 0 l 489 0 l 489 958 l 328 958 l 328 449 l 325 449 l 258 958 l 25 958 z "},"Ň":{"ha":514,"x_min":0,"x_max":0,"o":"m 194 1010 l 322 1010 l 458 1186 l 306 1186 l 258 1133 l 211 1186 l 58 1186 z m 25 0 l 186 0 l 186 594 l 189 594 l 267 0 l 489 0 l 489 958 l 328 958 l 328 449 l 325 449 l 258 958 l 25 958 z "},"Ņ":{"ha":514,"x_min":0,"x_max":0,"o":"m 25 0 l 186 0 l 186 594 l 189 594 l 267 0 l 489 0 l 489 958 l 328 958 l 328 449 l 325 449 l 258 958 l 25 958 z m 150 -278 l 264 -278 l 354 -169 l 354 -54 l 165 -54 l 165 -185 l 218 -185 z "},"Ŋ":{"ha":478,"x_min":0,"x_max":0,"o":"m 218 -178 l 268 -178 b 454 -1 393 -178 454 -121 l 454 797 b 333 972 454 908 414 972 b 214 886 275 972 235 942 l 211 886 l 211 958 l 25 958 l 25 0 l 218 0 l 218 747 b 244 811 218 794 226 811 b 261 783 256 811 261 803 l 261 -18 b 236 -43 261 -32 253 -43 l 218 -43 z "},"Ñ":{"ha":514,"x_min":0,"x_max":0,"o":"m 72 1000 l 181 1000 b 207 1061 183 1047 189 1061 b 236 1046 214 1061 221 1057 b 326 1013 272 1019 294 1013 b 444 1197 396 1013 436 1065 l 336 1197 b 310 1138 333 1151 328 1138 b 281 1153 303 1138 296 1142 b 190 1186 244 1179 222 1186 b 72 1000 121 1186 81 1133 z m 25 0 l 186 0 l 186 594 l 189 594 l 267 0 l 489 0 l 489 958 l 328 958 l 328 449 l 325 449 l 258 958 l 25 958 z "},"O":{"ha":468,"x_min":0,"x_max":0,"o":"m 235 -14 b 450 208 368 -14 450 71 l 450 750 b 235 972 450 888 368 972 b 18 750 103 972 18 888 l 18 208 b 235 -14 18 71 103 -14 z m 235 147 b 211 188 217 147 211 158 l 211 771 b 235 811 211 800 217 811 b 257 771 251 811 257 800 l 257 188 b 235 147 257 158 251 147 z "},"Ó":{"ha":468,"x_min":0,"x_max":0,"o":"m 124 1010 l 276 1010 l 433 1186 l 239 1186 z m 235 -14 b 450 208 368 -14 450 71 l 450 750 b 235 972 450 888 368 972 b 18 750 103 972 18 888 l 18 208 b 235 -14 18 71 103 -14 z m 235 147 b 211 188 217 147 211 158 l 211 771 b 235 811 211 800 217 811 b 257 771 251 811 257 800 l 257 188 b 235 147 257 158 251 147 z "},"Ŏ":{"ha":468,"x_min":0,"x_max":0,"o":"m 235 997 b 403 1186 346 997 403 1063 l 282 1186 b 235 1119 282 1142 268 1119 b 188 1186 201 1119 188 1142 l 67 1186 b 235 997 67 1063 124 997 z m 235 -14 b 450 208 368 -14 450 71 l 450 750 b 235 972 450 888 368 972 b 18 750 103 972 18 888 l 18 208 b 235 -14 18 71 103 -14 z m 235 147 b 211 188 217 147 211 158 l 211 771 b 235 811 211 800 217 811 b 257 771 251 811 257 800 l 257 188 b 235 147 257 158 251 147 z "},"Ô":{"ha":468,"x_min":0,"x_max":0,"o":"m 35 1010 l 188 1010 l 235 1061 l 282 1010 l 435 1010 l 299 1186 l 171 1186 z m 235 -14 b 450 208 368 -14 450 71 l 450 750 b 235 972 450 888 368 972 b 18 750 103 972 18 888 l 18 208 b 235 -14 18 71 103 -14 z m 235 147 b 211 188 217 147 211 158 l 211 771 b 235 811 211 800 217 811 b 257 771 251 811 257 800 l 257 188 b 235 147 257 158 251 147 z "},"Ö":{"ha":468,"x_min":0,"x_max":0,"o":"m 47 1010 l 211 1010 l 211 1186 l 47 1186 z m 258 1010 l 422 1010 l 422 1186 l 258 1186 z m 235 -14 b 450 208 368 -14 450 71 l 450 750 b 235 972 450 888 368 972 b 18 750 103 972 18 888 l 18 208 b 235 -14 18 71 103 -14 z m 235 147 b 211 188 217 147 211 158 l 211 771 b 235 811 211 800 217 811 b 257 771 251 811 257 800 l 257 188 b 235 147 257 158 251 147 z "},"Ò":{"ha":468,"x_min":0,"x_max":0,"o":"m 193 1010 l 346 1010 l 231 1186 l 36 1186 z m 235 -14 b 450 208 368 -14 450 71 l 450 750 b 235 972 450 888 368 972 b 18 750 103 972 18 888 l 18 208 b 235 -14 18 71 103 -14 z m 235 147 b 211 188 217 147 211 158 l 211 771 b 235 811 211 800 217 811 b 257 771 251 811 257 800 l 257 188 b 235 147 257 158 251 147 z "},"Ő":{"ha":468,"x_min":0,"x_max":0,"o":"m 42 1010 l 189 1010 l 304 1186 l 136 1186 z m 251 1010 l 401 1010 l 515 1186 l 349 1186 z m 235 -14 b 450 208 368 -14 450 71 l 450 750 b 235 972 450 888 368 972 b 18 750 103 972 18 888 l 18 208 b 235 -14 18 71 103 -14 z m 235 147 b 211 188 217 147 211 158 l 211 771 b 235 811 211 800 217 811 b 257 771 251 811 257 800 l 257 188 b 235 147 257 158 251 147 z "},"Ō":{"ha":468,"x_min":0,"x_max":0,"o":"m 74 1039 l 396 1039 l 396 1160 l 74 1160 z m 235 -14 b 450 208 368 -14 450 71 l 450 750 b 235 972 450 888 368 972 b 18 750 103 972 18 888 l 18 208 b 235 -14 18 71 103 -14 z m 235 147 b 211 188 217 147 211 158 l 211 771 b 235 811 211 800 217 811 b 257 771 251 811 257 800 l 257 188 b 235 147 257 158 251 147 z "},"Ø":{"ha":468,"x_min":0,"x_max":0,"o":"m 464 933 l 372 972 l 360 939 b 235 972 326 961 283 972 b 18 750 103 972 18 888 l 18 208 b 38 107 18 169 25 136 l 6 25 l 97 -14 l 110 19 b 235 -14 144 -3 186 -14 b 450 208 368 -14 450 71 l 450 750 b 432 851 450 788 444 822 z m 211 771 b 235 811 211 800 217 811 b 257 771 251 811 257 800 l 257 675 l 211 556 z m 257 188 b 235 147 257 158 251 147 b 211 188 217 147 211 158 l 211 281 l 257 399 z "},"Ǿ":{"ha":468,"x_min":0,"x_max":0,"o":"m 433 1186 l 239 1186 l 124 1010 l 276 1010 z m 464 933 l 372 972 l 360 939 b 235 972 326 961 283 972 b 18 750 103 972 18 888 l 18 208 b 38 107 18 169 25 136 l 6 25 l 97 -14 l 110 19 b 235 -14 144 -3 186 -14 b 450 208 368 -14 450 71 l 450 750 b 432 851 450 788 444 822 z m 211 771 b 235 811 211 800 217 811 b 257 771 251 811 257 800 l 257 675 l 211 556 z m 257 188 b 235 147 257 158 251 147 b 211 188 217 147 211 158 l 211 281 l 257 399 z "},"Õ":{"ha":468,"x_min":0,"x_max":0,"o":"m 49 1000 l 157 1000 b 183 1061 160 1047 165 1061 b 213 1046 190 1061 197 1057 b 303 1013 249 1019 271 1013 b 421 1197 372 1013 413 1065 l 313 1197 b 286 1138 310 1151 304 1138 b 257 1153 279 1138 272 1142 b 167 1186 221 1179 199 1186 b 49 1000 97 1186 57 1133 z m 235 -14 b 450 208 368 -14 450 71 l 450 750 b 235 972 450 888 368 972 b 18 750 103 972 18 888 l 18 208 b 235 -14 18 71 103 -14 z m 235 147 b 211 188 217 147 211 158 l 211 771 b 235 811 211 800 217 811 b 257 771 251 811 257 800 l 257 188 b 235 147 257 158 251 147 z "},"Œ":{"ha":601,"x_min":0,"x_max":0,"o":"m 232 0 l 596 0 l 596 158 l 450 158 l 450 436 l 571 436 l 571 594 l 450 594 l 450 800 l 596 800 l 596 958 l 232 958 b 17 742 89 958 17 885 l 17 217 b 232 0 17 74 89 0 z m 249 158 b 210 215 217 158 210 169 l 210 743 b 249 800 210 789 217 800 l 257 800 l 257 158 z "},"P":{"ha":458,"x_min":0,"x_max":0,"o":"m 25 0 l 218 0 l 218 403 l 242 403 b 457 619 385 403 457 476 l 457 742 b 242 958 457 885 385 958 l 25 958 z m 218 561 l 218 800 l 225 800 b 264 743 257 800 264 789 l 264 619 b 225 561 264 574 257 561 z "},"Þ":{"ha":458,"x_min":0,"x_max":0,"o":"m 25 0 l 218 0 l 218 242 l 242 242 b 457 458 385 242 457 315 l 457 581 b 242 797 457 724 385 797 l 218 797 l 218 958 l 25 958 z m 218 400 l 218 639 l 225 639 b 264 582 257 639 264 628 l 264 457 b 225 400 264 411 257 400 z "},"Q":{"ha":468,"x_min":0,"x_max":0,"o":"m 346 -178 l 450 -178 l 450 -42 l 376 -42 b 353 -19 363 -42 353 -33 l 353 14 b 450 208 415 50 450 118 l 450 750 b 235 972 450 888 368 972 b 18 750 103 972 18 888 l 18 208 b 169 -7 18 93 76 18 l 169 -8 b 346 -178 169 -124 228 -178 z m 235 147 b 211 188 217 147 211 158 l 211 771 b 235 811 211 800 217 811 b 257 771 251 811 257 800 l 257 188 b 235 147 257 158 251 147 z "},"R":{"ha":472,"x_min":0,"x_max":0,"o":"m 25 0 l 218 0 l 218 417 l 219 417 b 263 361 249 417 263 407 l 263 0 l 456 0 l 456 338 b 375 506 456 425 429 479 l 375 508 b 456 678 429 536 456 590 l 456 742 b 240 958 456 885 383 958 l 25 958 z m 218 575 l 218 800 l 224 800 b 263 743 254 800 263 789 l 263 633 b 224 575 263 588 254 575 z "},"Ŕ":{"ha":472,"x_min":0,"x_max":0,"o":"m 104 1010 l 257 1010 l 414 1186 l 219 1186 z m 25 0 l 218 0 l 218 417 l 219 417 b 263 361 249 417 263 407 l 263 0 l 456 0 l 456 338 b 375 506 456 425 429 479 l 375 508 b 456 678 429 536 456 590 l 456 742 b 240 958 456 885 383 958 l 25 958 z m 218 575 l 218 800 l 224 800 b 263 743 254 800 263 789 l 263 633 b 224 575 263 588 254 575 z "},"Ř":{"ha":472,"x_min":0,"x_max":0,"o":"m 151 1010 l 279 1010 l 415 1186 l 263 1186 l 215 1133 l 168 1186 l 15 1186 z m 25 0 l 218 0 l 218 417 l 219 417 b 263 361 249 417 263 407 l 263 0 l 456 0 l 456 338 b 375 506 456 425 429 479 l 375 508 b 456 678 429 536 456 590 l 456 742 b 240 958 456 885 383 958 l 25 958 z m 218 575 l 218 800 l 224 800 b 263 743 254 800 263 789 l 263 633 b 224 575 263 588 254 575 z "},"Ŗ":{"ha":472,"x_min":0,"x_max":0,"o":"m 25 0 l 218 0 l 218 417 l 219 417 b 263 361 249 417 263 407 l 263 0 l 456 0 l 456 338 b 375 506 456 425 429 479 l 375 508 b 456 678 429 536 456 590 l 456 742 b 240 958 456 885 383 958 l 25 958 z m 218 575 l 218 800 l 224 800 b 263 743 254 800 263 789 l 263 633 b 224 575 263 588 254 575 z m 132 -278 l 246 -278 l 336 -169 l 336 -54 l 147 -54 l 147 -185 l 200 -185 z "},"S":{"ha":446,"x_min":0,"x_max":0,"o":"m 225 -14 b 439 206 361 -14 439 69 l 439 332 b 321 549 439 431 403 493 l 240 603 b 203 669 214 619 203 642 l 203 778 b 222 811 203 801 207 811 b 240 778 235 811 240 801 l 240 640 l 429 640 l 429 758 b 217 972 429 890 349 972 b 10 758 89 972 10 890 l 10 664 b 129 447 10 565 46 503 l 208 393 b 246 326 235 376 246 354 l 246 188 b 224 147 246 158 240 147 b 199 188 206 147 199 158 l 199 358 l 10 358 l 10 206 b 225 -14 10 69 90 -14 z "},"":{"ha":446,"x_min":0,"x_max":0,"o":"m 225 -14 b 439 206 361 -14 439 69 l 439 332 b 321 549 439 431 403 493 l 240 603 b 203 669 214 619 203 642 l 203 778 b 222 811 203 801 207 811 b 240 778 235 811 240 801 l 240 640 l 429 640 l 429 758 b 217 972 429 890 349 972 b 10 758 89 972 10 890 l 10 664 b 129 447 10 565 46 503 l 208 393 b 246 326 235 376 246 354 l 246 188 b 224 147 246 158 240 147 b 199 188 206 147 199 158 l 199 358 l 10 358 l 10 206 b 225 -14 10 69 90 -14 z "},"Ś":{"ha":446,"x_min":0,"x_max":0,"o":"m 110 1010 l 263 1010 l 419 1186 l 225 1186 z m 225 -14 b 439 206 361 -14 439 69 l 439 332 b 321 549 439 431 403 493 l 240 603 b 203 669 214 619 203 642 l 203 778 b 222 811 203 801 207 811 b 240 778 235 811 240 801 l 240 640 l 429 640 l 429 758 b 217 972 429 890 349 972 b 10 758 89 972 10 890 l 10 664 b 129 447 10 565 46 503 l 208 393 b 246 326 235 376 246 354 l 246 188 b 224 147 246 158 240 147 b 199 188 206 147 199 158 l 199 358 l 10 358 l 10 206 b 225 -14 10 69 90 -14 z "},"Š":{"ha":446,"x_min":0,"x_max":0,"o":"m 157 1010 l 285 1010 l 421 1186 l 268 1186 l 221 1133 l 174 1186 l 21 1186 z m 225 -14 b 439 206 361 -14 439 69 l 439 332 b 321 549 439 431 403 493 l 240 603 b 203 669 214 619 203 642 l 203 778 b 222 811 203 801 207 811 b 240 778 235 811 240 801 l 240 640 l 429 640 l 429 758 b 217 972 429 890 349 972 b 10 758 89 972 10 890 l 10 664 b 129 447 10 565 46 503 l 208 393 b 246 326 235 376 246 354 l 246 188 b 224 147 246 158 240 147 b 199 188 206 147 199 158 l 199 358 l 10 358 l 10 206 b 225 -14 10 69 90 -14 z "},"Ş":{"ha":446,"x_min":0,"x_max":0,"o":"m 321 549 l 240 603 b 203 669 214 619 203 642 l 203 778 b 222 811 203 801 207 811 b 240 778 235 811 240 801 l 240 640 l 429 640 l 429 758 b 217 972 429 890 349 972 b 10 758 89 972 10 890 l 10 664 b 129 447 10 565 46 503 l 208 393 b 246 326 235 376 246 354 l 246 188 b 224 147 246 158 240 147 b 199 188 206 147 199 158 l 199 358 l 10 358 l 10 206 b 186 -11 10 83 75 4 l 165 -62 l 188 -62 b 207 -79 199 -62 207 -67 b 167 -104 207 -99 197 -104 l 124 -104 l 124 -178 l 226 -178 b 324 -107 281 -178 324 -164 b 231 -36 324 -54 294 -39 l 239 -14 b 439 206 367 -8 439 75 l 439 332 b 321 549 439 431 403 493 z "},"Ŝ":{"ha":446,"x_min":0,"x_max":0,"o":"m 21 1010 l 174 1010 l 221 1061 l 268 1010 l 421 1010 l 285 1186 l 157 1186 z m 225 -14 b 439 206 361 -14 439 69 l 439 332 b 321 549 439 431 403 493 l 240 603 b 203 669 214 619 203 642 l 203 778 b 222 811 203 801 207 811 b 240 778 235 811 240 801 l 240 640 l 429 640 l 429 758 b 217 972 429 890 349 972 b 10 758 89 972 10 890 l 10 664 b 129 447 10 565 46 503 l 208 393 b 246 326 235 376 246 354 l 246 188 b 224 147 246 158 240 147 b 199 188 206 147 199 158 l 199 358 l 10 358 l 10 206 b 225 -14 10 69 90 -14 z "},"Ș":{"ha":446,"x_min":0,"x_max":0,"o":"m 225 -14 b 439 206 361 -14 439 69 l 439 332 b 321 549 439 431 403 493 l 240 603 b 203 669 214 619 203 642 l 203 778 b 222 811 203 801 207 811 b 240 778 235 811 240 801 l 240 640 l 429 640 l 429 758 b 217 972 429 890 349 972 b 10 758 89 972 10 890 l 10 664 b 129 447 10 565 46 503 l 208 393 b 246 326 235 376 246 354 l 246 188 b 224 147 246 158 240 147 b 199 188 206 147 199 158 l 199 358 l 10 358 l 10 206 b 225 -14 10 69 90 -14 z m 115 -278 l 229 -278 l 319 -169 l 319 -54 l 131 -54 l 131 -185 l 183 -185 z "},"ẞ":{"ha":475,"x_min":0,"x_max":0,"o":"m 400 556 l 453 644 l 453 750 b 238 972 453 888 372 972 b 21 750 106 972 21 888 l 21 0 l 214 0 l 214 771 b 238 811 214 800 219 811 b 260 771 254 811 260 800 l 260 633 l 231 585 l 231 447 b 274 346 267 424 274 399 l 274 215 b 235 158 274 169 267 158 l 231 158 l 231 0 l 251 0 b 467 217 394 0 467 74 l 467 356 b 400 556 467 444 442 508 z "},"T":{"ha":421,"x_min":0,"x_max":0,"o":"m 114 0 l 307 0 l 307 800 l 424 800 l 424 958 l -3 958 l -3 800 l 114 800 z "},"Ŧ":{"ha":421,"x_min":0,"x_max":0,"o":"m 424 800 l 424 958 l -3 958 l -3 800 l 114 800 l 114 583 l 32 583 l 32 425 l 114 425 l 114 0 l 307 0 l 307 425 l 388 425 l 388 583 l 307 583 l 307 800 z "},"Ť":{"ha":421,"x_min":0,"x_max":0,"o":"m 146 1010 l 274 1010 l 410 1186 l 257 1186 l 210 1133 l 163 1186 l 10 1186 z m 114 0 l 307 0 l 307 800 l 424 800 l 424 958 l -3 958 l -3 800 l 114 800 z "},"Ţ":{"ha":421,"x_min":0,"x_max":0,"o":"m 307 0 l 307 800 l 424 800 l 424 958 l -3 958 l -3 800 l 114 800 l 114 0 l 176 0 l 151 -62 l 174 -62 b 193 -79 185 -62 193 -67 b 153 -104 193 -99 183 -104 l 110 -104 l 110 -178 l 213 -178 b 310 -107 267 -178 310 -164 b 217 -36 310 -54 281 -39 l 231 0 z "},"Ț":{"ha":421,"x_min":0,"x_max":0,"o":"m 114 0 l 307 0 l 307 800 l 424 800 l 424 958 l -3 958 l -3 800 l 114 800 z m 101 -278 l 215 -278 l 306 -169 l 306 -54 l 117 -54 l 117 -185 l 169 -185 z "},"U":{"ha":467,"x_min":0,"x_max":0,"o":"m 233 -14 b 446 200 361 -14 446 69 l 446 958 l 256 958 l 256 185 b 236 147 256 157 251 147 b 214 185 219 147 214 157 l 214 958 l 21 958 l 21 200 b 233 -14 21 69 106 -14 z "},"Ú":{"ha":467,"x_min":0,"x_max":0,"o":"m 124 1010 l 276 1010 l 433 1186 l 239 1186 z m 233 -14 b 446 200 361 -14 446 69 l 446 958 l 256 958 l 256 185 b 236 147 256 157 251 147 b 214 185 219 147 214 157 l 214 958 l 21 958 l 21 200 b 233 -14 21 69 106 -14 z "},"Ŭ":{"ha":467,"x_min":0,"x_max":0,"o":"m 235 997 b 403 1186 346 997 403 1063 l 282 1186 b 235 1119 282 1142 268 1119 b 188 1186 201 1119 188 1142 l 67 1186 b 235 997 67 1063 124 997 z m 233 -14 b 446 200 361 -14 446 69 l 446 958 l 256 958 l 256 185 b 236 147 256 157 251 147 b 214 185 219 147 214 157 l 214 958 l 21 958 l 21 200 b 233 -14 21 69 106 -14 z "},"Û":{"ha":467,"x_min":0,"x_max":0,"o":"m 35 1010 l 188 1010 l 235 1061 l 282 1010 l 435 1010 l 299 1186 l 171 1186 z m 233 -14 b 446 200 361 -14 446 69 l 446 958 l 256 958 l 256 185 b 236 147 256 157 251 147 b 214 185 219 147 214 157 l 214 958 l 21 958 l 21 200 b 233 -14 21 69 106 -14 z "},"Ü":{"ha":467,"x_min":0,"x_max":0,"o":"m 47 1010 l 211 1010 l 211 1186 l 47 1186 z m 258 1010 l 422 1010 l 422 1186 l 258 1186 z m 233 -14 b 446 200 361 -14 446 69 l 446 958 l 256 958 l 256 185 b 236 147 256 157 251 147 b 214 185 219 147 214 157 l 214 958 l 21 958 l 21 200 b 233 -14 21 69 106 -14 z "},"Ù":{"ha":467,"x_min":0,"x_max":0,"o":"m 193 1010 l 346 1010 l 231 1186 l 36 1186 z m 233 -14 b 446 200 361 -14 446 69 l 446 958 l 256 958 l 256 185 b 236 147 256 157 251 147 b 214 185 219 147 214 157 l 214 958 l 21 958 l 21 200 b 233 -14 21 69 106 -14 z "},"Ű":{"ha":467,"x_min":0,"x_max":0,"o":"m 42 1010 l 189 1010 l 304 1186 l 136 1186 z m 251 1010 l 401 1010 l 515 1186 l 349 1186 z m 233 -14 b 446 200 361 -14 446 69 l 446 958 l 256 958 l 256 185 b 236 147 256 157 251 147 b 214 185 219 147 214 157 l 214 958 l 21 958 l 21 200 b 233 -14 21 69 106 -14 z "},"Ū":{"ha":467,"x_min":0,"x_max":0,"o":"m 74 1039 l 396 1039 l 396 1160 l 74 1160 z m 233 -14 b 446 200 361 -14 446 69 l 446 958 l 256 958 l 256 185 b 236 147 256 157 251 147 b 214 185 219 147 214 157 l 214 958 l 21 958 l 21 200 b 233 -14 21 69 106 -14 z "},"Ų":{"ha":467,"x_min":0,"x_max":0,"o":"m 256 958 l 256 185 b 236 147 256 157 251 147 b 214 185 219 147 214 157 l 214 958 l 21 958 l 21 200 b 233 -14 21 69 106 -14 b 163 -96 185 -36 163 -62 b 281 -178 163 -153 206 -178 l 350 -178 l 350 -57 l 324 -57 b 283 -33 300 -57 283 -53 b 314 -1 283 -18 294 -11 b 446 200 396 26 446 99 l 446 958 z "},"Ů":{"ha":467,"x_min":0,"x_max":0,"o":"m 235 1001 b 364 1126 311 1001 364 1056 b 235 1251 364 1199 311 1251 b 106 1126 158 1251 106 1199 b 235 1001 106 1056 158 1001 z m 235 1081 b 192 1126 208 1081 192 1099 b 235 1174 192 1154 208 1174 b 279 1126 261 1174 279 1154 b 235 1081 279 1099 261 1081 z m 233 -14 b 446 200 361 -14 446 69 l 446 958 l 256 958 l 256 185 b 236 147 256 157 251 147 b 214 185 219 147 214 157 l 214 958 l 21 958 l 21 200 b 233 -14 21 69 106 -14 z "},"Ũ":{"ha":467,"x_min":0,"x_max":0,"o":"m 49 1000 l 157 1000 b 183 1061 160 1047 165 1061 b 213 1046 190 1061 197 1057 b 303 1013 249 1019 271 1013 b 421 1197 372 1013 413 1065 l 313 1197 b 286 1138 310 1151 304 1138 b 257 1153 279 1138 272 1142 b 167 1186 221 1179 199 1186 b 49 1000 97 1186 57 1133 z m 233 -14 b 446 200 361 -14 446 69 l 446 958 l 256 958 l 256 185 b 236 147 256 157 251 147 b 214 185 219 147 214 157 l 214 958 l 21 958 l 21 200 b 233 -14 21 69 106 -14 z "},"V":{"ha":439,"x_min":0,"x_max":0,"o":"m 89 0 l 350 0 l 443 958 l 257 958 l 226 325 l 224 325 l 192 958 l -3 958 z "},"W":{"ha":693,"x_min":0,"x_max":0,"o":"m 65 0 l 314 0 l 346 465 l 349 465 l 382 0 l 628 0 l 693 958 l 513 958 l 496 301 l 493 301 l 444 958 l 261 958 l 213 301 l 210 301 l 192 958 l 0 958 z "},"Ẃ":{"ha":693,"x_min":0,"x_max":0,"o":"m 235 1010 l 388 1010 l 544 1186 l 350 1186 z m 65 0 l 314 0 l 346 465 l 349 465 l 382 0 l 628 0 l 693 958 l 513 958 l 496 301 l 493 301 l 444 958 l 261 958 l 213 301 l 210 301 l 192 958 l 0 958 z "},"Ŵ":{"ha":693,"x_min":0,"x_max":0,"o":"m 146 1010 l 299 1010 l 346 1061 l 393 1010 l 546 1010 l 410 1186 l 282 1186 z m 65 0 l 314 0 l 346 465 l 349 465 l 382 0 l 628 0 l 693 958 l 513 958 l 496 301 l 493 301 l 444 958 l 261 958 l 213 301 l 210 301 l 192 958 l 0 958 z "},"Ẅ":{"ha":693,"x_min":0,"x_max":0,"o":"m 158 1010 l 322 1010 l 322 1186 l 158 1186 z m 369 1010 l 533 1010 l 533 1186 l 369 1186 z m 65 0 l 314 0 l 346 465 l 349 465 l 382 0 l 628 0 l 693 958 l 513 958 l 496 301 l 493 301 l 444 958 l 261 958 l 213 301 l 210 301 l 192 958 l 0 958 z "},"Ẁ":{"ha":693,"x_min":0,"x_max":0,"o":"m 304 1010 l 457 1010 l 342 1186 l 147 1186 z m 65 0 l 314 0 l 346 465 l 349 465 l 382 0 l 628 0 l 693 958 l 513 958 l 496 301 l 493 301 l 444 958 l 261 958 l 213 301 l 210 301 l 192 958 l 0 958 z "},"X":{"ha":458,"x_min":0,"x_max":0,"o":"m -4 0 l 182 0 l 221 261 l 224 261 l 264 0 l 463 0 l 351 497 l 454 958 l 269 958 l 236 742 l 233 742 l 203 958 l 4 958 l 107 497 z "},"Y":{"ha":440,"x_min":0,"x_max":0,"o":"m 124 0 l 317 0 l 317 378 l 446 958 l 261 958 l 229 697 l 226 697 l 194 958 l -6 958 l 124 378 z "},"Ý":{"ha":440,"x_min":0,"x_max":0,"o":"m 110 1010 l 263 1010 l 419 1186 l 225 1186 z m 124 0 l 317 0 l 317 378 l 446 958 l 261 958 l 229 697 l 226 697 l 194 958 l -6 958 l 124 378 z "},"Ŷ":{"ha":440,"x_min":0,"x_max":0,"o":"m 21 1010 l 174 1010 l 221 1061 l 268 1010 l 421 1010 l 285 1186 l 157 1186 z m 124 0 l 317 0 l 317 378 l 446 958 l 261 958 l 229 697 l 226 697 l 194 958 l -6 958 l 124 378 z "},"Ÿ":{"ha":440,"x_min":0,"x_max":0,"o":"m 33 1010 l 197 1010 l 197 1186 l 33 1186 z m 244 1010 l 408 1010 l 408 1186 l 244 1186 z m 124 0 l 317 0 l 317 378 l 446 958 l 261 958 l 229 697 l 226 697 l 194 958 l -6 958 l 124 378 z "},"Ỳ":{"ha":440,"x_min":0,"x_max":0,"o":"m 179 1010 l 332 1010 l 217 1186 l 22 1186 z m 124 0 l 317 0 l 317 378 l 446 958 l 261 958 l 229 697 l 226 697 l 194 958 l -6 958 l 124 378 z "},"Z":{"ha":426,"x_min":0,"x_max":0,"o":"m 1 0 l 421 0 l 421 158 l 207 158 l 421 814 l 421 958 l 15 958 l 15 800 l 217 800 l 1 144 z "},"Ź":{"ha":426,"x_min":0,"x_max":0,"o":"m 107 1010 l 260 1010 l 417 1186 l 222 1186 z m 1 0 l 421 0 l 421 158 l 207 158 l 421 814 l 421 958 l 15 958 l 15 800 l 217 800 l 1 144 z "},"Ž":{"ha":426,"x_min":0,"x_max":0,"o":"m 154 1010 l 282 1010 l 418 1186 l 265 1186 l 218 1133 l 171 1186 l 18 1186 z m 1 0 l 421 0 l 421 158 l 207 158 l 421 814 l 421 958 l 15 958 l 15 800 l 217 800 l 1 144 z "},"Ż":{"ha":426,"x_min":0,"x_max":0,"o":"m 126 1010 l 310 1010 l 310 1186 l 126 1186 z m 1 0 l 421 0 l 421 158 l 207 158 l 421 814 l 421 958 l 15 958 l 15 800 l 217 800 l 1 144 z "},"a":{"ha":439,"x_min":0,"x_max":0,"o":"m 125 -14 b 240 72 181 -14 219 15 l 243 72 l 243 0 l 419 0 l 419 586 b 219 786 419 710 344 786 b 19 586 93 786 19 710 l 19 533 l 196 533 l 196 607 b 217 643 196 632 201 643 b 236 607 231 643 236 632 l 236 518 b 8 263 74 474 8 382 l 8 153 b 125 -14 8 46 47 -14 z m 208 129 b 192 156 197 129 192 138 l 192 260 b 236 367 192 331 199 349 l 236 190 b 208 129 236 144 225 129 z "},"á":{"ha":439,"x_min":0,"x_max":0,"o":"m 108 824 l 261 824 l 418 1000 l 224 1000 z m 125 -14 b 240 72 181 -14 219 15 l 243 72 l 243 0 l 419 0 l 419 586 b 219 786 419 710 344 786 b 19 586 93 786 19 710 l 19 533 l 196 533 l 196 607 b 217 643 196 632 201 643 b 236 607 231 643 236 632 l 236 518 b 8 263 74 474 8 382 l 8 153 b 125 -14 8 46 47 -14 z m 208 129 b 192 156 197 129 192 138 l 192 260 b 236 367 192 331 199 349 l 236 190 b 208 129 236 144 225 129 z "},"ă":{"ha":439,"x_min":0,"x_max":0,"o":"m 219 811 b 388 1000 331 811 388 876 l 267 1000 b 219 933 267 956 253 933 b 172 1000 186 933 172 956 l 51 1000 b 219 811 51 876 108 811 z m 125 -14 b 240 72 181 -14 219 15 l 243 72 l 243 0 l 419 0 l 419 586 b 219 786 419 710 344 786 b 19 586 93 786 19 710 l 19 533 l 196 533 l 196 607 b 217 643 196 632 201 643 b 236 607 231 643 236 632 l 236 518 b 8 263 74 474 8 382 l 8 153 b 125 -14 8 46 47 -14 z m 208 129 b 192 156 197 129 192 138 l 192 260 b 236 367 192 331 199 349 l 236 190 b 208 129 236 144 225 129 z "},"â":{"ha":439,"x_min":0,"x_max":0,"o":"m 19 824 l 172 824 l 219 875 l 267 824 l 419 824 l 283 1000 l 156 1000 z m 125 -14 b 240 72 181 -14 219 15 l 243 72 l 243 0 l 419 0 l 419 586 b 219 786 419 710 344 786 b 19 586 93 786 19 710 l 19 533 l 196 533 l 196 607 b 217 643 196 632 201 643 b 236 607 231 643 236 632 l 236 518 b 8 263 74 474 8 382 l 8 153 b 125 -14 8 46 47 -14 z m 208 129 b 192 156 197 129 192 138 l 192 260 b 236 367 192 331 199 349 l 236 190 b 208 129 236 144 225 129 z "},"ä":{"ha":439,"x_min":0,"x_max":0,"o":"m 32 824 l 196 824 l 196 1000 l 32 1000 z m 243 824 l 407 824 l 407 1000 l 243 1000 z m 125 -14 b 240 72 181 -14 219 15 l 243 72 l 243 0 l 419 0 l 419 586 b 219 786 419 710 344 786 b 19 586 93 786 19 710 l 19 533 l 196 533 l 196 607 b 217 643 196 632 201 643 b 236 607 231 643 236 632 l 236 518 b 8 263 74 474 8 382 l 8 153 b 125 -14 8 46 47 -14 z m 208 129 b 192 156 197 129 192 138 l 192 260 b 236 367 192 331 199 349 l 236 190 b 208 129 236 144 225 129 z "},"à":{"ha":439,"x_min":0,"x_max":0,"o":"m 178 824 l 331 824 l 215 1000 l 21 1000 z m 125 -14 b 240 72 181 -14 219 15 l 243 72 l 243 0 l 419 0 l 419 586 b 219 786 419 710 344 786 b 19 586 93 786 19 710 l 19 533 l 196 533 l 196 607 b 217 643 196 632 201 643 b 236 607 231 643 236 632 l 236 518 b 8 263 74 474 8 382 l 8 153 b 125 -14 8 46 47 -14 z m 208 129 b 192 156 197 129 192 138 l 192 260 b 236 367 192 331 199 349 l 236 190 b 208 129 236 144 225 129 z "},"ā":{"ha":439,"x_min":0,"x_max":0,"o":"m 58 853 l 381 853 l 381 974 l 58 974 z m 125 -14 b 240 72 181 -14 219 15 l 243 72 l 243 0 l 419 0 l 419 586 b 219 786 419 710 344 786 b 19 586 93 786 19 710 l 19 533 l 196 533 l 196 607 b 217 643 196 632 201 643 b 236 607 231 643 236 632 l 236 518 b 8 263 74 474 8 382 l 8 153 b 125 -14 8 46 47 -14 z m 208 129 b 192 156 197 129 192 138 l 192 260 b 236 367 192 331 199 349 l 236 190 b 208 129 236 144 225 129 z "},"ą":{"ha":439,"x_min":0,"x_max":0,"o":"m 375 0 l 419 0 l 419 586 b 219 786 419 710 344 786 b 19 586 93 786 19 710 l 19 533 l 196 533 l 196 607 b 217 643 196 632 201 643 b 236 607 231 643 236 632 l 236 518 b 8 263 74 474 8 382 l 8 153 b 125 -14 8 46 47 -14 b 240 72 181 -14 219 15 l 243 72 l 243 0 l 304 0 b 231 -93 275 -10 231 -40 b 350 -178 231 -149 274 -178 l 419 -178 l 419 -57 l 393 -57 b 353 -29 368 -57 353 -53 b 375 0 353 -15 360 -7 z m 236 190 b 208 129 236 144 225 129 b 192 156 197 129 192 138 l 192 260 b 236 367 192 331 199 349 z "},"å":{"ha":439,"x_min":0,"x_max":0,"o":"m 219 815 b 349 940 296 815 349 869 b 219 1065 349 1013 296 1065 b 90 940 143 1065 90 1013 b 219 815 90 869 143 815 z m 219 894 b 176 940 193 894 176 913 b 219 988 176 968 193 988 b 264 940 246 988 264 968 b 219 894 264 913 246 894 z m 125 -14 b 240 72 181 -14 219 15 l 243 72 l 243 0 l 419 0 l 419 586 b 219 786 419 710 344 786 b 19 586 93 786 19 710 l 19 533 l 196 533 l 196 607 b 217 643 196 632 201 643 b 236 607 231 643 236 632 l 236 518 b 8 263 74 474 8 382 l 8 153 b 125 -14 8 46 47 -14 z m 208 129 b 192 156 197 129 192 138 l 192 260 b 236 367 192 331 199 349 l 236 190 b 208 129 236 144 225 129 z "},"ã":{"ha":439,"x_min":0,"x_max":0,"o":"m 33 814 l 142 814 b 168 875 144 861 150 875 b 197 860 175 875 182 871 b 288 826 233 833 256 826 b 406 1011 357 826 397 879 l 297 1011 b 271 951 294 965 289 951 b 242 967 264 951 257 956 b 151 1000 206 993 183 1000 b 33 814 82 1000 42 947 z m 125 -14 b 240 72 181 -14 219 15 l 243 72 l 243 0 l 419 0 l 419 586 b 219 786 419 710 344 786 b 19 586 93 786 19 710 l 19 533 l 196 533 l 196 607 b 217 643 196 632 201 643 b 236 607 231 643 236 632 l 236 518 b 8 263 74 474 8 382 l 8 153 b 125 -14 8 46 47 -14 z m 208 129 b 192 156 197 129 192 138 l 192 260 b 236 367 192 331 199 349 l 236 190 b 208 129 236 144 225 129 z "},"æ":{"ha":656,"x_min":0,"x_max":0,"o":"m 468 786 b 329 725 401 786 356 764 l 326 725 b 196 786 297 764 253 786 b 19 586 94 786 19 710 l 19 533 l 196 533 l 196 607 b 217 643 196 632 201 643 b 236 607 231 643 236 632 l 236 518 b 8 263 74 474 8 382 l 8 153 b 158 -14 8 50 57 -14 b 282 47 218 -14 258 8 l 285 47 b 443 -14 322 8 374 -14 b 643 196 565 -14 643 65 l 643 279 l 464 279 l 464 168 b 442 129 464 139 457 129 b 419 168 425 129 419 139 l 419 354 l 643 354 l 643 579 b 468 786 643 707 569 786 z m 419 488 l 419 604 b 442 643 419 633 425 643 b 464 604 457 643 464 633 l 464 488 z m 208 129 b 192 156 197 129 192 138 l 192 260 b 236 367 192 331 199 349 l 236 192 b 208 129 236 144 225 129 z "},"ǽ":{"ha":656,"x_min":0,"x_max":0,"o":"m 217 824 l 369 824 l 526 1000 l 332 1000 z m 468 786 b 329 725 401 786 356 764 l 326 725 b 196 786 297 764 253 786 b 19 586 94 786 19 710 l 19 533 l 196 533 l 196 607 b 217 643 196 632 201 643 b 236 607 231 643 236 632 l 236 518 b 8 263 74 474 8 382 l 8 153 b 158 -14 8 50 57 -14 b 282 47 218 -14 258 8 l 285 47 b 443 -14 322 8 374 -14 b 643 196 565 -14 643 65 l 643 279 l 464 279 l 464 168 b 442 129 464 139 457 129 b 419 168 425 129 419 139 l 419 354 l 643 354 l 643 579 b 468 786 643 707 569 786 z m 419 488 l 419 604 b 442 643 419 633 425 643 b 464 604 457 643 464 633 l 464 488 z m 208 129 b 192 156 197 129 192 138 l 192 260 b 236 367 192 331 199 349 l 236 192 b 208 129 236 144 225 129 z "},"b":{"ha":456,"x_min":0,"x_max":0,"o":"m 319 -14 b 436 153 396 -14 436 46 l 436 619 b 319 786 436 726 396 786 b 211 718 268 786 233 763 l 208 718 l 208 1000 l 25 1000 l 25 0 l 201 0 l 201 72 l 204 72 b 319 -14 224 15 263 -14 z m 235 129 b 208 190 218 129 208 144 l 208 582 b 235 643 208 628 218 643 b 253 617 249 643 253 631 l 253 156 b 235 129 253 142 249 129 z "},"":{"ha":456,"x_min":0,"x_max":0,"o":"m 319 -14 b 436 153 396 -14 436 46 l 436 619 b 319 786 436 726 396 786 b 211 718 268 786 233 763 l 208 718 l 208 1000 l 25 1000 l 25 0 l 201 0 l 201 72 l 204 72 b 319 -14 224 15 263 -14 z m 235 129 b 208 190 218 129 208 144 l 208 582 b 235 643 208 628 218 643 b 253 617 249 643 253 631 l 253 156 b 235 129 253 142 249 129 z "},"c":{"ha":429,"x_min":0,"x_max":0,"o":"m 218 -14 b 418 189 342 -14 418 64 l 418 324 l 242 324 l 242 167 b 219 129 242 140 236 129 b 199 167 203 129 199 140 l 199 606 b 219 643 199 632 203 643 b 242 606 236 643 242 632 l 242 476 l 418 476 l 418 583 b 217 786 418 708 342 786 b 15 583 93 786 15 708 l 15 189 b 218 -14 15 64 93 -14 z "},"ć":{"ha":429,"x_min":0,"x_max":0,"o":"m 106 824 l 258 824 l 415 1000 l 221 1000 z m 218 -14 b 418 189 342 -14 418 64 l 418 324 l 242 324 l 242 167 b 219 129 242 140 236 129 b 199 167 203 129 199 140 l 199 606 b 219 643 199 632 203 643 b 242 606 236 643 242 632 l 242 476 l 418 476 l 418 583 b 217 786 418 708 342 786 b 15 583 93 786 15 708 l 15 189 b 218 -14 15 64 93 -14 z "},"č":{"ha":429,"x_min":0,"x_max":0,"o":"m 153 824 l 281 824 l 417 1000 l 264 1000 l 217 947 l 169 1000 l 17 1000 z m 218 -14 b 418 189 342 -14 418 64 l 418 324 l 242 324 l 242 167 b 219 129 242 140 236 129 b 199 167 203 129 199 140 l 199 606 b 219 643 199 632 203 643 b 242 606 236 643 242 632 l 242 476 l 418 476 l 418 583 b 217 786 418 708 342 786 b 15 583 93 786 15 708 l 15 189 b 218 -14 15 64 93 -14 z "},"ç":{"ha":429,"x_min":0,"x_max":0,"o":"m 418 476 l 418 583 b 217 786 418 708 342 786 b 15 583 93 786 15 708 l 15 189 b 181 -11 15 78 78 3 l 160 -62 l 182 -62 b 201 -79 193 -62 201 -67 b 161 -104 201 -99 192 -104 l 118 -104 l 118 -178 l 221 -178 b 318 -107 275 -178 318 -164 b 225 -36 318 -54 289 -39 l 235 -14 b 418 189 349 -7 418 69 l 418 324 l 242 324 l 242 167 b 219 129 242 140 236 129 b 199 167 203 129 199 140 l 199 606 b 219 643 199 632 203 643 b 242 606 236 643 242 632 l 242 476 z "},"ĉ":{"ha":429,"x_min":0,"x_max":0,"o":"m 17 824 l 169 824 l 217 875 l 264 824 l 417 824 l 281 1000 l 153 1000 z m 218 -14 b 418 189 342 -14 418 64 l 418 324 l 242 324 l 242 167 b 219 129 242 140 236 129 b 199 167 203 129 199 140 l 199 606 b 219 643 199 632 203 643 b 242 606 236 643 242 632 l 242 476 l 418 476 l 418 583 b 217 786 418 708 342 786 b 15 583 93 786 15 708 l 15 189 b 218 -14 15 64 93 -14 z "},"ċ":{"ha":429,"x_min":0,"x_max":0,"o":"m 125 824 l 308 824 l 308 1000 l 125 1000 z m 218 -14 b 418 189 342 -14 418 64 l 418 324 l 242 324 l 242 167 b 219 129 242 140 236 129 b 199 167 203 129 199 140 l 199 606 b 219 643 199 632 203 643 b 242 606 236 643 242 632 l 242 476 l 418 476 l 418 583 b 217 786 418 708 342 786 b 15 583 93 786 15 708 l 15 189 b 218 -14 15 64 93 -14 z "},"d":{"ha":456,"x_min":0,"x_max":0,"o":"m 138 -14 b 253 72 193 -14 232 15 l 256 72 l 256 0 l 432 0 l 432 1000 l 249 1000 l 249 718 l 246 718 b 138 786 224 763 188 786 b 21 619 60 786 21 726 l 21 153 b 138 -14 21 46 60 -14 z m 221 129 b 204 156 207 129 204 142 l 204 617 b 221 643 204 631 207 643 b 249 582 238 643 249 628 l 249 190 b 221 129 249 144 238 129 z "},"ð":{"ha":443,"x_min":0,"x_max":0,"o":"m 219 -14 b 425 193 347 -14 425 65 l 425 533 b 354 851 425 654 407 756 l 404 874 l 404 1006 l 288 951 b 247 1000 275 967 263 985 l 33 1000 b 138 878 75 960 108 919 l 40 833 l 40 701 l 199 776 b 243 631 219 728 235 681 l 240 631 b 132 699 218 675 182 699 b 14 532 54 699 14 639 l 14 193 b 219 -14 14 65 93 -14 z m 219 129 b 197 168 204 129 197 139 l 197 531 b 214 557 197 544 200 557 b 242 496 231 557 242 542 l 242 168 b 219 129 242 139 236 129 z "},"ď":{"ha":618,"x_min":0,"x_max":0,"o":"m 138 -14 b 253 72 193 -14 232 15 l 256 72 l 256 0 l 432 0 l 432 1000 l 249 1000 l 249 718 l 246 718 b 138 786 224 763 188 786 b 21 619 60 786 21 726 l 21 153 b 138 -14 21 46 60 -14 z m 432 796 l 539 796 b 628 976 594 847 628 915 l 628 1000 l 496 1000 b 501 961 499 988 501 974 b 432 796 501 904 476 843 z m 221 129 b 204 156 207 129 204 142 l 204 617 b 221 643 204 631 207 643 b 249 582 238 643 249 628 l 249 190 b 221 129 249 144 238 129 z "},"đ":{"ha":456,"x_min":0,"x_max":0,"o":"m 456 932 l 432 932 l 432 1000 l 249 1000 l 249 932 l 138 932 l 138 826 l 249 826 l 249 718 l 246 718 b 138 786 224 763 188 786 b 21 619 60 786 21 726 l 21 153 b 138 -14 21 46 60 -14 b 253 72 193 -14 232 15 l 256 72 l 256 0 l 432 0 l 432 826 l 456 826 z m 249 190 b 221 129 249 144 238 129 b 204 156 207 129 204 142 l 204 617 b 221 643 204 631 207 643 b 249 582 238 643 249 628 z "},"e":{"ha":436,"x_min":0,"x_max":0,"o":"m 221 -14 b 422 196 344 -14 422 65 l 422 279 l 243 279 l 243 168 b 221 129 243 139 238 129 b 199 168 204 129 199 139 l 199 354 l 422 354 l 422 576 b 221 786 422 707 344 786 b 15 576 92 786 15 707 l 15 196 b 221 -14 15 65 92 -14 z m 199 488 l 199 604 b 221 643 199 633 204 643 b 243 604 238 643 243 633 l 243 488 z "},"é":{"ha":436,"x_min":0,"x_max":0,"o":"m 107 824 l 260 824 l 417 1000 l 222 1000 z m 221 -14 b 422 196 344 -14 422 65 l 422 279 l 243 279 l 243 168 b 221 129 243 139 238 129 b 199 168 204 129 199 139 l 199 354 l 422 354 l 422 576 b 221 786 422 707 344 786 b 15 576 92 786 15 707 l 15 196 b 221 -14 15 65 92 -14 z m 199 488 l 199 604 b 221 643 199 633 204 643 b 243 604 238 643 243 633 l 243 488 z "},"ĕ":{"ha":436,"x_min":0,"x_max":0,"o":"m 218 811 b 386 1000 329 811 386 876 l 265 1000 b 218 933 265 956 251 933 b 171 1000 185 933 171 956 l 50 1000 b 218 811 50 876 107 811 z m 221 -14 b 422 196 344 -14 422 65 l 422 279 l 243 279 l 243 168 b 221 129 243 139 238 129 b 199 168 204 129 199 139 l 199 354 l 422 354 l 422 576 b 221 786 422 707 344 786 b 15 576 92 786 15 707 l 15 196 b 221 -14 15 65 92 -14 z m 199 488 l 199 604 b 221 643 199 633 204 643 b 243 604 238 643 243 633 l 243 488 z "},"ě":{"ha":436,"x_min":0,"x_max":0,"o":"m 154 824 l 282 824 l 418 1000 l 265 1000 l 218 947 l 171 1000 l 18 1000 z m 221 -14 b 422 196 344 -14 422 65 l 422 279 l 243 279 l 243 168 b 221 129 243 139 238 129 b 199 168 204 129 199 139 l 199 354 l 422 354 l 422 576 b 221 786 422 707 344 786 b 15 576 92 786 15 707 l 15 196 b 221 -14 15 65 92 -14 z m 199 488 l 199 604 b 221 643 199 633 204 643 b 243 604 238 643 243 633 l 243 488 z "},"ê":{"ha":436,"x_min":0,"x_max":0,"o":"m 18 824 l 171 824 l 218 875 l 265 824 l 418 824 l 282 1000 l 154 1000 z m 221 -14 b 422 196 344 -14 422 65 l 422 279 l 243 279 l 243 168 b 221 129 243 139 238 129 b 199 168 204 129 199 139 l 199 354 l 422 354 l 422 576 b 221 786 422 707 344 786 b 15 576 92 786 15 707 l 15 196 b 221 -14 15 65 92 -14 z m 199 488 l 199 604 b 221 643 199 633 204 643 b 243 604 238 643 243 633 l 243 488 z "},"ë":{"ha":436,"x_min":0,"x_max":0,"o":"m 31 824 l 194 824 l 194 1000 l 31 1000 z m 242 824 l 406 824 l 406 1000 l 242 1000 z m 221 -14 b 422 196 344 -14 422 65 l 422 279 l 243 279 l 243 168 b 221 129 243 139 238 129 b 199 168 204 129 199 139 l 199 354 l 422 354 l 422 576 b 221 786 422 707 344 786 b 15 576 92 786 15 707 l 15 196 b 221 -14 15 65 92 -14 z m 199 488 l 199 604 b 221 643 199 633 204 643 b 243 604 238 643 243 633 l 243 488 z "},"ė":{"ha":436,"x_min":0,"x_max":0,"o":"m 126 824 l 310 824 l 310 1000 l 126 1000 z m 221 -14 b 422 196 344 -14 422 65 l 422 279 l 243 279 l 243 168 b 221 129 243 139 238 129 b 199 168 204 129 199 139 l 199 354 l 422 354 l 422 576 b 221 786 422 707 344 786 b 15 576 92 786 15 707 l 15 196 b 221 -14 15 65 92 -14 z m 199 488 l 199 604 b 221 643 199 633 204 643 b 243 604 238 643 243 633 l 243 488 z "},"è":{"ha":436,"x_min":0,"x_max":0,"o":"m 176 824 l 329 824 l 214 1000 l 19 1000 z m 221 -14 b 422 196 344 -14 422 65 l 422 279 l 243 279 l 243 168 b 221 129 243 139 238 129 b 199 168 204 129 199 139 l 199 354 l 422 354 l 422 576 b 221 786 422 707 344 786 b 15 576 92 786 15 707 l 15 196 b 221 -14 15 65 92 -14 z m 199 488 l 199 604 b 221 643 199 633 204 643 b 243 604 238 643 243 633 l 243 488 z "},"ē":{"ha":436,"x_min":0,"x_max":0,"o":"m 57 853 l 379 853 l 379 974 l 57 974 z m 221 -14 b 422 196 344 -14 422 65 l 422 279 l 243 279 l 243 168 b 221 129 243 139 238 129 b 199 168 204 129 199 139 l 199 354 l 422 354 l 422 576 b 221 786 422 707 344 786 b 15 576 92 786 15 707 l 15 196 b 221 -14 15 65 92 -14 z m 199 488 l 199 604 b 221 643 199 633 204 643 b 243 604 238 643 243 633 l 243 488 z "},"ę":{"ha":436,"x_min":0,"x_max":0,"o":"m 422 354 l 422 576 b 221 786 422 707 344 786 b 15 576 92 786 15 707 l 15 196 b 221 -14 15 65 92 -14 b 265 -10 236 -14 251 -12 b 206 -93 228 -29 206 -58 b 325 -178 206 -149 249 -178 l 394 -178 l 394 -57 l 368 -57 b 328 -29 343 -57 328 -53 b 365 39 328 -15 336 6 b 422 196 401 75 422 129 l 422 279 l 243 279 l 243 168 b 221 129 243 139 238 129 b 199 168 204 129 199 139 l 199 354 z m 199 604 b 221 643 199 633 204 643 b 243 604 238 643 243 633 l 243 488 l 199 488 z "},"f":{"ha":288,"x_min":0,"x_max":0,"o":"m 49 0 l 232 0 l 232 636 l 292 636 l 292 772 l 232 772 l 232 842 b 256 864 232 856 240 864 l 292 864 l 292 1000 l 225 1000 b 49 831 106 1000 49 946 l 49 772 l -4 772 l -4 636 l 49 636 z "},"g":{"ha":453,"x_min":0,"x_max":0,"o":"m 225 -192 b 429 13 354 -192 429 -118 l 429 772 l 253 772 l 253 700 l 250 700 b 135 786 229 757 190 786 b 18 619 57 786 18 726 l 18 229 b 135 63 18 122 57 63 b 243 131 185 63 221 86 l 246 131 l 246 -11 b 224 -49 246 -37 240 -49 b 201 -25 208 -49 201 -40 l 201 29 l 24 29 l 24 -1 b 225 -192 24 -121 96 -192 z m 218 206 b 201 232 204 206 201 218 l 201 617 b 218 643 201 631 204 643 b 246 582 235 643 246 628 l 246 267 b 218 206 246 221 235 206 z "},"ğ":{"ha":453,"x_min":0,"x_max":0,"o":"m 224 811 b 392 1000 335 811 392 876 l 271 1000 b 224 933 271 956 257 933 b 176 1000 190 933 176 956 l 56 1000 b 224 811 56 876 113 811 z m 225 -192 b 429 13 354 -192 429 -118 l 429 772 l 253 772 l 253 700 l 250 700 b 135 786 229 757 190 786 b 18 619 57 786 18 726 l 18 229 b 135 63 18 122 57 63 b 243 131 185 63 221 86 l 246 131 l 246 -11 b 224 -49 246 -37 240 -49 b 201 -25 208 -49 201 -40 l 201 29 l 24 29 l 24 -1 b 225 -192 24 -121 96 -192 z m 218 206 b 201 232 204 206 201 218 l 201 617 b 218 643 201 631 204 643 b 246 582 235 643 246 628 l 246 267 b 218 206 246 221 235 206 z "},"ĝ":{"ha":453,"x_min":0,"x_max":0,"o":"m 24 824 l 176 824 l 224 875 l 271 824 l 424 824 l 288 1000 l 160 1000 z m 225 -192 b 429 13 354 -192 429 -118 l 429 772 l 253 772 l 253 700 l 250 700 b 135 786 229 757 190 786 b 18 619 57 786 18 726 l 18 229 b 135 63 18 122 57 63 b 243 131 185 63 221 86 l 246 131 l 246 -11 b 224 -49 246 -37 240 -49 b 201 -25 208 -49 201 -40 l 201 29 l 24 29 l 24 -1 b 225 -192 24 -121 96 -192 z m 218 206 b 201 232 204 206 201 218 l 201 617 b 218 643 201 631 204 643 b 246 582 235 643 246 628 l 246 267 b 218 206 246 221 235 206 z "},"ģ":{"ha":453,"x_min":0,"x_max":0,"o":"m 122 824 l 313 824 l 313 954 l 256 954 l 325 1049 l 210 1049 l 122 940 z m 225 -192 b 429 13 354 -192 429 -118 l 429 772 l 253 772 l 253 700 l 250 700 b 135 786 229 757 190 786 b 18 619 57 786 18 726 l 18 229 b 135 63 18 122 57 63 b 243 131 185 63 221 86 l 246 131 l 246 -11 b 224 -49 246 -37 240 -49 b 201 -25 208 -49 201 -40 l 201 29 l 24 29 l 24 -1 b 225 -192 24 -121 96 -192 z m 218 206 b 201 232 204 206 201 218 l 201 617 b 218 643 201 631 204 643 b 246 582 235 643 246 628 l 246 267 b 218 206 246 221 235 206 z "},"ġ":{"ha":453,"x_min":0,"x_max":0,"o":"m 132 824 l 315 824 l 315 1000 l 132 1000 z m 225 -192 b 429 13 354 -192 429 -118 l 429 772 l 253 772 l 253 700 l 250 700 b 135 786 229 757 190 786 b 18 619 57 786 18 726 l 18 229 b 135 63 18 122 57 63 b 243 131 185 63 221 86 l 246 131 l 246 -11 b 224 -49 246 -37 240 -49 b 201 -25 208 -49 201 -40 l 201 29 l 24 29 l 24 -1 b 225 -192 24 -121 96 -192 z m 218 206 b 201 232 204 206 201 218 l 201 617 b 218 643 201 631 204 643 b 246 582 235 643 246 628 l 246 267 b 218 206 246 221 235 206 z "},"h":{"ha":456,"x_min":0,"x_max":0,"o":"m 25 0 l 208 0 l 208 582 b 233 643 208 628 217 643 b 250 617 247 643 250 631 l 250 0 l 433 0 l 433 619 b 317 786 433 726 394 786 b 211 718 267 786 231 763 l 208 718 l 208 1000 l 25 1000 z "},"ħ":{"ha":456,"x_min":0,"x_max":0,"o":"m 317 786 b 211 718 267 786 231 763 l 208 718 l 208 826 l 319 826 l 319 932 l 208 932 l 208 1000 l 25 1000 l 25 932 l 0 932 l 0 826 l 25 826 l 25 0 l 208 0 l 208 582 b 233 643 208 628 217 643 b 250 617 247 643 250 631 l 250 0 l 433 0 l 433 619 b 317 786 433 726 394 786 z "},"ĥ":{"ha":456,"x_min":0,"x_max":0,"o":"m -83 1031 l 69 1031 l 117 1082 l 164 1031 l 317 1031 l 181 1207 l 53 1207 z m 25 0 l 208 0 l 208 582 b 233 643 208 628 217 643 b 250 617 247 643 250 631 l 250 0 l 433 0 l 433 619 b 317 786 433 726 394 786 b 211 718 267 786 231 763 l 208 718 l 208 1000 l 25 1000 z "},"i":{"ha":232,"x_min":0,"x_max":0,"o":"m 25 824 l 208 824 l 208 1000 l 25 1000 z m 25 0 l 208 0 l 208 772 l 25 772 z "},"ı":{"ha":232,"x_min":0,"x_max":0,"o":"m 25 0 l 208 0 l 208 772 l 25 772 z "},"í":{"ha":232,"x_min":0,"x_max":0,"o":"m 6 824 l 158 824 l 315 1000 l 121 1000 z m 25 0 l 208 0 l 208 772 l 25 772 z "},"ĭ":{"ha":232,"x_min":0,"x_max":0,"o":"m 117 811 b 278 1000 226 811 278 874 l 158 1000 b 117 933 158 953 149 933 b 75 1000 85 933 75 953 l -44 1000 b 117 811 -44 874 7 811 z m 25 0 l 208 0 l 208 772 l 25 772 z "},"î":{"ha":232,"x_min":0,"x_max":0,"o":"m -79 824 l 72 824 l 117 875 l 161 824 l 313 824 l 181 1000 l 53 1000 z m 25 0 l 208 0 l 208 772 l 25 772 z "},"ï":{"ha":232,"x_min":0,"x_max":0,"o":"m -62 824 l 97 824 l 97 1000 l -62 1000 z m 136 824 l 296 824 l 296 1000 l 136 1000 z m 25 0 l 208 0 l 208 772 l 25 772 z "},"ì":{"ha":232,"x_min":0,"x_max":0,"o":"m 75 824 l 228 824 l 113 1000 l -82 1000 z m 25 0 l 208 0 l 208 772 l 25 772 z "},"ī":{"ha":232,"x_min":0,"x_max":0,"o":"m -39 853 l 272 853 l 272 974 l -39 974 z m 25 0 l 208 0 l 208 772 l 25 772 z "},"į":{"ha":232,"x_min":0,"x_max":0,"o":"m 25 1000 l 25 824 l 208 824 l 208 1000 z m 25 0 l 86 0 b 17 -94 39 -21 17 -53 b 136 -178 17 -149 60 -178 l 206 -178 l 206 -57 l 179 -57 b 139 -31 154 -57 139 -53 b 149 0 139 -21 142 -11 l 208 0 l 208 772 l 25 772 z "},"ĩ":{"ha":232,"x_min":0,"x_max":0,"o":"m -67 814 l 42 814 b 68 875 44 865 50 875 b 97 860 75 875 83 871 b 186 826 131 835 153 826 b 300 1011 251 826 290 879 l 192 1011 b 165 951 189 961 183 951 b 136 967 158 951 150 956 b 47 1000 103 992 81 1000 b -67 814 -18 1000 -57 947 z m 25 0 l 208 0 l 208 772 l 25 772 z "},"j":{"ha":232,"x_min":0,"x_max":0,"o":"m 25 824 l 208 824 l 208 1000 l 25 1000 z m -24 -178 l 32 -178 b 208 -11 150 -178 208 -124 l 208 772 l 25 772 l 25 -19 b 1 -42 25 -33 15 -42 l -24 -42 z "},"ȷ":{"ha":232,"x_min":0,"x_max":0,"o":"m -24 -178 l 32 -178 b 208 -11 150 -178 208 -124 l 208 772 l 25 772 l 25 -19 b 1 -42 25 -33 15 -42 l -24 -42 z "},"ĵ":{"ha":232,"x_min":0,"x_max":0,"o":"m -79 824 l 72 824 l 117 875 l 161 824 l 313 824 l 181 1000 l 53 1000 z m -24 -178 l 32 -178 b 208 -11 150 -178 208 -124 l 208 772 l 25 772 l 25 -19 b 1 -42 25 -33 15 -42 l -24 -42 z "},"k":{"ha":457,"x_min":0,"x_max":0,"o":"m 25 0 l 208 0 l 208 388 l 211 388 l 272 0 l 461 0 l 383 417 l 450 772 l 269 772 l 211 419 l 208 419 l 208 1000 l 25 1000 z "},"ķ":{"ha":457,"x_min":0,"x_max":0,"o":"m 25 0 l 208 0 l 208 388 l 211 388 l 272 0 l 461 0 l 383 417 l 450 772 l 269 772 l 211 419 l 208 419 l 208 1000 l 25 1000 z m 133 -278 l 247 -278 l 338 -169 l 338 -54 l 149 -54 l 149 -185 l 201 -185 z "},"ĸ":{"ha":457,"x_min":0,"x_max":0,"o":"m 25 0 l 208 0 l 208 388 l 211 388 l 272 0 l 461 0 l 383 417 l 450 772 l 269 772 l 211 419 l 208 419 l 208 772 l 25 772 z "},"l":{"ha":232,"x_min":0,"x_max":0,"o":"m 25 0 l 208 0 l 208 1000 l 25 1000 z "},"ĺ":{"ha":232,"x_min":0,"x_max":0,"o":"m 6 1031 l 158 1031 l 315 1207 l 121 1207 z m 25 0 l 208 0 l 208 1000 l 25 1000 z "},"ľ":{"ha":394,"x_min":0,"x_max":0,"o":"m 25 0 l 208 0 l 208 1000 l 25 1000 z m 208 796 l 315 796 b 404 976 371 847 404 915 l 404 1000 l 272 1000 b 278 961 275 988 278 974 b 208 796 278 904 253 843 z "},"ļ":{"ha":232,"x_min":0,"x_max":0,"o":"m 25 0 l 208 0 l 208 1000 l 25 1000 z m 8 -278 l 122 -278 l 213 -169 l 213 -54 l 24 -54 l 24 -185 l 76 -185 z "},"ł":{"ha":257,"x_min":0,"x_max":0,"o":"m 258 772 l 221 732 l 221 1000 l 38 1000 l 38 535 l -1 493 l -1 331 l 38 372 l 38 0 l 221 0 l 221 571 l 258 611 z "},"m":{"ha":685,"x_min":0,"x_max":0,"o":"m 25 0 l 208 0 l 208 582 b 235 643 208 628 217 643 b 251 617 249 643 251 631 l 251 0 l 435 0 l 435 582 b 461 643 435 628 444 643 b 478 617 475 643 478 631 l 478 0 l 661 0 l 661 619 b 544 786 661 726 622 786 b 428 700 488 786 449 757 l 425 700 b 318 786 410 757 372 786 b 201 700 261 786 222 757 l 199 700 l 199 772 l 25 772 z "},"n":{"ha":456,"x_min":0,"x_max":0,"o":"m 25 0 l 208 0 l 208 582 b 233 643 208 628 217 643 b 250 617 247 643 250 631 l 250 0 l 433 0 l 433 619 b 317 786 433 726 394 786 b 201 700 261 786 222 757 l 199 700 l 199 772 l 25 772 z "},"ń":{"ha":456,"x_min":0,"x_max":0,"o":"m 118 824 l 271 824 l 428 1000 l 233 1000 z m 25 0 l 208 0 l 208 582 b 233 643 208 628 217 643 b 250 617 247 643 250 631 l 250 0 l 433 0 l 433 619 b 317 786 433 726 394 786 b 201 700 261 786 222 757 l 199 700 l 199 772 l 25 772 z "},"ŉ":{"ha":456,"x_min":0,"x_max":0,"o":"m -36 815 l 81 815 l 168 938 l 168 1067 l -22 1067 l -22 924 l 36 924 z m 25 0 l 208 0 l 208 582 b 233 643 208 628 217 643 b 250 617 247 643 250 631 l 250 0 l 433 0 l 433 619 b 317 786 433 726 394 786 b 201 700 261 786 222 757 l 199 700 l 199 772 l 25 772 z "},"ň":{"ha":456,"x_min":0,"x_max":0,"o":"m 165 824 l 293 824 l 429 1000 l 276 1000 l 229 947 l 182 1000 l 29 1000 z m 25 0 l 208 0 l 208 582 b 233 643 208 628 217 643 b 250 617 247 643 250 631 l 250 0 l 433 0 l 433 619 b 317 786 433 726 394 786 b 201 700 261 786 222 757 l 199 700 l 199 772 l 25 772 z "},"ņ":{"ha":456,"x_min":0,"x_max":0,"o":"m 25 0 l 208 0 l 208 582 b 233 643 208 628 217 643 b 250 617 247 643 250 631 l 250 0 l 433 0 l 433 619 b 317 786 433 726 394 786 b 201 700 261 786 222 757 l 199 700 l 199 772 l 25 772 z m 121 -278 l 235 -278 l 325 -169 l 325 -54 l 136 -54 l 136 -185 l 189 -185 z "},"ŋ":{"ha":456,"x_min":0,"x_max":0,"o":"m 201 -178 l 257 -178 b 433 -11 375 -178 433 -124 l 433 619 b 317 786 433 726 394 786 b 201 700 261 786 222 757 l 199 700 l 199 772 l 25 772 l 25 0 l 208 0 l 208 582 b 233 643 208 628 217 643 b 250 617 247 643 250 631 l 250 -19 b 226 -42 250 -33 240 -42 l 201 -42 z "},"ñ":{"ha":456,"x_min":0,"x_max":0,"o":"m 43 814 l 151 814 b 178 875 154 861 160 875 b 207 860 185 875 192 871 b 297 826 243 833 265 826 b 415 1011 367 826 407 879 l 307 1011 b 281 951 304 965 299 951 b 251 967 274 951 267 956 b 161 1000 215 993 193 1000 b 43 814 92 1000 51 947 z m 25 0 l 208 0 l 208 582 b 233 643 208 628 217 643 b 250 617 247 643 250 631 l 250 0 l 433 0 l 433 619 b 317 786 433 726 394 786 b 201 700 261 786 222 757 l 199 700 l 199 772 l 25 772 z "},"o":{"ha":442,"x_min":0,"x_max":0,"o":"m 221 -14 b 426 193 349 -14 426 65 l 426 579 b 221 786 426 707 349 786 b 15 579 94 786 15 707 l 15 193 b 221 -14 15 65 94 -14 z m 221 129 b 199 168 204 129 199 139 l 199 604 b 221 643 199 633 204 643 b 243 604 238 643 243 633 l 243 168 b 221 129 243 139 238 129 z "},"ó":{"ha":442,"x_min":0,"x_max":0,"o":"m 110 824 l 263 824 l 419 1000 l 225 1000 z m 221 -14 b 426 193 349 -14 426 65 l 426 579 b 221 786 426 707 349 786 b 15 579 94 786 15 707 l 15 193 b 221 -14 15 65 94 -14 z m 221 129 b 199 168 204 129 199 139 l 199 604 b 221 643 199 633 204 643 b 243 604 238 643 243 633 l 243 168 b 221 129 243 139 238 129 z "},"ŏ":{"ha":442,"x_min":0,"x_max":0,"o":"m 221 811 b 389 1000 332 811 389 876 l 268 1000 b 221 933 268 956 254 933 b 174 1000 188 933 174 956 l 53 1000 b 221 811 53 876 110 811 z m 221 -14 b 426 193 349 -14 426 65 l 426 579 b 221 786 426 707 349 786 b 15 579 94 786 15 707 l 15 193 b 221 -14 15 65 94 -14 z m 221 129 b 199 168 204 129 199 139 l 199 604 b 221 643 199 633 204 643 b 243 604 238 643 243 633 l 243 168 b 221 129 243 139 238 129 z "},"ô":{"ha":442,"x_min":0,"x_max":0,"o":"m 21 824 l 174 824 l 221 875 l 268 824 l 421 824 l 285 1000 l 157 1000 z m 221 -14 b 426 193 349 -14 426 65 l 426 579 b 221 786 426 707 349 786 b 15 579 94 786 15 707 l 15 193 b 221 -14 15 65 94 -14 z m 221 129 b 199 168 204 129 199 139 l 199 604 b 221 643 199 633 204 643 b 243 604 238 643 243 633 l 243 168 b 221 129 243 139 238 129 z "},"ö":{"ha":442,"x_min":0,"x_max":0,"o":"m 33 824 l 197 824 l 197 1000 l 33 1000 z m 244 824 l 408 824 l 408 1000 l 244 1000 z m 221 -14 b 426 193 349 -14 426 65 l 426 579 b 221 786 426 707 349 786 b 15 579 94 786 15 707 l 15 193 b 221 -14 15 65 94 -14 z m 221 129 b 199 168 204 129 199 139 l 199 604 b 221 643 199 633 204 643 b 243 604 238 643 243 633 l 243 168 b 221 129 243 139 238 129 z "},"ò":{"ha":442,"x_min":0,"x_max":0,"o":"m 179 824 l 332 824 l 217 1000 l 22 1000 z m 221 -14 b 426 193 349 -14 426 65 l 426 579 b 221 786 426 707 349 786 b 15 579 94 786 15 707 l 15 193 b 221 -14 15 65 94 -14 z m 221 129 b 199 168 204 129 199 139 l 199 604 b 221 643 199 633 204 643 b 243 604 238 643 243 633 l 243 168 b 221 129 243 139 238 129 z "},"ő":{"ha":442,"x_min":0,"x_max":0,"o":"m 28 824 l 175 824 l 290 1000 l 122 1000 z m 238 824 l 388 824 l 501 1000 l 335 1000 z m 221 -14 b 426 193 349 -14 426 65 l 426 579 b 221 786 426 707 349 786 b 15 579 94 786 15 707 l 15 193 b 221 -14 15 65 94 -14 z m 221 129 b 199 168 204 129 199 139 l 199 604 b 221 643 199 633 204 643 b 243 604 238 643 243 633 l 243 168 b 221 129 243 139 238 129 z "},"ō":{"ha":442,"x_min":0,"x_max":0,"o":"m 60 853 l 382 853 l 382 974 l 60 974 z m 221 -14 b 426 193 349 -14 426 65 l 426 579 b 221 786 426 707 349 786 b 15 579 94 786 15 707 l 15 193 b 221 -14 15 65 94 -14 z m 221 129 b 199 168 204 129 199 139 l 199 604 b 221 643 199 633 204 643 b 243 604 238 643 243 633 l 243 168 b 221 129 243 139 238 129 z "},"ø":{"ha":442,"x_min":0,"x_max":0,"o":"m 440 743 l 353 786 l 339 757 b 221 786 307 775 267 786 b 15 579 94 786 15 707 l 15 193 b 33 97 15 157 21 125 l 1 29 l 89 -14 l 103 17 b 221 -14 135 -3 175 -14 b 426 193 349 -14 426 65 l 426 579 b 408 675 426 615 421 647 z m 199 604 b 221 643 199 633 204 643 b 243 604 238 643 243 633 l 243 550 l 199 454 z m 243 168 b 221 129 243 139 238 129 b 199 168 204 129 199 139 l 199 222 l 243 318 z "},"ǿ":{"ha":442,"x_min":0,"x_max":0,"o":"m 419 1000 l 225 1000 l 110 824 l 263 824 z m 440 743 l 353 786 l 339 757 b 221 786 307 775 267 786 b 15 579 94 786 15 707 l 15 193 b 33 97 15 157 21 125 l 1 29 l 89 -14 l 103 17 b 221 -14 135 -3 175 -14 b 426 193 349 -14 426 65 l 426 579 b 408 675 426 615 421 647 z m 199 604 b 221 643 199 633 204 643 b 243 604 238 643 243 633 l 243 550 l 199 454 z m 243 168 b 221 129 243 139 238 129 b 199 168 204 129 199 139 l 199 222 l 243 318 z "},"õ":{"ha":442,"x_min":0,"x_max":0,"o":"m 35 814 l 143 814 b 169 875 146 861 151 875 b 199 860 176 875 183 871 b 289 826 235 833 257 826 b 407 1011 358 826 399 879 l 299 1011 b 272 951 296 965 290 951 b 243 967 265 951 258 956 b 153 1000 207 993 185 1000 b 35 814 83 1000 43 947 z m 221 -14 b 426 193 349 -14 426 65 l 426 579 b 221 786 426 707 349 786 b 15 579 94 786 15 707 l 15 193 b 221 -14 15 65 94 -14 z m 221 129 b 199 168 204 129 199 139 l 199 604 b 221 643 199 633 204 643 b 243 604 238 643 243 633 l 243 168 b 221 129 243 139 238 129 z "},"œ":{"ha":663,"x_min":0,"x_max":0,"o":"m 475 786 b 335 721 407 786 363 763 l 332 721 b 190 786 304 763 258 786 b 15 579 88 786 15 707 l 15 193 b 190 -14 15 65 88 -14 b 331 51 258 -14 303 10 l 333 51 b 475 -14 361 10 407 -14 b 650 196 578 -14 650 65 l 650 279 l 471 279 l 471 168 b 449 129 471 139 465 129 b 426 168 432 129 426 139 l 426 354 l 650 354 l 650 579 b 475 786 650 707 578 786 z m 243 168 b 221 129 243 139 238 129 b 199 168 204 129 199 139 l 199 604 b 221 643 199 633 204 643 b 243 604 238 643 243 633 z m 426 488 l 426 604 b 449 643 426 633 432 643 b 471 604 465 643 471 633 l 471 488 z "},"p":{"ha":456,"x_min":0,"x_max":0,"o":"m 25 -178 l 208 -178 l 208 54 l 211 54 b 319 -14 233 10 268 -14 b 436 153 396 -14 436 46 l 436 619 b 319 786 436 726 396 786 b 204 700 263 786 224 757 l 201 700 l 201 772 l 25 772 z m 235 129 b 208 190 218 129 208 144 l 208 582 b 235 643 208 628 218 643 b 253 617 249 643 253 631 l 253 156 b 235 129 253 142 249 129 z "},"þ":{"ha":456,"x_min":0,"x_max":0,"o":"m 25 -178 l 208 -178 l 208 54 l 211 54 b 319 -14 233 10 268 -14 b 436 153 396 -14 436 46 l 436 619 b 319 786 436 726 396 786 b 211 718 268 786 233 763 l 208 718 l 208 1000 l 25 1000 z m 235 129 b 208 190 218 129 208 144 l 208 582 b 235 643 208 628 218 643 b 253 617 249 643 253 631 l 253 156 b 235 129 253 142 249 129 z "},"q":{"ha":456,"x_min":0,"x_max":0,"o":"m 249 -178 l 432 -178 l 432 772 l 256 772 l 256 700 l 253 700 b 138 786 232 757 193 786 b 21 619 60 786 21 726 l 21 153 b 138 -14 21 46 60 -14 b 246 54 188 -14 224 10 l 249 54 z m 221 129 b 204 156 207 129 204 142 l 204 617 b 221 643 204 631 207 643 b 249 582 238 643 249 628 l 249 190 b 221 129 249 144 238 129 z "},"r":{"ha":339,"x_min":0,"x_max":0,"o":"m 25 0 l 208 0 l 208 465 b 321 588 208 560 235 588 l 340 588 l 340 786 l 335 786 b 201 640 261 786 221 743 l 199 640 l 199 772 l 25 772 z "},"ŕ":{"ha":339,"x_min":0,"x_max":0,"o":"m 58 824 l 211 824 l 368 1000 l 174 1000 z m 25 0 l 208 0 l 208 465 b 321 588 208 560 235 588 l 340 588 l 340 786 l 335 786 b 201 640 261 786 221 743 l 199 640 l 199 772 l 25 772 z "},"ř":{"ha":339,"x_min":0,"x_max":0,"o":"m 106 824 l 233 824 l 369 1000 l 217 1000 l 169 947 l 122 1000 l -31 1000 z m 25 0 l 208 0 l 208 465 b 321 588 208 560 235 588 l 340 588 l 340 786 l 335 786 b 201 640 261 786 221 743 l 199 640 l 199 772 l 25 772 z "},"ŗ":{"ha":339,"x_min":0,"x_max":0,"o":"m 25 0 l 208 0 l 208 465 b 321 588 208 560 235 588 l 340 588 l 340 786 l 335 786 b 201 640 261 786 221 743 l 199 640 l 199 772 l 25 772 z m 8 -278 l 122 -278 l 213 -169 l 213 -54 l 24 -54 l 24 -185 l 76 -185 z "},"s":{"ha":421,"x_min":0,"x_max":0,"o":"m 213 -14 b 415 192 339 -14 415 64 l 415 265 b 300 456 415 364 383 407 l 226 499 b 193 550 200 514 193 526 l 193 607 b 213 643 193 632 197 643 b 232 607 228 643 232 632 l 232 533 l 410 533 l 410 586 b 210 786 410 710 335 786 b 10 586 83 786 10 710 l 10 536 b 124 347 10 438 42 394 l 197 304 b 232 253 225 288 232 276 l 232 168 b 210 129 232 139 225 129 b 186 168 193 129 186 139 l 186 269 l 10 269 l 10 192 b 213 -14 10 64 85 -14 z "},"":{"ha":421,"x_min":0,"x_max":0,"o":"m 213 -14 b 415 192 339 -14 415 64 l 415 265 b 300 456 415 364 383 407 l 226 499 b 193 550 200 514 193 526 l 193 607 b 213 643 193 632 197 643 b 232 607 228 643 232 632 l 232 533 l 410 533 l 410 586 b 210 786 410 710 335 786 b 10 586 83 786 10 710 l 10 536 b 124 347 10 438 42 394 l 197 304 b 232 253 225 288 232 276 l 232 168 b 210 129 232 139 225 129 b 186 168 193 129 186 139 l 186 269 l 10 269 l 10 192 b 213 -14 10 64 85 -14 z "},"ś":{"ha":421,"x_min":0,"x_max":0,"o":"m 99 824 l 251 824 l 408 1000 l 214 1000 z m 213 -14 b 415 192 339 -14 415 64 l 415 265 b 300 456 415 364 383 407 l 226 499 b 193 550 200 514 193 526 l 193 607 b 213 643 193 632 197 643 b 232 607 228 643 232 632 l 232 533 l 410 533 l 410 586 b 210 786 410 710 335 786 b 10 586 83 786 10 710 l 10 536 b 124 347 10 438 42 394 l 197 304 b 232 253 225 288 232 276 l 232 168 b 210 129 232 139 225 129 b 186 168 193 129 186 139 l 186 269 l 10 269 l 10 192 b 213 -14 10 64 85 -14 z "},"š":{"ha":421,"x_min":0,"x_max":0,"o":"m 146 824 l 274 824 l 410 1000 l 257 1000 l 210 947 l 163 1000 l 10 1000 z m 213 -14 b 415 192 339 -14 415 64 l 415 265 b 300 456 415 364 383 407 l 226 499 b 193 550 200 514 193 526 l 193 607 b 213 643 193 632 197 643 b 232 607 228 643 232 632 l 232 533 l 410 533 l 410 586 b 210 786 410 710 335 786 b 10 586 83 786 10 710 l 10 536 b 124 347 10 438 42 394 l 197 304 b 232 253 225 288 232 276 l 232 168 b 210 129 232 139 225 129 b 186 168 193 129 186 139 l 186 269 l 10 269 l 10 192 b 213 -14 10 64 85 -14 z "},"ş":{"ha":421,"x_min":0,"x_max":0,"o":"m 300 456 l 226 499 b 193 550 200 514 193 526 l 193 607 b 213 643 193 632 197 643 b 232 607 228 643 232 632 l 232 533 l 410 533 l 410 586 b 210 786 410 710 335 786 b 10 586 83 786 10 710 l 10 536 b 124 347 10 438 42 394 l 197 304 b 232 253 225 288 232 276 l 232 168 b 210 129 232 139 225 129 b 186 168 193 129 186 139 l 186 269 l 10 269 l 10 192 b 174 -11 10 78 69 3 l 153 -62 l 175 -62 b 194 -79 186 -62 194 -67 b 154 -104 194 -99 185 -104 l 111 -104 l 111 -178 l 214 -178 b 311 -107 268 -178 311 -164 b 218 -36 311 -54 282 -39 l 226 -14 b 415 192 344 -8 415 69 l 415 265 b 300 456 415 364 383 407 z "},"ŝ":{"ha":421,"x_min":0,"x_max":0,"o":"m 10 824 l 163 824 l 210 875 l 257 824 l 410 824 l 274 1000 l 146 1000 z m 213 -14 b 415 192 339 -14 415 64 l 415 265 b 300 456 415 364 383 407 l 226 499 b 193 550 200 514 193 526 l 193 607 b 213 643 193 632 197 643 b 232 607 228 643 232 632 l 232 533 l 410 533 l 410 586 b 210 786 410 710 335 786 b 10 586 83 786 10 710 l 10 536 b 124 347 10 438 42 394 l 197 304 b 232 253 225 288 232 276 l 232 168 b 210 129 232 139 225 129 b 186 168 193 129 186 139 l 186 269 l 10 269 l 10 192 b 213 -14 10 64 85 -14 z "},"ș":{"ha":421,"x_min":0,"x_max":0,"o":"m 213 -14 b 415 192 339 -14 415 64 l 415 265 b 300 456 415 364 383 407 l 226 499 b 193 550 200 514 193 526 l 193 607 b 213 643 193 632 197 643 b 232 607 228 643 232 632 l 232 533 l 410 533 l 410 586 b 210 786 410 710 335 786 b 10 586 83 786 10 710 l 10 536 b 124 347 10 438 42 394 l 197 304 b 232 253 225 288 232 276 l 232 168 b 210 129 232 139 225 129 b 186 168 193 129 186 139 l 186 269 l 10 269 l 10 192 b 213 -14 10 64 85 -14 z m 103 -278 l 217 -278 l 307 -169 l 307 -54 l 118 -54 l 118 -185 l 171 -185 z "},"ß":{"ha":449,"x_min":0,"x_max":0,"o":"m 25 0 l 208 0 l 208 835 b 228 871 208 860 213 871 b 247 835 243 871 247 860 l 247 696 b 228 660 247 671 243 660 l 224 660 l 224 524 l 228 524 b 253 499 243 524 253 514 l 253 158 b 229 136 253 144 243 136 l 224 136 l 224 0 l 260 0 b 436 169 378 0 436 54 l 436 458 b 371 603 436 531 414 576 l 371 606 b 425 753 406 640 425 692 l 425 814 b 225 1014 425 938 349 1014 b 25 814 100 1014 25 938 z "},"t":{"ha":297,"x_min":0,"x_max":0,"o":"m 225 0 l 292 0 l 292 136 l 256 136 b 232 158 240 136 232 144 l 232 636 l 292 636 l 292 772 l 232 772 l 232 949 l 49 908 l 49 772 l -4 772 l -4 636 l 49 636 l 49 169 b 225 0 49 54 106 0 z "},"ŧ":{"ha":306,"x_min":0,"x_max":0,"o":"m 296 636 l 296 772 l 236 772 l 236 949 l 53 908 l 53 772 l 0 772 l 0 636 l 53 636 l 53 489 l 13 489 l 13 353 l 53 353 l 53 169 b 229 0 53 54 110 0 l 296 0 l 296 136 l 260 136 b 236 158 244 136 236 144 l 236 353 l 279 353 l 279 489 l 236 489 l 236 636 z "},"ť":{"ha":297,"x_min":0,"x_max":0,"o":"m 232 796 l 339 796 b 428 976 394 847 428 915 l 428 1000 l 296 1000 b 301 961 299 988 301 974 b 232 796 301 904 276 843 z m 225 0 l 292 0 l 292 136 l 256 136 b 232 158 240 136 232 144 l 232 636 l 292 636 l 292 772 l 232 772 l 232 949 l 49 908 l 49 772 l -4 772 l -4 636 l 49 636 l 49 169 b 225 0 49 54 106 0 z "},"ţ":{"ha":297,"x_min":0,"x_max":0,"o":"m 292 636 l 292 772 l 232 772 l 232 949 l 49 908 l 49 772 l -4 772 l -4 636 l 49 636 l 49 169 b 131 17 49 90 75 40 l 100 -62 l 119 -62 b 142 -79 133 -62 142 -65 b 101 -104 142 -103 126 -104 l 58 -104 l 58 -178 l 161 -178 b 258 -100 215 -178 258 -164 b 168 -29 258 -47 229 -32 l 181 3 b 225 0 194 1 210 0 l 292 0 l 292 136 l 256 136 b 232 158 240 136 232 144 l 232 636 z "},"ț":{"ha":297,"x_min":0,"x_max":0,"o":"m 225 0 l 292 0 l 292 136 l 256 136 b 232 158 240 136 232 144 l 232 636 l 292 636 l 292 772 l 232 772 l 232 949 l 49 908 l 49 772 l -4 772 l -4 636 l 49 636 l 49 169 b 225 0 49 54 106 0 z m 50 -278 l 164 -278 l 254 -169 l 254 -54 l 65 -54 l 65 -185 l 118 -185 z "},"u":{"ha":456,"x_min":0,"x_max":0,"o":"m 139 -14 b 254 72 194 -14 233 15 l 257 72 l 257 0 l 432 0 l 432 772 l 249 772 l 249 190 b 222 129 249 144 239 129 b 207 156 208 129 207 142 l 207 772 l 24 772 l 24 153 b 139 -14 24 46 61 -14 z "},"ú":{"ha":456,"x_min":0,"x_max":0,"o":"m 118 824 l 271 824 l 428 1000 l 233 1000 z m 139 -14 b 254 72 194 -14 233 15 l 257 72 l 257 0 l 432 0 l 432 772 l 249 772 l 249 190 b 222 129 249 144 239 129 b 207 156 208 129 207 142 l 207 772 l 24 772 l 24 153 b 139 -14 24 46 61 -14 z "},"ŭ":{"ha":456,"x_min":0,"x_max":0,"o":"m 229 811 b 397 1000 340 811 397 876 l 276 1000 b 229 933 276 956 263 933 b 182 1000 196 933 182 956 l 61 1000 b 229 811 61 876 118 811 z m 139 -14 b 254 72 194 -14 233 15 l 257 72 l 257 0 l 432 0 l 432 772 l 249 772 l 249 190 b 222 129 249 144 239 129 b 207 156 208 129 207 142 l 207 772 l 24 772 l 24 153 b 139 -14 24 46 61 -14 z "},"û":{"ha":456,"x_min":0,"x_max":0,"o":"m 29 824 l 182 824 l 229 875 l 276 824 l 429 824 l 293 1000 l 165 1000 z m 139 -14 b 254 72 194 -14 233 15 l 257 72 l 257 0 l 432 0 l 432 772 l 249 772 l 249 190 b 222 129 249 144 239 129 b 207 156 208 129 207 142 l 207 772 l 24 772 l 24 153 b 139 -14 24 46 61 -14 z "},"ü":{"ha":456,"x_min":0,"x_max":0,"o":"m 42 824 l 206 824 l 206 1000 l 42 1000 z m 253 824 l 417 824 l 417 1000 l 253 1000 z m 139 -14 b 254 72 194 -14 233 15 l 257 72 l 257 0 l 432 0 l 432 772 l 249 772 l 249 190 b 222 129 249 144 239 129 b 207 156 208 129 207 142 l 207 772 l 24 772 l 24 153 b 139 -14 24 46 61 -14 z "},"ù":{"ha":456,"x_min":0,"x_max":0,"o":"m 188 824 l 340 824 l 225 1000 l 31 1000 z m 139 -14 b 254 72 194 -14 233 15 l 257 72 l 257 0 l 432 0 l 432 772 l 249 772 l 249 190 b 222 129 249 144 239 129 b 207 156 208 129 207 142 l 207 772 l 24 772 l 24 153 b 139 -14 24 46 61 -14 z "},"ű":{"ha":456,"x_min":0,"x_max":0,"o":"m 36 824 l 183 824 l 299 1000 l 131 1000 z m 246 824 l 396 824 l 510 1000 l 343 1000 z m 139 -14 b 254 72 194 -14 233 15 l 257 72 l 257 0 l 432 0 l 432 772 l 249 772 l 249 190 b 222 129 249 144 239 129 b 207 156 208 129 207 142 l 207 772 l 24 772 l 24 153 b 139 -14 24 46 61 -14 z "},"ū":{"ha":456,"x_min":0,"x_max":0,"o":"m 68 853 l 390 853 l 390 974 l 68 974 z m 139 -14 b 254 72 194 -14 233 15 l 257 72 l 257 0 l 432 0 l 432 772 l 249 772 l 249 190 b 222 129 249 144 239 129 b 207 156 208 129 207 142 l 207 772 l 24 772 l 24 153 b 139 -14 24 46 61 -14 z "},"ų":{"ha":456,"x_min":0,"x_max":0,"o":"m 388 0 l 432 0 l 432 772 l 249 772 l 249 190 b 222 129 249 144 239 129 b 207 156 208 129 207 142 l 207 772 l 24 772 l 24 153 b 139 -14 24 46 61 -14 b 254 72 194 -14 233 15 l 257 72 l 257 0 l 317 0 b 243 -93 288 -10 243 -40 b 363 -178 243 -149 286 -178 l 432 -178 l 432 -57 l 406 -57 b 365 -29 381 -57 365 -53 b 388 0 365 -15 372 -7 z "},"ů":{"ha":456,"x_min":0,"x_max":0,"o":"m 229 815 b 358 940 306 815 358 869 b 229 1065 358 1013 306 1065 b 100 940 153 1065 100 1013 b 229 815 100 869 153 815 z m 229 894 b 186 940 203 894 186 913 b 229 988 186 968 203 988 b 274 940 256 988 274 968 b 229 894 274 913 256 894 z m 139 -14 b 254 72 194 -14 233 15 l 257 72 l 257 0 l 432 0 l 432 772 l 249 772 l 249 190 b 222 129 249 144 239 129 b 207 156 208 129 207 142 l 207 772 l 24 772 l 24 153 b 139 -14 24 46 61 -14 z "},"ũ":{"ha":456,"x_min":0,"x_max":0,"o":"m 43 814 l 151 814 b 178 875 154 861 160 875 b 207 860 185 875 192 871 b 297 826 243 833 265 826 b 415 1011 367 826 407 879 l 307 1011 b 281 951 304 965 299 951 b 251 967 274 951 267 956 b 161 1000 215 993 193 1000 b 43 814 92 1000 51 947 z m 139 -14 b 254 72 194 -14 233 15 l 257 72 l 257 0 l 432 0 l 432 772 l 249 772 l 249 190 b 222 129 249 144 239 129 b 207 156 208 129 207 142 l 207 772 l 24 772 l 24 153 b 139 -14 24 46 61 -14 z "},"v":{"ha":419,"x_min":0,"x_max":0,"o":"m 89 0 l 332 0 l 422 772 l 249 772 l 217 289 l 214 289 l 182 772 l -3 772 z "},"w":{"ha":663,"x_min":0,"x_max":0,"o":"m 68 0 l 303 0 l 335 379 l 338 379 l 369 0 l 594 0 l 664 772 l 486 772 l 468 204 l 465 204 l 418 772 l 254 772 l 208 204 l 206 204 l 186 772 l -1 772 z "},"":{"ha":663,"x_min":0,"x_max":0,"o":"m 68 0 l 303 0 l 335 379 l 338 379 l 369 0 l 594 0 l 664 772 l 486 772 l 468 204 l 465 204 l 418 772 l 254 772 l 208 204 l 206 204 l 186 772 l -1 772 z "},"ẃ":{"ha":663,"x_min":0,"x_max":0,"o":"m 221 824 l 374 824 l 531 1000 l 336 1000 z m 68 0 l 303 0 l 335 379 l 338 379 l 369 0 l 594 0 l 664 772 l 486 772 l 468 204 l 465 204 l 418 772 l 254 772 l 208 204 l 206 204 l 186 772 l -1 772 z "},"ŵ":{"ha":663,"x_min":0,"x_max":0,"o":"m 132 824 l 285 824 l 332 875 l 379 824 l 532 824 l 396 1000 l 268 1000 z m 68 0 l 303 0 l 335 379 l 338 379 l 369 0 l 594 0 l 664 772 l 486 772 l 468 204 l 465 204 l 418 772 l 254 772 l 208 204 l 206 204 l 186 772 l -1 772 z "},"ẅ":{"ha":663,"x_min":0,"x_max":0,"o":"m 144 824 l 308 824 l 308 1000 l 144 1000 z m 356 824 l 519 824 l 519 1000 l 356 1000 z m 68 0 l 303 0 l 335 379 l 338 379 l 369 0 l 594 0 l 664 772 l 486 772 l 468 204 l 465 204 l 418 772 l 254 772 l 208 204 l 206 204 l 186 772 l -1 772 z "},"ẁ":{"ha":663,"x_min":0,"x_max":0,"o":"m 290 824 l 443 824 l 328 1000 l 133 1000 z m 68 0 l 303 0 l 335 379 l 338 379 l 369 0 l 594 0 l 664 772 l 486 772 l 468 204 l 465 204 l 418 772 l 254 772 l 208 204 l 206 204 l 186 772 l -1 772 z "},"x":{"ha":436,"x_min":0,"x_max":0,"o":"m -6 0 l 171 0 l 211 229 l 214 229 l 251 0 l 443 0 l 335 413 l 432 772 l 256 772 l 226 594 l 224 594 l 194 772 l 6 772 l 101 413 z "},"y":{"ha":453,"x_min":0,"x_max":0,"o":"m 246 772 l 246 267 b 219 206 246 221 236 206 b 204 232 207 206 204 218 l 204 772 l 21 772 l 21 229 b 136 63 21 122 60 63 b 243 131 186 63 222 86 l 246 131 l 246 -11 b 224 -49 246 -29 244 -49 b 201 -8 201 -49 201 -31 l 201 29 l 24 29 l 24 -1 b 225 -192 24 -121 96 -192 b 429 13 354 -192 429 -118 l 429 772 z "},"":{"ha":453,"x_min":0,"x_max":0,"o":"m 246 772 l 246 267 b 219 206 246 221 236 206 b 204 232 207 206 204 218 l 204 772 l 21 772 l 21 229 b 136 63 21 122 60 63 b 243 131 186 63 222 86 l 246 131 l 246 -11 b 224 -49 246 -29 244 -49 b 201 -8 201 -49 201 -31 l 201 29 l 24 29 l 24 -1 b 225 -192 24 -121 96 -192 b 429 13 354 -192 429 -118 l 429 772 z "},"ý":{"ha":453,"x_min":0,"x_max":0,"o":"m 117 824 l 269 824 l 426 1000 l 232 1000 z m 246 772 l 246 267 b 219 206 246 221 236 206 b 204 232 207 206 204 218 l 204 772 l 21 772 l 21 229 b 136 63 21 122 60 63 b 243 131 186 63 222 86 l 246 131 l 246 -11 b 224 -49 246 -29 244 -49 b 201 -8 201 -49 201 -31 l 201 29 l 24 29 l 24 -1 b 225 -192 24 -121 96 -192 b 429 13 354 -192 429 -118 l 429 772 z "},"ŷ":{"ha":453,"x_min":0,"x_max":0,"o":"m 28 824 l 181 824 l 228 875 l 275 824 l 428 824 l 292 1000 l 164 1000 z m 246 772 l 246 267 b 219 206 246 221 236 206 b 204 232 207 206 204 218 l 204 772 l 21 772 l 21 229 b 136 63 21 122 60 63 b 243 131 186 63 222 86 l 246 131 l 246 -11 b 224 -49 246 -29 244 -49 b 201 -8 201 -49 201 -31 l 201 29 l 24 29 l 24 -1 b 225 -192 24 -121 96 -192 b 429 13 354 -192 429 -118 l 429 772 z "},"ÿ":{"ha":453,"x_min":0,"x_max":0,"o":"m 40 824 l 204 824 l 204 1000 l 40 1000 z m 251 824 l 415 824 l 415 1000 l 251 1000 z m 246 772 l 246 267 b 219 206 246 221 236 206 b 204 232 207 206 204 218 l 204 772 l 21 772 l 21 229 b 136 63 21 122 60 63 b 243 131 186 63 222 86 l 246 131 l 246 -11 b 224 -49 246 -29 244 -49 b 201 -8 201 -49 201 -31 l 201 29 l 24 29 l 24 -1 b 225 -192 24 -121 96 -192 b 429 13 354 -192 429 -118 l 429 772 z "},"ỳ":{"ha":453,"x_min":0,"x_max":0,"o":"m 186 824 l 339 824 l 224 1000 l 29 1000 z m 246 772 l 246 267 b 219 206 246 221 236 206 b 204 232 207 206 204 218 l 204 772 l 21 772 l 21 229 b 136 63 21 122 60 63 b 243 131 186 63 222 86 l 246 131 l 246 -11 b 224 -49 246 -29 244 -49 b 201 -8 201 -49 201 -31 l 201 29 l 24 29 l 24 -1 b 225 -192 24 -121 96 -192 b 429 13 354 -192 429 -118 l 429 772 z "},"z":{"ha":406,"x_min":0,"x_max":0,"o":"m 1 0 l 400 0 l 400 136 l 197 136 l 400 650 l 400 772 l 15 772 l 15 636 l 206 636 l 1 125 z "},"ź":{"ha":406,"x_min":0,"x_max":0,"o":"m 96 824 l 249 824 l 406 1000 l 211 1000 z m 1 0 l 400 0 l 400 136 l 197 136 l 400 650 l 400 772 l 15 772 l 15 636 l 206 636 l 1 125 z "},"ž":{"ha":406,"x_min":0,"x_max":0,"o":"m 143 824 l 271 824 l 407 1000 l 254 1000 l 207 947 l 160 1000 l 7 1000 z m 1 0 l 400 0 l 400 136 l 197 136 l 400 650 l 400 772 l 15 772 l 15 636 l 206 636 l 1 125 z "},"ż":{"ha":406,"x_min":0,"x_max":0,"o":"m 115 824 l 299 824 l 299 1000 l 115 1000 z m 1 0 l 400 0 l 400 136 l 197 136 l 400 650 l 400 772 l 15 772 l 15 636 l 206 636 l 1 125 z "},"ﬁ":{"ha":519,"x_min":0,"x_max":0,"o":"m 49 0 l 232 0 l 232 636 l 292 636 l 292 772 l 232 772 l 232 842 b 256 864 232 856 240 864 l 292 864 l 292 1000 l 225 1000 b 49 831 106 1000 49 946 l 49 772 l -4 772 l -4 636 l 49 636 z m 313 824 l 496 824 l 496 1000 l 313 1000 z m 313 0 l 496 0 l 496 772 l 313 772 z "},"ﬂ":{"ha":519,"x_min":0,"x_max":0,"o":"m 49 0 l 232 0 l 232 636 l 292 636 l 292 772 l 232 772 l 232 842 b 256 864 232 856 240 864 l 292 864 l 292 1000 l 225 1000 b 49 831 106 1000 49 946 l 49 772 l -4 772 l -4 636 l 49 636 z m 313 0 l 496 0 l 496 1000 l 313 1000 z "},"ª":{"ha":314,"x_min":0,"x_max":0,"o":"m 89 431 b 171 492 129 431 157 451 l 174 492 l 174 440 l 297 440 l 297 831 b 156 972 297 918 244 972 b 14 831 67 972 14 918 l 14 806 l 139 806 l 139 846 b 153 871 139 864 143 871 b 168 846 164 871 168 864 l 168 796 b 7 614 53 764 7 699 l 7 549 b 89 431 7 474 33 431 z m 149 532 b 135 551 139 532 135 542 l 135 613 b 168 689 135 656 136 674 l 168 576 b 149 532 168 543 161 532 z "},"º":{"ha":311,"x_min":0,"x_max":0,"o":"m 156 431 b 300 578 246 431 300 486 l 300 825 b 156 972 300 917 246 972 b 11 825 65 972 11 917 l 11 578 b 156 431 11 486 65 431 z m 156 532 b 139 560 144 532 139 539 l 139 843 b 156 871 139 864 144 871 b 172 843 167 871 172 864 l 172 560 b 156 532 172 539 167 532 z "},"Δ":{"ha":454,"x_min":0,"x_max":0,"o":"m -3 0 l 457 0 l 358 958 l 96 958 z m 190 158 l 221 708 l 224 708 l 254 158 z "},"Ω":{"ha":468,"x_min":0,"x_max":0,"o":"m 11 0 l 225 0 l 225 214 b 211 478 214 253 211 304 l 211 771 b 235 811 211 800 217 811 b 257 771 251 811 257 800 l 257 478 b 243 214 257 304 254 253 l 243 0 l 457 0 l 457 158 l 360 158 l 360 161 b 450 540 411 218 450 322 l 450 750 b 235 972 450 888 368 972 b 18 750 103 972 18 888 l 18 540 b 108 161 18 322 57 218 l 108 158 l 11 158 z "},"μ":{"ha":457,"x_min":0,"x_max":0,"o":"m 250 772 l 250 190 b 224 129 250 144 240 129 b 208 156 210 129 208 142 l 208 772 l 25 772 l 25 -178 l 208 -178 l 208 6 b 256 72 229 21 244 43 l 258 72 l 258 0 l 433 0 l 433 772 z "},"π":{"ha":508,"x_min":0,"x_max":0,"o":"m 49 0 l 232 0 l 232 636 l 276 636 l 276 0 l 460 0 l 460 636 l 513 636 l 513 772 l -4 772 l -4 636 l 49 636 z "},"₀":{"ha":338,"x_min":0,"x_max":0,"o":"m 168 -185 b 321 -33 263 -185 321 -125 l 321 257 b 168 410 321 350 263 410 b 17 257 75 410 17 350 l 17 -33 b 168 -185 17 -125 75 -185 z m 168 -78 b 153 -47 156 -78 153 -68 l 153 272 b 168 303 153 294 156 303 b 185 272 181 303 185 294 l 185 -47 b 168 -78 185 -68 181 -78 z "},"₁":{"ha":263,"x_min":0,"x_max":0,"o":"m 88 -178 l 224 -178 l 224 410 l 142 410 l 13 331 l 13 213 l 88 258 z "},"₂":{"ha":313,"x_min":0,"x_max":0,"o":"m 8 -178 l 303 -178 l 303 -47 l 143 -47 b 194 28 151 -28 167 -7 l 249 96 b 303 253 290 147 303 194 l 303 261 b 154 410 303 353 244 410 b 8 261 64 410 8 353 l 8 218 l 139 218 l 139 278 b 154 303 139 296 144 303 b 168 278 164 303 168 296 l 168 249 b 132 153 168 210 165 197 l 79 83 b 8 -143 24 10 8 -33 z "},"₃":{"ha":314,"x_min":0,"x_max":0,"o":"m 154 -185 b 304 -35 247 -185 304 -126 l 304 8 b 247 126 304 69 285 107 l 247 129 b 300 243 282 147 300 183 l 300 261 b 151 410 300 353 243 410 b 6 261 60 410 6 353 l 6 231 l 136 231 l 136 271 b 150 294 136 288 139 294 b 165 271 161 294 165 288 l 165 219 b 140 172 165 181 161 172 l 99 172 l 99 65 l 143 65 b 169 17 165 65 169 58 l 169 -47 b 151 -78 169 -68 164 -78 b 135 -47 138 -78 135 -68 l 135 -6 l 4 -6 l 4 -35 b 154 -185 4 -126 60 -185 z "},"₄":{"ha":339,"x_min":0,"x_max":0,"o":"m 158 -178 l 292 -178 l 292 -103 l 339 -103 l 339 6 l 292 6 l 292 403 l 124 403 l 1 6 l 1 -103 l 158 -103 z m 118 6 l 178 250 l 181 250 l 161 6 z "},"₅":{"ha":328,"x_min":0,"x_max":0,"o":"m 165 -185 b 314 -35 257 -185 314 -126 l 314 104 b 210 228 314 181 274 228 b 142 196 179 228 157 218 l 139 196 l 140 272 l 304 272 l 304 403 l 28 403 l 17 57 l 146 57 l 146 81 b 165 121 146 111 153 121 b 181 100 176 121 181 111 l 181 -47 b 163 -78 181 -68 175 -78 b 146 -47 149 -78 146 -68 l 146 -6 l 14 -6 l 14 -35 b 165 -185 14 -126 71 -185 z "},"₆":{"ha":331,"x_min":0,"x_max":0,"o":"m 168 -185 b 321 -33 263 -185 321 -125 l 321 78 b 217 203 321 154 279 203 b 156 179 190 203 171 196 l 153 179 l 153 272 b 168 303 153 294 156 303 b 185 272 182 303 185 294 l 185 236 l 315 236 l 315 258 b 167 410 315 351 260 410 b 17 258 74 410 17 351 l 17 -33 b 168 -185 17 -125 75 -185 z m 168 -78 b 153 -47 156 -78 153 -68 l 153 54 b 172 94 153 85 160 94 b 185 74 183 94 185 85 l 185 -47 b 168 -78 185 -68 181 -78 z "},"₇":{"ha":300,"x_min":0,"x_max":0,"o":"m 47 -178 l 182 -178 l 182 -136 b 300 281 182 6 194 93 l 300 403 l -1 403 l -1 272 l 163 272 b 47 -151 56 69 47 -26 z "},"₈":{"ha":326,"x_min":0,"x_max":0,"o":"m 163 -185 b 315 -35 258 -185 315 -128 l 315 7 b 257 128 315 69 299 107 l 257 131 b 313 235 294 150 313 185 l 313 260 b 163 410 313 354 256 410 b 14 260 71 410 14 354 l 14 235 b 69 131 14 185 32 150 l 69 128 b 11 7 28 107 11 69 l 11 -35 b 163 -185 11 -128 68 -185 z m 163 172 b 146 199 151 172 146 181 l 146 275 b 163 303 146 294 151 303 b 181 275 174 303 181 294 l 181 199 b 163 172 181 181 174 172 z m 163 -78 b 147 -46 150 -78 147 -68 l 147 36 b 163 65 147 57 150 65 b 179 36 175 65 179 57 l 179 -46 b 163 -78 179 -68 175 -78 z "},"₉":{"ha":331,"x_min":0,"x_max":0,"o":"m 163 410 b 10 258 68 410 10 350 l 10 147 b 114 22 10 71 51 22 b 175 46 140 22 160 29 l 178 46 l 178 -47 b 163 -78 178 -69 175 -78 b 146 -47 149 -78 146 -69 l 146 -11 l 15 -11 l 15 -33 b 164 -185 15 -126 71 -185 b 314 -33 257 -185 314 -126 l 314 258 b 163 410 314 350 256 410 z m 163 303 b 178 272 175 303 178 293 l 178 171 b 158 131 178 140 171 131 b 146 151 147 131 146 140 l 146 272 b 163 303 146 293 150 303 z "},"⁰":{"ha":338,"x_min":0,"x_max":0,"o":"m 168 549 b 321 700 263 549 321 608 l 321 990 b 168 1143 321 1083 263 1143 b 17 990 75 1143 17 1083 l 17 700 b 168 549 17 608 75 549 z m 168 656 b 153 686 156 656 153 665 l 153 1006 b 168 1036 153 1028 156 1036 b 185 1006 181 1036 185 1028 l 185 686 b 168 656 185 665 181 656 z "},"¹":{"ha":263,"x_min":0,"x_max":0,"o":"m 88 556 l 224 556 l 224 1143 l 142 1143 l 13 1064 l 13 946 l 88 992 z "},"²":{"ha":313,"x_min":0,"x_max":0,"o":"m 8 556 l 303 556 l 303 686 l 143 686 b 194 761 151 706 167 726 l 249 829 b 303 986 290 881 303 928 l 303 994 b 154 1143 303 1086 244 1143 b 8 994 64 1143 8 1086 l 8 951 l 139 951 l 139 1011 b 154 1036 139 1029 144 1036 b 168 1011 164 1036 168 1029 l 168 982 b 132 886 168 943 165 931 l 79 817 b 8 590 24 743 8 700 z "},"³":{"ha":314,"x_min":0,"x_max":0,"o":"m 154 549 b 304 699 247 549 304 607 l 304 742 b 247 860 304 803 285 840 l 247 863 b 300 976 282 881 300 917 l 300 994 b 151 1143 300 1086 243 1143 b 6 994 60 1143 6 1086 l 6 964 l 136 964 l 136 1004 b 150 1028 136 1021 139 1028 b 165 1004 161 1028 165 1021 l 165 953 b 140 906 165 914 161 906 l 99 906 l 99 799 l 143 799 b 169 750 165 799 169 792 l 169 686 b 151 656 169 665 164 656 b 135 686 138 656 135 665 l 135 728 l 4 728 l 4 699 b 154 549 4 607 60 549 z "},"⁴":{"ha":339,"x_min":0,"x_max":0,"o":"m 158 556 l 292 556 l 292 631 l 339 631 l 339 739 l 292 739 l 292 1136 l 124 1136 l 1 739 l 1 631 l 158 631 z m 118 739 l 178 983 l 181 983 l 161 739 z "},"⁵":{"ha":328,"x_min":0,"x_max":0,"o":"m 165 549 b 314 699 257 549 314 607 l 314 838 b 210 961 314 914 274 961 b 142 929 179 961 157 951 l 139 929 l 140 1006 l 304 1006 l 304 1136 l 28 1136 l 17 790 l 146 790 l 146 814 b 165 854 146 844 153 854 b 181 833 176 854 181 844 l 181 686 b 163 656 181 665 175 656 b 146 686 149 656 146 665 l 146 728 l 14 728 l 14 699 b 165 549 14 607 71 549 z "},"⁶":{"ha":331,"x_min":0,"x_max":0,"o":"m 168 549 b 321 700 263 549 321 608 l 321 811 b 217 936 321 888 279 936 b 156 913 190 936 171 929 l 153 913 l 153 1006 b 168 1036 153 1028 156 1036 b 185 1006 182 1036 185 1028 l 185 969 l 315 969 l 315 992 b 167 1143 315 1085 260 1143 b 17 992 74 1143 17 1085 l 17 700 b 168 549 17 608 75 549 z m 168 656 b 153 686 156 656 153 665 l 153 788 b 172 828 153 818 160 828 b 185 807 183 828 185 818 l 185 686 b 168 656 185 665 181 656 z "},"⁷":{"ha":300,"x_min":0,"x_max":0,"o":"m 47 556 l 182 556 l 182 597 b 300 1014 182 739 194 826 l 300 1136 l -1 1136 l -1 1006 l 163 1006 b 47 582 56 803 47 707 z "},"⁸":{"ha":326,"x_min":0,"x_max":0,"o":"m 163 549 b 315 699 258 549 315 606 l 315 740 b 257 861 315 803 299 840 l 257 864 b 313 968 294 883 313 918 l 313 993 b 163 1143 313 1088 256 1143 b 14 993 71 1143 14 1088 l 14 968 b 69 864 14 918 32 883 l 69 861 b 11 740 28 840 11 803 l 11 699 b 163 549 11 606 68 549 z m 163 906 b 146 932 151 906 146 914 l 146 1008 b 163 1036 146 1028 151 1036 b 181 1008 174 1036 181 1028 l 181 932 b 163 906 181 914 174 906 z m 163 656 b 147 688 150 656 147 665 l 147 769 b 163 799 147 790 150 799 b 179 769 175 799 179 790 l 179 688 b 163 656 179 665 175 656 z "},"⁹":{"ha":331,"x_min":0,"x_max":0,"o":"m 163 1143 b 10 992 68 1143 10 1083 l 10 881 b 114 756 10 804 51 756 b 175 779 140 756 160 763 l 178 779 l 178 686 b 163 656 178 664 175 656 b 146 686 149 656 146 664 l 146 722 l 15 722 l 15 700 b 164 549 15 607 71 549 b 314 700 257 549 314 607 l 314 992 b 163 1143 314 1083 256 1143 z m 163 1036 b 178 1006 175 1036 178 1026 l 178 904 b 158 864 178 874 171 864 b 146 885 147 864 146 874 l 146 1006 b 163 1036 146 1026 150 1036 z "},"⁄":{"ha":151,"x_min":0,"x_max":0,"o":"m -197 0 l -75 0 l 349 958 l 228 958 z "},"½":{"ha":726,"x_min":0,"x_max":0,"o":"m 88 378 l 224 378 l 224 965 l 142 965 l 13 886 l 13 768 l 88 814 z m 65 0 l 188 0 l 611 958 l 490 958 z m 422 0 l 717 0 l 717 131 l 557 131 b 608 206 565 150 581 171 l 663 274 b 717 431 704 325 717 372 l 717 439 b 568 588 717 531 658 588 b 422 439 478 588 422 531 l 422 396 l 553 396 l 553 456 b 568 481 553 474 558 481 b 582 456 578 481 582 474 l 582 426 b 546 331 582 388 579 375 l 493 261 b 422 35 438 188 422 144 z "},"⅓":{"ha":728,"x_min":0,"x_max":0,"o":"m 88 378 l 224 378 l 224 965 l 142 965 l 13 886 l 13 768 l 88 814 z m 65 0 l 188 0 l 611 958 l 490 958 z m 568 -7 b 718 143 661 -7 718 51 l 718 186 b 661 304 718 247 699 285 l 661 307 b 714 421 696 325 714 361 l 714 439 b 565 588 714 531 657 588 b 419 439 474 588 419 531 l 419 408 l 550 408 l 550 449 b 564 472 550 465 553 472 b 579 449 575 472 579 465 l 579 397 b 554 350 579 358 575 350 l 513 350 l 513 243 l 557 243 b 583 194 579 243 583 236 l 583 131 b 565 100 583 110 578 100 b 549 131 551 100 549 110 l 549 172 l 418 172 l 418 143 b 568 -7 418 51 474 -7 z "},"⅔":{"ha":778,"x_min":0,"x_max":0,"o":"m 540 958 l 303 422 l 303 508 l 143 508 b 194 583 151 528 167 549 l 249 651 b 303 808 290 703 303 750 l 303 817 b 154 965 303 908 244 965 b 8 817 64 965 8 908 l 8 774 l 139 774 l 139 833 b 154 858 139 851 144 858 b 168 833 164 858 168 851 l 168 804 b 132 708 168 765 165 753 l 79 639 b 8 413 24 565 8 522 l 8 378 l 283 378 l 115 0 l 238 0 l 661 958 z m 711 304 l 711 307 b 764 421 746 325 764 361 l 764 439 b 615 588 764 531 707 588 b 469 439 524 588 469 531 l 469 408 l 600 408 l 600 449 b 614 472 600 465 603 472 b 629 449 625 472 629 465 l 629 397 b 604 350 629 358 625 350 l 563 350 l 563 243 l 607 243 b 633 194 629 243 633 236 l 633 131 b 615 100 633 110 628 100 b 599 131 601 100 599 110 l 599 172 l 468 172 l 468 143 b 618 -7 468 51 524 -7 b 768 143 711 -7 768 51 l 768 186 b 711 304 768 247 749 285 z "},"¼":{"ha":753,"x_min":0,"x_max":0,"o":"m 88 378 l 224 378 l 224 965 l 142 965 l 13 886 l 13 768 l 88 814 z m 65 0 l 188 0 l 611 958 l 490 958 z m 572 0 l 706 0 l 706 75 l 753 75 l 753 183 l 706 183 l 706 581 l 538 581 l 415 183 l 415 75 l 572 75 z m 532 183 l 592 428 l 594 428 l 575 183 z "},"¾":{"ha":804,"x_min":0,"x_max":0,"o":"m 154 371 b 304 521 247 371 304 429 l 304 564 b 247 682 304 625 285 663 l 247 685 b 300 799 282 703 300 739 l 300 817 b 151 965 300 908 243 965 b 6 817 60 965 6 908 l 6 786 l 136 786 l 136 826 b 150 850 136 843 139 850 b 165 826 161 850 165 843 l 165 775 b 140 728 165 736 161 728 l 99 728 l 99 621 l 143 621 b 169 572 165 621 169 614 l 169 508 b 151 478 169 488 164 478 b 135 508 138 478 135 488 l 135 550 l 4 550 l 4 521 b 154 371 4 429 60 371 z m 117 0 l 239 0 l 663 958 l 542 958 z m 624 0 l 757 0 l 757 75 l 804 75 l 804 183 l 757 183 l 757 581 l 589 581 l 467 183 l 467 75 l 624 75 z m 583 183 l 643 428 l 646 428 l 626 183 z "},"⅕":{"ha":742,"x_min":0,"x_max":0,"o":"m 88 378 l 224 378 l 224 965 l 142 965 l 13 886 l 13 768 l 88 814 z m 624 406 b 556 374 593 406 571 396 l 553 374 l 554 450 l 718 450 l 718 581 l 444 581 l 611 958 l 490 958 l 65 0 l 188 0 l 442 575 l 431 235 l 560 235 l 560 258 b 579 299 560 289 567 299 b 594 278 590 299 594 289 l 594 131 b 576 100 594 110 589 100 b 560 131 563 100 560 110 l 560 172 l 428 172 l 428 143 b 579 -7 428 51 485 -7 b 728 143 671 -7 728 51 l 728 282 b 624 406 728 358 688 406 z "},"⅖":{"ha":792,"x_min":0,"x_max":0,"o":"m 674 406 b 606 374 643 406 621 396 l 603 374 l 604 450 l 768 450 l 768 581 l 494 581 l 661 958 l 540 958 l 303 422 l 303 508 l 143 508 b 194 583 151 528 167 549 l 249 651 b 303 808 290 703 303 750 l 303 817 b 154 965 303 908 244 965 b 8 817 64 965 8 908 l 8 774 l 139 774 l 139 833 b 154 858 139 851 144 858 b 168 833 164 858 168 851 l 168 804 b 132 708 168 765 165 753 l 79 639 b 8 413 24 565 8 522 l 8 378 l 283 378 l 115 0 l 238 0 l 492 575 l 481 235 l 610 235 l 610 258 b 629 299 610 289 617 299 b 644 278 640 299 644 289 l 644 131 b 626 100 644 110 639 100 b 610 131 613 100 610 110 l 610 172 l 478 172 l 478 143 b 629 -7 478 51 535 -7 b 778 143 721 -7 778 51 l 778 282 b 674 406 778 358 738 406 z "},"⅗":{"ha":793,"x_min":0,"x_max":0,"o":"m 304 521 l 304 564 b 247 682 304 625 285 663 l 247 685 b 300 799 282 703 300 739 l 300 817 b 151 965 300 908 243 965 b 6 817 60 965 6 908 l 6 786 l 136 786 l 136 826 b 150 850 136 843 139 850 b 165 826 161 850 165 843 l 165 775 b 140 728 165 736 161 728 l 99 728 l 99 621 l 143 621 b 169 572 165 621 169 614 l 169 508 b 151 478 169 488 164 478 b 135 508 138 478 135 488 l 135 550 l 4 550 l 4 521 b 154 371 4 429 60 371 b 304 521 247 371 304 429 z m 675 406 b 607 374 644 406 622 396 l 604 374 l 606 450 l 769 450 l 769 581 l 496 581 l 663 958 l 542 958 l 117 0 l 239 0 l 493 575 l 482 235 l 611 235 l 611 258 b 631 299 611 289 618 299 b 646 278 642 299 646 289 l 646 131 b 628 100 646 110 640 100 b 611 131 614 100 611 110 l 611 172 l 479 172 l 479 143 b 631 -7 479 51 536 -7 b 779 143 722 -7 779 51 l 779 282 b 675 406 779 358 739 406 z "},"⅘":{"ha":818,"x_min":0,"x_max":0,"o":"m 158 378 l 292 378 l 292 453 l 339 453 l 339 561 l 292 561 l 292 958 l 124 958 l 1 561 l 1 453 l 158 453 z m 700 406 b 632 374 669 406 647 396 l 629 374 l 631 450 l 794 450 l 794 581 l 521 581 l 688 958 l 567 958 l 142 0 l 264 0 l 518 575 l 507 235 l 636 235 l 636 258 b 656 299 636 289 643 299 b 671 278 667 299 671 289 l 671 131 b 653 100 671 110 665 100 b 636 131 639 100 636 110 l 636 172 l 504 172 l 504 143 b 656 -7 504 51 561 -7 b 804 143 747 -7 804 51 l 804 282 b 700 406 804 358 764 406 z m 118 561 l 178 806 l 181 806 l 161 561 z "},"⅙":{"ha":744,"x_min":0,"x_max":0,"o":"m 88 378 l 224 378 l 224 965 l 142 965 l 13 886 l 13 768 l 88 814 z m 65 0 l 188 0 l 611 958 l 490 958 z m 582 -7 b 735 144 676 -7 735 53 l 735 256 b 631 381 735 332 693 381 b 569 357 604 381 585 374 l 567 357 l 567 450 b 582 481 567 472 569 481 b 599 450 596 481 599 472 l 599 414 l 729 414 l 729 436 b 581 588 729 529 674 588 b 431 436 488 588 431 529 l 431 144 b 582 -7 431 53 489 -7 z m 582 100 b 567 131 569 100 567 110 l 567 232 b 586 272 567 263 574 272 b 599 251 597 272 599 263 l 599 131 b 582 100 599 110 594 100 z "},"⅚":{"ha":810,"x_min":0,"x_max":0,"o":"m 165 371 b 314 521 257 371 314 429 l 314 660 b 210 783 314 736 274 783 b 142 751 179 783 157 774 l 139 751 l 140 828 l 304 828 l 304 958 l 28 958 l 17 613 l 146 613 l 146 636 b 165 676 146 667 153 676 b 181 656 176 676 181 667 l 181 508 b 163 478 181 488 175 478 b 146 508 149 478 146 488 l 146 550 l 14 550 l 14 521 b 165 371 14 429 71 371 z m 131 0 l 253 0 l 676 958 l 556 958 z m 647 -7 b 800 144 742 -7 800 53 l 800 256 b 696 381 800 332 758 381 b 635 357 669 381 650 374 l 632 357 l 632 450 b 647 481 632 472 635 481 b 664 450 661 481 664 472 l 664 414 l 794 414 l 794 436 b 646 588 794 529 739 588 b 496 436 553 588 496 529 l 496 144 b 647 -7 496 53 554 -7 z m 647 100 b 632 131 635 100 632 110 l 632 232 b 651 272 632 263 639 272 b 664 251 663 272 664 263 l 664 131 b 647 100 664 110 660 100 z "},"⅛":{"ha":740,"x_min":0,"x_max":0,"o":"m 88 378 l 224 378 l 224 965 l 142 965 l 13 886 l 13 768 l 88 814 z m 65 0 l 188 0 l 611 958 l 490 958 z m 576 -7 b 729 143 672 -7 729 50 l 729 185 b 671 306 729 247 713 285 l 671 308 b 726 413 708 328 726 363 l 726 438 b 576 588 726 532 669 588 b 428 438 485 588 428 532 l 428 413 b 483 308 428 363 446 328 l 483 306 b 425 185 442 285 425 247 l 425 143 b 576 -7 425 50 482 -7 z m 576 350 b 560 376 565 350 560 358 l 560 453 b 576 481 560 472 565 481 b 594 453 588 481 594 472 l 594 376 b 576 350 594 358 588 350 z m 576 100 b 561 132 564 100 561 110 l 561 214 b 576 243 561 235 564 243 b 593 214 589 243 593 235 l 593 132 b 576 100 593 110 589 100 z "},"⅜":{"ha":792,"x_min":0,"x_max":0,"o":"m 154 371 b 304 521 247 371 304 429 l 304 564 b 247 682 304 625 285 663 l 247 685 b 300 799 282 703 300 739 l 300 817 b 151 965 300 908 243 965 b 6 817 60 965 6 908 l 6 786 l 136 786 l 136 826 b 150 850 136 843 139 850 b 165 826 161 850 165 843 l 165 775 b 140 728 165 736 161 728 l 99 728 l 99 621 l 143 621 b 169 572 165 621 169 614 l 169 508 b 151 478 169 488 164 478 b 135 508 138 478 135 488 l 135 550 l 4 550 l 4 521 b 154 371 4 429 60 371 z m 117 0 l 239 0 l 663 958 l 542 958 z m 628 -7 b 781 143 724 -7 781 50 l 781 185 b 722 306 781 247 764 285 l 722 308 b 778 413 760 328 778 363 l 778 438 b 628 588 778 532 721 588 b 479 438 536 588 479 532 l 479 413 b 535 308 479 363 497 328 l 535 306 b 476 185 493 285 476 247 l 476 143 b 628 -7 476 50 533 -7 z m 628 350 b 611 376 617 350 611 358 l 611 453 b 628 481 611 472 617 481 b 646 453 639 481 646 472 l 646 376 b 628 350 646 358 639 350 z m 628 100 b 613 132 615 100 613 110 l 613 214 b 628 243 613 235 615 243 b 644 214 640 243 644 235 l 644 132 b 628 100 644 110 640 100 z "},"⅝":{"ha":806,"x_min":0,"x_max":0,"o":"m 165 371 b 314 521 257 371 314 429 l 314 660 b 210 783 314 736 274 783 b 142 751 179 783 157 774 l 139 751 l 140 828 l 304 828 l 304 958 l 28 958 l 17 613 l 146 613 l 146 636 b 165 676 146 667 153 676 b 181 656 176 676 181 667 l 181 508 b 163 478 181 488 175 478 b 146 508 149 478 146 488 l 146 550 l 14 550 l 14 521 b 165 371 14 429 71 371 z m 131 0 l 253 0 l 676 958 l 556 958 z m 642 -7 b 794 143 738 -7 794 50 l 794 185 b 736 306 794 247 778 285 l 736 308 b 792 413 774 328 792 363 l 792 438 b 642 588 792 532 735 588 b 493 438 550 588 493 532 l 493 413 b 549 308 493 363 511 328 l 549 306 b 490 185 507 285 490 247 l 490 143 b 642 -7 490 50 547 -7 z m 642 350 b 625 376 631 350 625 358 l 625 453 b 642 481 625 472 631 481 b 660 453 653 481 660 472 l 660 376 b 642 350 660 358 653 350 z m 642 100 b 626 132 629 100 626 110 l 626 214 b 642 243 626 235 629 243 b 658 214 654 243 658 235 l 658 132 b 642 100 658 110 654 100 z "},"⅞":{"ha":778,"x_min":0,"x_max":0,"o":"m 47 378 l 182 378 l 182 419 b 300 836 182 561 194 649 l 300 958 l -1 958 l -1 828 l 163 828 b 47 404 56 625 47 529 z m 103 0 l 225 0 l 649 958 l 528 958 z m 614 -7 b 767 143 710 -7 767 50 l 767 185 b 708 306 767 247 750 285 l 708 308 b 764 413 746 328 764 363 l 764 438 b 614 588 764 532 707 588 b 465 438 522 588 465 532 l 465 413 b 521 308 465 363 483 328 l 521 306 b 463 185 479 285 463 247 l 463 143 b 614 -7 463 50 519 -7 z m 614 350 b 597 376 603 350 597 358 l 597 453 b 614 481 597 472 603 481 b 632 453 625 481 632 472 l 632 376 b 614 350 632 358 625 350 z m 614 100 b 599 132 601 100 599 110 l 599 214 b 614 243 599 235 601 243 b 631 214 626 243 631 235 l 631 132 b 614 100 631 110 626 100 z "},"*":{"ha":424,"x_min":0,"x_max":0,"o":"m 147 536 l 276 536 l 265 654 l 363 588 l 425 694 l 317 747 l 425 799 l 363 907 l 265 840 l 276 958 l 147 958 l 157 840 l 61 907 l -3 799 l 106 747 l -3 694 l 61 588 l 157 654 z "},"\\":{"ha":338,"x_min":0,"x_max":0,"o":"m 343 -42 l 154 1000 l -7 1000 l 182 -42 z "},"·":{"ha":239,"x_min":0,"x_max":0,"o":"m 25 346 l 213 346 l 213 529 l 25 529 z "},"•":{"ha":389,"x_min":0,"x_max":0,"o":"m 43 285 l 346 285 l 346 588 l 43 588 z "},":":{"ha":239,"x_min":0,"x_max":0,"o":"m 25 544 l 213 544 l 213 728 l 25 728 z m 25 0 l 213 0 l 213 183 l 25 183 z "},",":{"ha":239,"x_min":0,"x_max":0,"o":"m 15 -178 l 125 -178 l 213 15 l 213 183 l 25 183 l 25 0 l 86 0 z "},"‖":{"ha":396,"x_min":0,"x_max":0,"o":"m 33 -178 l 174 -178 l 174 958 l 33 958 z m 221 -178 l 363 -178 l 363 958 l 221 958 z "},"…":{"ha":639,"x_min":0,"x_max":0,"o":"m 35 0 l 176 0 l 176 183 l 35 183 z m 247 0 l 389 0 l 389 183 l 247 183 z m 460 0 l 601 0 l 601 183 l 460 183 z "},"!":{"ha":238,"x_min":0,"x_max":0,"o":"m 68 235 l 169 235 l 215 733 l 215 958 l 22 958 l 22 733 z m 22 0 l 215 0 l 215 183 l 22 183 z "},"¡":{"ha":238,"x_min":0,"x_max":0,"o":"m 215 772 l 22 772 l 22 589 l 215 589 z m 169 538 l 68 538 l 22 39 l 22 -186 l 215 -186 l 215 39 z "},"#":{"ha":461,"x_min":0,"x_max":0,"o":"m 40 0 l 174 0 l 192 253 l 236 253 l 218 0 l 350 0 l 368 253 l 429 253 l 439 378 l 376 378 l 393 606 l 454 606 l 464 731 l 400 731 l 417 958 l 285 958 l 268 731 l 224 731 l 240 958 l 107 958 l 90 731 l 31 731 l 22 606 l 83 606 l 68 378 l 6 378 l -3 253 l 58 253 z m 200 378 l 217 606 l 261 606 l 244 378 z "},".":{"ha":239,"x_min":0,"x_max":0,"o":"m 25 0 l 213 0 l 213 183 l 25 183 z "},"?":{"ha":419,"x_min":0,"x_max":0,"o":"m 90 235 l 261 235 l 261 357 b 306 442 261 389 271 413 l 344 475 b 415 703 397 519 415 586 l 415 765 b 206 972 415 892 335 972 b 1 765 82 972 1 892 l 1 650 l 188 650 l 188 788 b 207 821 188 811 193 821 b 226 788 221 821 226 811 l 226 714 b 192 593 226 649 217 615 l 171 574 b 90 367 107 514 90 468 z m 79 0 l 272 0 l 272 183 l 79 183 z "},"¿":{"ha":419,"x_min":0,"x_max":0,"o":"m 340 772 l 147 772 l 147 589 l 340 589 z m 329 538 l 158 538 l 158 415 b 114 331 158 383 149 360 l 75 297 b 4 69 22 253 4 186 l 4 7 b 214 -200 4 -119 85 -200 b 418 7 338 -200 418 -119 l 418 122 l 232 122 l 232 -15 b 213 -49 232 -39 226 -49 b 193 -15 199 -49 193 -39 l 193 58 b 228 179 193 124 203 157 l 249 199 b 329 406 313 258 329 304 z "},"\"":{"ha":471,"x_min":0,"x_max":0,"o":"m 57 590 l 182 590 l 214 958 l 24 958 z m 289 590 l 414 590 l 446 958 l 256 958 z "},"'":{"ha":239,"x_min":0,"x_max":0,"o":"m 57 590 l 182 590 l 214 958 l 24 958 z "},";":{"ha":239,"x_min":0,"x_max":0,"o":"m 25 544 l 213 544 l 213 728 l 25 728 z m 15 -178 l 125 -178 l 213 15 l 213 183 l 25 183 l 25 0 l 86 0 z "},"/":{"ha":338,"x_min":0,"x_max":0,"o":"m -6 -42 l 156 -42 l 344 1000 l 183 1000 z "},"_":{"ha":389,"x_min":0,"x_max":0,"o":"m 42 -147 l 347 -147 l 347 -31 l 42 -31 z "},"{":{"ha":314,"x_min":0,"x_max":0,"o":"m 249 -178 l 310 -178 l 310 -49 l 265 -49 b 235 4 246 -49 235 -39 l 235 242 b 149 410 235 328 211 383 l 149 413 b 235 581 211 439 235 494 l 235 818 b 265 871 235 861 246 871 l 310 871 l 310 1000 l 249 1000 b 74 814 139 1000 74 932 l 74 553 b 11 475 74 494 54 475 l -1 475 l -1 347 l 11 347 b 74 268 54 347 74 325 l 74 8 b 249 -178 74 -110 139 -178 z "},"}":{"ha":314,"x_min":0,"x_max":0,"o":"m 65 1000 l 4 1000 l 4 871 l 49 871 b 79 818 68 871 79 861 l 79 581 b 165 413 79 494 103 439 l 165 410 b 79 242 103 383 79 328 l 79 4 b 49 -49 79 -39 68 -49 l 4 -49 l 4 -178 l 65 -178 b 240 8 175 -178 240 -110 l 240 269 b 303 347 240 328 260 347 l 315 347 l 315 475 l 303 475 b 240 554 260 475 240 497 l 240 814 b 65 1000 240 932 175 1000 z "},"[":{"ha":294,"x_min":0,"x_max":0,"o":"m 31 -178 l 290 -178 l 290 -49 l 192 -49 l 192 871 l 290 871 l 290 1000 l 31 1000 z "},"]":{"ha":294,"x_min":0,"x_max":0,"o":"m 264 1000 l 4 1000 l 4 871 l 103 871 l 103 -49 l 4 -49 l 4 -178 l 264 -178 z "},"(":{"ha":283,"x_min":0,"x_max":0,"o":"m 213 -178 l 279 -178 l 279 -49 l 229 -49 b 185 17 197 -49 185 -40 l 185 806 b 229 871 185 863 197 871 l 279 871 l 279 1000 l 213 1000 b 24 799 90 1000 24 929 l 24 24 b 213 -178 24 -107 90 -178 z "},")":{"ha":283,"x_min":0,"x_max":0,"o":"m 71 1000 l 4 1000 l 4 871 l 54 871 b 99 806 86 871 99 863 l 99 17 b 54 -49 99 -40 86 -49 l 4 -49 l 4 -178 l 71 -178 b 260 24 193 -178 260 -107 l 260 799 b 71 1000 260 929 193 1000 z "},"—":{"ha":639,"x_min":0,"x_max":0,"o":"m 42 356 l 597 356 l 597 506 l 42 506 z "},"–":{"ha":389,"x_min":0,"x_max":0,"o":"m 42 356 l 347 356 l 347 506 l 42 506 z "},"‒":{"ha":463,"x_min":0,"x_max":0,"o":"m 42 356 l 421 356 l 421 506 l 42 506 z "},"-":{"ha":343,"x_min":0,"x_max":0,"o":"m 19 347 l 322 347 l 322 526 l 19 526 z "},"­":{"ha":343,"x_min":0,"x_max":0,"o":"m 19 347 l 322 347 l 322 526 l 19 526 z "},"«":{"ha":490,"x_min":0,"x_max":0,"o":"m 121 200 l 254 200 l 174 386 l 254 572 l 121 572 l -4 386 z m 358 200 l 492 200 l 411 386 l 492 572 l 358 572 l 233 386 z "},"»":{"ha":490,"x_min":0,"x_max":0,"o":"m 132 572 l -1 572 l 79 386 l -1 200 l 132 200 l 257 386 z m 369 572 l 236 572 l 317 386 l 236 200 l 369 200 l 494 386 z "},"‹":{"ha":253,"x_min":0,"x_max":0,"o":"m 121 200 l 254 200 l 174 386 l 254 572 l 121 572 l -4 386 z "},"›":{"ha":253,"x_min":0,"x_max":0,"o":"m 132 572 l -1 572 l 79 386 l -1 200 l 132 200 l 257 386 z "},"„":{"ha":471,"x_min":0,"x_max":0,"o":"m 15 -178 l 125 -178 l 213 15 l 213 183 l 25 183 l 25 0 l 86 0 z m 247 -178 l 357 -178 l 444 15 l 444 183 l 257 183 l 257 0 l 318 0 z "},"“":{"ha":471,"x_min":0,"x_max":0,"o":"m 224 958 l 114 958 l 26 765 l 26 597 l 214 597 l 214 781 l 153 781 z m 456 958 l 346 958 l 258 765 l 258 597 l 446 597 l 446 781 l 385 781 z "},"”":{"ha":471,"x_min":0,"x_max":0,"o":"m 15 597 l 125 597 l 213 790 l 213 958 l 25 958 l 25 775 l 86 775 z m 247 597 l 357 597 l 444 790 l 444 958 l 257 958 l 257 775 l 318 775 z "},"‘":{"ha":239,"x_min":0,"x_max":0,"o":"m 224 958 l 114 958 l 26 765 l 26 597 l 214 597 l 214 781 l 153 781 z "},"’":{"ha":239,"x_min":0,"x_max":0,"o":"m 15 597 l 125 597 l 213 790 l 213 958 l 25 958 l 25 775 l 86 775 z "},"‚":{"ha":239,"x_min":0,"x_max":0,"o":"m 15 -178 l 125 -178 l 213 15 l 213 183 l 25 183 l 25 0 l 86 0 z "}," ":{"ha":639,"x_min":0,"x_max":0,"o":""}," ":{"ha":389,"x_min":0,"x_max":0,"o":""}," ":{"ha":463,"x_min":0,"x_max":0,"o":""}," ":{"ha":239,"x_min":0,"x_max":0,"o":""}," ":{"ha":192,"x_min":0,"x_max":0,"o":""},"​":{"ha":0,"x_min":0,"x_max":0,"o":""},"\r":{"ha":192,"x_min":0,"x_max":0,"o":""},"¢":{"ha":463,"x_min":0,"x_max":0,"o":"m 154 -28 l 313 -28 l 313 64 b 442 260 393 90 442 161 l 442 407 l 257 407 l 257 249 b 238 214 257 224 250 214 b 218 249 222 214 218 224 l 218 710 b 238 744 218 735 222 744 b 257 710 250 744 257 735 l 257 575 l 442 575 l 442 699 b 313 894 442 797 393 868 l 313 986 l 154 986 l 154 893 b 28 699 75 865 28 796 l 28 260 b 154 65 28 163 75 93 z "},"¤":{"ha":463,"x_min":0,"x_max":0,"o":"m 94 254 l 164 324 b 232 313 185 317 206 313 b 300 324 257 313 279 317 l 368 254 l 454 342 l 386 410 b 399 479 394 431 399 453 b 386 549 399 506 394 528 l 454 617 l 368 704 l 300 635 b 232 646 279 642 257 646 b 164 635 206 646 185 642 l 94 704 l 8 617 l 78 549 b 65 479 68 528 65 506 b 78 410 65 453 68 431 l 8 342 z m 232 421 b 179 479 197 421 179 444 b 232 538 179 514 197 538 b 283 479 267 538 283 514 b 232 421 283 444 267 421 z "},"$":{"ha":463,"x_min":0,"x_max":0,"o":"m 328 547 l 249 600 b 208 671 221 619 208 640 l 208 725 b 231 763 208 751 214 763 b 253 725 244 763 253 751 l 253 642 l 436 642 l 436 710 b 311 906 436 808 390 878 l 311 1000 l 153 1000 l 153 910 b 21 710 69 883 21 813 l 21 665 b 139 449 21 567 58 504 l 215 396 b 256 326 244 375 256 356 l 256 240 b 231 196 256 207 249 196 b 204 240 211 196 204 207 l 204 357 l 21 357 l 21 257 b 153 50 21 150 68 78 l 153 -42 l 311 -42 l 311 50 b 444 257 397 75 444 149 l 444 332 b 328 547 444 431 410 492 z "},"€":{"ha":463,"x_min":0,"x_max":0,"o":"m 261 -14 b 456 193 385 -14 456 67 l 456 297 l 283 297 l 283 181 b 264 147 283 157 278 147 b 244 181 250 147 244 157 l 244 338 l 397 338 l 397 464 l 244 464 l 244 507 l 397 507 l 397 633 l 244 633 l 244 778 b 264 811 244 801 250 811 b 283 778 278 811 283 801 l 283 674 l 456 674 l 456 765 b 261 972 456 892 385 972 b 63 765 132 972 63 892 l 63 633 l 3 633 l 3 507 l 63 507 l 63 464 l 3 464 l 3 338 l 63 338 l 63 193 b 261 -14 63 67 132 -14 z "},"ƒ":{"ha":463,"x_min":0,"x_max":0,"o":"m 47 -153 l 119 -153 b 324 43 254 -153 324 -87 l 324 497 l 410 497 l 410 661 l 324 661 l 324 754 b 371 792 324 786 332 792 l 410 792 l 410 958 l 338 958 b 133 763 203 958 133 893 l 133 661 l 47 661 l 47 497 l 133 497 l 133 51 b 86 14 133 19 125 14 l 47 14 z "},"₹":{"ha":463,"x_min":0,"x_max":0,"o":"m 371 593 l 424 593 l 468 746 l 371 746 b 358 803 368 768 364 788 l 424 803 l 468 958 l 43 958 l -1 803 l 104 803 b 181 746 154 803 176 797 l 43 746 l -1 593 l 181 593 b 85 536 175 542 153 536 l 47 536 l -1 408 l 253 0 l 463 0 l 210 406 b 371 593 307 425 364 479 z "},"£":{"ha":463,"x_min":0,"x_max":0,"o":"m 447 639 l 447 765 b 243 972 447 892 367 972 b 33 765 114 972 33 892 l 33 722 b 85 507 33 647 46 603 l 17 499 l 17 364 l 124 364 l 124 363 b 17 139 124 289 101 244 l 17 0 l 447 0 l 447 183 l 233 183 b 282 369 268 246 282 304 l 282 364 l 397 364 l 397 515 l 265 515 l 250 560 b 224 707 228 626 224 656 l 224 788 b 243 821 224 811 228 821 b 263 788 257 821 263 811 l 263 639 z "},"¥":{"ha":463,"x_min":0,"x_max":0,"o":"m 136 0 l 326 0 l 326 136 l 443 136 l 443 269 l 326 269 l 326 329 l 443 329 l 443 461 l 346 461 l 454 958 l 272 958 l 240 697 l 238 697 l 206 958 l 8 958 l 119 461 l 19 461 l 19 329 l 136 329 l 136 269 l 19 269 l 19 136 l 136 136 z "},"∙":{"ha":239,"x_min":0,"x_max":0,"o":"m 31 340 l 208 340 l 208 521 l 31 521 z "},"∕":{"ha":463,"x_min":0,"x_max":0,"o":"m -1 0 l 133 0 l 464 958 l 331 958 z "},"+":{"ha":463,"x_min":0,"x_max":0,"o":"m 168 208 l 294 208 l 294 368 l 442 368 l 442 493 l 294 493 l 294 653 l 168 653 l 168 493 l 22 493 l 22 368 l 168 368 z "},"−":{"ha":463,"x_min":0,"x_max":0,"o":"m 22 368 l 442 368 l 442 493 l 22 493 z "},"×":{"ha":463,"x_min":0,"x_max":0,"o":"m 126 221 l 232 338 l 338 221 l 431 303 l 315 431 l 431 558 l 338 640 l 232 524 l 126 640 l 32 558 l 147 431 l 32 303 z "},"÷":{"ha":463,"x_min":0,"x_max":0,"o":"m 167 533 l 297 533 l 297 663 l 167 663 z m 22 368 l 442 368 l 442 493 l 22 493 z m 167 199 l 297 199 l 297 328 l 167 328 z "},"=":{"ha":463,"x_min":0,"x_max":0,"o":"m 35 471 l 429 471 l 429 597 l 35 597 z m 35 264 l 429 264 l 429 390 l 35 390 z "},"≠":{"ha":463,"x_min":0,"x_max":0,"o":"m 19 182 l 136 182 l 186 264 l 429 264 l 429 390 l 265 390 l 315 471 l 429 471 l 429 597 l 393 597 l 444 679 l 328 679 l 276 597 l 35 597 l 35 471 l 199 471 l 149 390 l 35 390 l 35 264 l 71 264 z "},">":{"ha":463,"x_min":0,"x_max":0,"o":"m 60 190 l 419 374 l 419 488 l 60 671 l 60 529 l 261 431 l 60 332 z "},"<":{"ha":463,"x_min":0,"x_max":0,"o":"m 403 671 l 43 488 l 43 374 l 403 190 l 403 332 l 201 431 l 403 529 z "},"≥":{"ha":463,"x_min":0,"x_max":0,"o":"m 415 554 l 57 692 l 57 558 l 242 493 l 57 431 l 57 186 l 415 186 l 415 313 l 97 313 l 415 435 z "},"≤":{"ha":463,"x_min":0,"x_max":0,"o":"m 406 692 l 47 554 l 47 435 l 365 313 l 47 313 l 47 186 l 406 186 l 406 431 l 221 493 l 406 558 z "},"±":{"ha":463,"x_min":0,"x_max":0,"o":"m 442 450 l 442 575 l 294 575 l 294 715 l 168 715 l 168 575 l 22 575 l 22 450 l 168 450 l 168 313 l 22 313 l 22 186 l 442 186 l 442 313 l 294 313 l 294 450 z "},"≈":{"ha":463,"x_min":0,"x_max":0,"o":"m 28 443 l 140 443 b 167 513 143 506 151 513 b 200 492 172 513 181 507 b 310 442 242 457 269 442 b 436 638 382 442 433 499 l 324 638 b 297 568 321 575 313 568 b 264 589 292 568 283 574 b 154 639 222 624 194 639 b 28 443 81 639 31 582 z m 28 224 l 140 224 b 167 293 143 286 151 293 b 200 272 172 293 181 288 b 310 222 243 239 269 222 b 436 418 382 222 433 279 l 324 418 b 297 349 321 356 313 349 b 264 369 292 349 283 354 b 154 419 221 403 194 419 b 28 224 81 419 31 363 z "},"~":{"ha":463,"x_min":0,"x_max":0,"o":"m 313 332 b 449 528 390 332 444 389 l 335 528 b 303 458 332 464 321 458 b 265 481 294 458 286 464 b 150 529 217 519 189 529 b 15 333 74 529 19 472 l 129 333 b 161 403 132 397 143 403 b 199 381 169 403 178 397 b 313 332 247 342 275 332 z "},"¬":{"ha":463,"x_min":0,"x_max":0,"o":"m 308 257 l 435 257 l 435 543 l 19 543 l 19 417 l 308 417 z "},"∅":{"ha":988,"x_min":0,"x_max":0,"o":"m 114 -14 l 203 76 b 493 -14 282 19 382 -14 b 981 479 775 -14 981 194 b 900 764 981 586 951 683 l 988 850 l 874 972 l 783 882 b 493 972 704 939 606 972 b 6 479 213 972 6 764 b 88 194 6 372 36 274 l -1 108 z m 219 328 b 194 479 203 371 194 422 b 493 799 194 674 311 799 b 656 757 556 799 611 783 z m 493 160 b 332 201 431 160 375 175 l 767 631 b 793 479 785 588 793 536 b 493 160 793 285 676 160 z "},"∞":{"ha":728,"x_min":0,"x_max":0,"o":"m 199 238 b 368 319 272 238 324 263 l 371 319 b 531 238 418 263 467 238 b 721 431 646 238 721 315 b 531 624 721 546 646 624 b 361 542 457 624 406 599 l 358 542 b 199 624 311 599 263 624 b 7 431 83 624 7 546 b 199 238 7 315 83 238 z m 213 363 b 156 431 183 363 156 388 b 213 499 156 474 183 499 b 293 436 239 499 264 479 l 293 431 b 213 363 258 378 240 363 z m 515 363 b 436 425 489 363 467 382 l 436 431 b 515 499 469 483 488 499 b 575 431 546 499 575 474 b 515 363 575 388 546 363 z "},"∫":{"ha":417,"x_min":0,"x_max":0,"o":"m 17 -153 l 117 -153 b 304 46 253 -153 304 -76 l 304 799 b 350 851 304 829 317 851 l 400 851 l 400 1000 l 303 1000 b 115 801 167 1000 115 924 l 115 49 b 71 -4 115 18 103 -4 l 17 -4 z "},"Ω":{"ha":468,"x_min":0,"x_max":0,"o":"m 11 0 l 225 0 l 225 214 b 211 478 214 253 211 304 l 211 771 b 235 811 211 800 217 811 b 257 771 251 811 257 800 l 257 478 b 243 214 257 304 254 253 l 243 0 l 457 0 l 457 158 l 360 158 l 360 161 b 450 540 411 218 450 322 l 450 750 b 235 972 450 888 368 972 b 18 750 103 972 18 888 l 18 540 b 108 161 18 322 57 218 l 108 158 l 11 158 z "},"∆":{"ha":454,"x_min":0,"x_max":0,"o":"m -3 0 l 457 0 l 358 958 l 96 958 z m 190 158 l 221 708 l 224 708 l 254 158 z "},"∏":{"ha":557,"x_min":0,"x_max":0,"o":"m 31 -153 l 224 -153 l 224 800 l 333 800 l 333 -153 l 526 -153 l 526 958 l 31 958 z "},"∑":{"ha":460,"x_min":0,"x_max":0,"o":"m 11 -153 l 454 -153 l 454 6 l 218 6 l 385 403 l 218 800 l 454 800 l 454 958 l 11 958 l 11 801 l 176 403 l 11 4 z "},"√":{"ha":463,"x_min":0,"x_max":0,"o":"m 136 0 l 304 0 l 443 958 l 308 958 l 219 263 l 217 263 l 192 493 l 19 493 l 19 368 l 81 368 z "},"∂":{"ha":460,"x_min":0,"x_max":0,"o":"m 226 -14 b 440 199 358 -14 440 69 l 440 763 b 228 972 440 890 360 972 b 19 844 132 972 63 925 l 150 760 b 215 821 172 806 193 821 b 250 781 244 821 250 803 l 250 683 l 247 683 b 158 721 225 707 197 721 b 14 546 71 721 14 653 l 14 199 b 226 -14 14 69 94 -14 z m 226 138 b 203 178 210 138 203 149 l 203 540 b 222 569 203 556 207 569 b 250 513 240 569 250 556 l 250 178 b 226 138 250 149 244 138 z "},"µ":{"ha":457,"x_min":0,"x_max":0,"o":"m 250 772 l 250 190 b 224 129 250 144 240 129 b 208 156 210 129 208 142 l 208 772 l 25 772 l 25 -178 l 208 -178 l 208 6 b 256 72 229 21 244 43 l 258 72 l 258 0 l 433 0 l 433 772 z "},"%":{"ha":704,"x_min":0,"x_max":0,"o":"m 169 503 b 321 656 263 503 321 563 l 321 821 b 169 972 321 913 263 972 b 17 821 75 972 17 913 l 17 656 b 169 503 17 563 75 503 z m 79 0 l 201 0 l 625 958 l 504 958 z m 169 593 b 153 624 156 593 153 603 l 153 851 b 169 882 153 874 156 882 b 186 851 182 882 186 874 l 186 624 b 169 593 186 603 182 593 z m 535 -14 b 688 138 628 -14 688 46 l 688 303 b 536 456 688 396 629 456 b 383 303 442 456 383 396 l 383 138 b 535 -14 383 46 440 -14 z m 536 76 b 519 107 524 76 519 86 l 519 335 b 536 365 519 357 524 365 b 553 335 549 365 553 357 l 553 107 b 536 76 553 86 549 76 z "},"‰":{"ha":1036,"x_min":0,"x_max":0,"o":"m 169 503 b 321 656 263 503 321 563 l 321 821 b 169 972 321 913 263 972 b 17 821 75 972 17 913 l 17 656 b 169 503 17 563 75 503 z m 79 0 l 201 0 l 625 958 l 504 958 z m 169 593 b 153 624 156 593 153 603 l 153 851 b 169 882 153 874 156 882 b 186 851 182 882 186 874 l 186 624 b 169 593 186 603 182 593 z m 535 -14 b 688 138 628 -14 688 46 l 688 303 b 536 456 688 396 629 456 b 383 303 442 456 383 396 l 383 138 b 535 -14 383 46 440 -14 z m 865 -14 b 1019 138 960 -14 1019 46 l 1019 303 b 868 456 1019 396 961 456 b 715 303 774 456 715 396 l 715 138 b 865 -14 715 46 772 -14 z m 536 76 b 519 107 524 76 519 86 l 519 335 b 536 365 519 357 524 365 b 553 335 549 365 553 357 l 553 107 b 536 76 553 86 549 76 z m 868 76 b 851 107 854 76 851 86 l 851 335 b 868 365 851 357 854 365 b 883 335 881 365 883 357 l 883 107 b 868 76 883 86 881 76 z "},"◊":{"ha":463,"x_min":0,"x_max":0,"o":"m 169 43 l 292 43 l 440 479 l 292 915 l 169 915 l 24 479 z m 231 260 l 168 479 l 231 699 l 233 699 l 294 479 l 233 260 z "},"":{"ha":825,"x_min":0,"x_max":0,"o":"m 319 61 b 636 392 504 61 636 185 l 636 475 l 819 475 l 819 686 l 636 686 l 636 847 l 419 847 l 419 686 l 338 686 b 3 374 128 686 3 556 b 319 61 3 189 131 61 z m 321 275 b 222 375 264 275 222 315 b 336 475 222 431 260 475 l 419 475 l 419 390 b 321 275 419 313 375 275 z "},"@":{"ha":611,"x_min":0,"x_max":0,"o":"m 592 165 l 592 682 b 306 972 592 861 471 972 b 19 682 139 972 19 861 l 19 174 b 306 -117 19 -6 139 -117 b 581 74 444 -117 547 -36 l 422 74 b 308 17 403 42 369 17 b 179 168 228 17 179 60 l 179 688 b 310 839 179 796 229 839 b 438 715 383 839 431 803 b 229 490 285 675 229 593 l 229 306 b 340 151 229 206 261 151 b 444 221 390 151 425 175 l 447 221 l 447 165 z m 410 283 b 390 317 394 283 390 296 l 390 489 b 439 581 390 540 393 563 l 439 338 b 410 283 439 306 432 283 z "},"&":{"ha":556,"x_min":0,"x_max":0,"o":"m 204 -14 b 343 36 263 -14 307 6 l 346 36 l 364 0 l 563 0 l 468 193 b 510 529 493 263 510 364 l 510 576 l 326 576 l 326 483 l 324 483 l 244 644 b 219 750 232 671 219 719 l 219 793 b 239 829 219 818 224 829 b 260 793 254 829 260 818 l 260 681 l 436 681 l 436 772 b 238 972 436 896 363 972 b 36 772 110 972 36 896 l 36 736 b 69 601 36 701 43 654 l 100 539 b 14 317 31 481 14 414 l 14 178 b 204 -14 14 56 103 -14 z m 229 135 b 197 192 211 135 197 143 l 197 335 l 200 335 l 276 181 b 229 135 272 154 249 135 z "},"¶":{"ha":503,"x_min":0,"x_max":0,"o":"m 290 958 l 214 958 b 8 754 78 958 8 889 l 8 640 b 160 440 8 528 60 458 l 160 -178 l 290 -178 z m 340 958 l 340 -178 l 471 -178 l 471 958 z "},"§":{"ha":451,"x_min":0,"x_max":0,"o":"m 226 -192 b 432 8 357 -192 432 -115 l 432 42 b 365 210 432 119 414 171 l 365 213 b 436 354 411 240 436 285 l 436 450 b 321 650 436 550 406 604 l 243 692 b 204 744 214 707 204 722 l 204 781 b 228 824 204 813 210 824 b 251 781 244 824 251 813 l 251 719 l 428 719 l 428 772 b 226 972 428 896 350 972 b 21 772 96 972 21 896 l 21 739 b 88 571 21 661 39 610 l 88 568 b 17 426 42 540 17 496 l 17 331 b 132 131 17 231 47 176 l 210 89 b 249 36 239 74 249 58 l 249 0 b 225 -43 249 -32 243 -43 b 201 0 208 -43 201 -32 l 201 61 l 25 61 l 25 8 b 226 -192 25 -115 103 -192 z m 240 281 l 235 283 b 200 338 210 299 200 313 l 200 456 b 213 500 200 482 200 494 l 218 497 b 253 443 243 482 253 468 l 253 325 b 240 281 253 299 253 286 z "},"©":{"ha":567,"x_min":0,"x_max":0,"o":"m 283 -14 b 551 275 438 -14 551 72 l 551 685 b 283 972 551 867 443 972 b 15 685 122 972 15 867 l 15 275 b 283 -14 15 72 128 -14 z m 283 74 b 107 299 157 74 107 140 l 107 658 b 283 885 107 811 165 885 b 461 658 403 885 461 810 l 461 299 b 283 74 461 140 408 74 z m 282 199 b 401 321 356 199 401 244 l 401 432 l 304 432 l 304 315 b 283 285 304 292 297 285 b 264 315 271 285 264 292 l 264 644 b 283 675 264 668 271 675 b 304 644 297 675 304 668 l 304 553 l 401 553 l 401 639 b 282 760 401 715 356 760 b 164 639 210 760 164 715 l 164 321 b 282 199 164 244 210 199 z "},"®":{"ha":567,"x_min":0,"x_max":0,"o":"m 283 -14 b 551 275 438 -14 551 72 l 551 685 b 283 972 551 867 443 972 b 15 685 122 972 15 867 l 15 275 b 283 -14 15 72 128 -14 z m 283 74 b 107 299 157 74 107 140 l 107 658 b 283 885 107 811 165 885 b 461 658 403 885 461 810 l 461 299 b 283 74 461 140 408 74 z m 164 207 l 264 207 l 264 435 l 272 435 b 306 396 297 435 306 428 l 306 207 l 406 207 l 406 388 b 361 481 406 436 390 467 l 361 483 b 406 576 390 497 406 528 l 406 632 b 288 751 406 711 365 751 l 164 751 z m 264 519 l 264 669 l 278 669 b 306 632 301 669 306 661 l 306 557 b 278 519 306 525 301 519 z "},"℗":{"ha":567,"x_min":0,"x_max":0,"o":"m 283 -14 b 551 275 438 -14 551 72 l 551 685 b 283 972 551 867 443 972 b 15 685 122 972 15 867 l 15 275 b 283 -14 15 72 128 -14 z m 283 74 b 107 299 157 74 107 140 l 107 658 b 283 885 107 811 165 885 b 461 658 403 885 461 810 l 461 299 b 283 74 461 140 408 74 z m 171 207 l 271 207 l 271 428 l 296 428 b 415 549 375 428 415 468 l 415 632 b 296 751 415 711 375 751 l 171 751 z m 271 510 l 271 669 l 288 669 b 315 632 308 669 315 661 l 315 549 b 288 510 315 518 308 510 z "},"™":{"ha":571,"x_min":0,"x_max":0,"o":"m 54 521 l 146 521 l 146 886 l 204 886 l 204 958 l -4 958 l -4 886 l 54 886 z m 225 521 l 311 521 l 311 839 l 314 839 l 364 521 l 406 521 l 456 839 l 458 839 l 458 521 l 550 521 l 550 958 l 419 958 l 388 753 l 385 753 l 354 958 l 225 958 z "},"°":{"ha":463,"x_min":0,"x_max":0,"o":"m 232 621 b 408 797 335 621 408 693 b 232 972 408 900 335 972 b 54 797 128 972 54 900 b 232 621 54 693 128 621 z m 232 726 b 168 797 193 726 168 756 b 232 867 168 838 193 867 b 294 797 269 867 294 838 b 232 726 294 756 269 726 z "},"|":{"ha":389,"x_min":0,"x_max":0,"o":"m 115 -283 l 274 -283 l 274 1106 l 115 1106 z "},"¦":{"ha":389,"x_min":0,"x_max":0,"o":"m 115 550 l 274 550 l 274 1106 l 115 1106 z m 115 -283 l 274 -283 l 274 272 l 115 272 z "},"†":{"ha":425,"x_min":0,"x_max":0,"o":"m 129 -178 l 296 -178 l 296 599 l 422 579 l 422 738 l 296 718 l 296 958 l 129 958 l 129 718 l 3 738 l 3 579 l 129 599 z "},"ℓ":{"ha":464,"x_min":0,"x_max":0,"o":"m 257 -14 b 457 186 383 -14 457 63 l 457 289 l 279 289 l 279 165 b 260 129 279 140 275 129 b 240 165 244 129 240 140 l 240 303 b 457 738 408 453 457 607 l 457 814 b 258 1014 457 938 383 1014 b 57 814 131 1014 57 938 l 57 360 b 0 325 39 347 19 338 l 0 138 l 60 171 l 60 165 b 257 -14 60 67 131 -14 z m 240 546 l 240 835 b 260 871 240 860 244 871 b 279 835 275 871 279 860 l 279 733 b 243 546 279 676 275 613 z "},"‡":{"ha":436,"x_min":0,"x_max":0,"o":"m 135 -178 l 303 -178 l 303 104 l 429 85 l 429 243 l 303 224 l 303 599 l 429 579 l 429 738 l 303 718 l 303 958 l 135 958 l 135 718 l 8 738 l 8 579 l 135 599 l 135 224 l 8 243 l 8 85 l 135 104 z "},"℮":{"ha":1056,"x_min":0,"x_max":0,"o":"m 529 -14 b 943 179 696 -14 847 61 l 867 179 b 532 15 785 79 665 15 b 213 163 406 15 289 69 b 199 192 204 171 199 179 l 199 457 b 208 467 199 464 201 467 l 1050 467 l 1050 479 b 529 972 1050 750 817 972 b 8 479 242 972 8 750 b 529 -14 8 207 242 -14 z m 208 494 b 199 504 201 494 199 497 l 199 768 b 213 799 199 779 204 790 b 532 943 289 892 406 943 b 847 804 653 943 771 896 b 863 774 856 794 863 785 l 863 504 b 854 494 863 497 860 494 z "},"№":{"ha":793,"x_min":0,"x_max":0,"o":"m 28 0 l 176 0 l 176 596 l 179 596 l 249 0 l 454 0 l 454 958 l 306 958 l 306 447 l 303 447 l 242 958 l 28 958 z m 629 190 b 782 343 722 190 782 250 l 782 508 b 631 660 782 600 725 660 b 479 508 538 660 479 600 l 479 343 b 629 190 479 250 535 190 z m 631 282 b 614 311 618 282 614 290 l 614 539 b 631 569 614 561 618 569 b 647 539 643 569 647 561 l 647 311 b 631 282 647 290 643 282 z m 479 0 l 782 0 l 782 136 l 479 136 z "},"^":{"ha":463,"x_min":0,"x_max":0,"o":"m 1 639 l 142 639 l 232 813 l 321 639 l 463 639 l 296 958 l 167 958 z "},"℠":{"ha":583,"x_min":0,"x_max":0,"o":"m 118 514 b 222 617 183 514 222 554 l 222 663 b 168 776 222 719 207 751 l 125 804 b 104 847 111 813 104 821 l 104 878 b 117 899 104 893 107 899 b 128 878 125 899 128 893 l 128 838 l 218 838 l 218 865 b 115 965 218 926 179 965 b 13 865 50 965 13 926 l 13 846 b 65 732 13 786 26 757 l 108 704 b 131 660 122 696 131 686 l 131 608 b 117 583 131 589 126 583 b 101 608 106 583 101 590 l 101 671 l 11 671 l 11 617 b 118 514 11 554 50 514 z m 239 521 l 325 521 l 325 839 l 328 839 l 378 521 l 419 521 l 469 839 l 472 839 l 472 521 l 563 521 l 563 958 l 432 958 l 401 753 l 399 753 l 368 958 l 239 958 z "},"̈":{"ha":0,"x_min":0,"x_max":0,"o":"m -187 824 l -24 824 l -24 1000 l -187 1000 z m 24 824 l 188 824 l 188 1000 l 24 1000 z "},"̇":{"ha":0,"x_min":0,"x_max":0,"o":"m -92 824 l 92 824 l 92 1000 l -92 1000 z "},"̀":{"ha":0,"x_min":0,"x_max":0,"o":"m -42 824 l 111 824 l -4 1000 l -199 1000 z "},"́":{"ha":0,"x_min":0,"x_max":0,"o":"m -111 824 l 42 824 l 199 1000 l 4 1000 z "},"̋":{"ha":0,"x_min":0,"x_max":0,"o":"m -193 824 l -46 824 l 69 1000 l -99 1000 z m 17 824 l 167 824 l 281 1000 l 114 1000 z "},"̂":{"ha":0,"x_min":0,"x_max":0,"o":"m -200 824 l -47 824 l 0 875 l 47 824 l 200 824 l 64 1000 l -64 1000 z "},"̌":{"ha":0,"x_min":0,"x_max":0,"o":"m -64 824 l 64 824 l 200 1000 l 47 1000 l 0 947 l -47 1000 l -200 1000 z "},"̆":{"ha":0,"x_min":0,"x_max":0,"o":"m 0 811 b 168 1000 111 811 168 876 l 47 1000 b 0 933 47 956 33 933 b -47 1000 -33 933 -47 956 l -168 1000 b 0 811 -168 876 -111 811 z "},"̊":{"ha":0,"x_min":0,"x_max":0,"o":"m 0 815 b 129 940 76 815 129 869 b 0 1065 129 1013 76 1065 b -129 940 -76 1065 -129 1013 b 0 815 -129 869 -76 815 z m 0 894 b -43 940 -26 894 -43 913 b 0 988 -43 968 -26 988 b 44 940 26 988 44 968 b 0 894 44 913 26 894 z "},"̃":{"ha":0,"x_min":0,"x_max":0,"o":"m -186 814 l -78 814 b -51 875 -75 861 -69 875 b -22 860 -44 875 -37 871 b 68 826 14 833 36 826 b 186 1011 138 826 178 879 l 78 1011 b 51 951 75 965 69 951 b 22 967 44 951 38 956 b -68 1000 -14 993 -36 1000 b -186 814 -137 1000 -178 947 z "},"̄":{"ha":0,"x_min":0,"x_max":0,"o":"m -161 853 l 161 853 l 161 974 l -161 974 z "},"̒":{"ha":0,"x_min":0,"x_max":0,"o":"m -101 824 l 89 824 l 89 954 l 32 954 l 101 1049 l -14 1049 l -101 940 z "},"̦":{"ha":0,"x_min":0,"x_max":0,"o":"m -108 -278 l 6 -278 l 96 -169 l 96 -54 l -93 -54 l -93 -185 l -40 -185 z "},"̧":{"ha":0,"x_min":0,"x_max":0,"o":"m 7 -36 l 38 39 l -18 39 l -58 -62 l -36 -62 b -17 -79 -25 -62 -17 -67 b -57 -104 -17 -99 -26 -104 l -100 -104 l -100 -178 l 3 -178 b 100 -107 57 -178 100 -164 b 7 -36 100 -54 71 -39 z "},"̨":{"ha":0,"x_min":0,"x_max":0,"o":"m 25 -178 l 94 -178 l 94 -57 l 68 -57 b 28 -29 43 -57 28 -53 b 57 3 28 -14 38 -4 l -3 3 b -94 -93 -26 4 -94 -28 b 25 -178 -94 -149 -51 -178 z "},"̵":{"ha":0,"x_min":0,"x_max":0,"o":"m -133 363 l 133 363 l 133 499 l -133 499 z "},"̶":{"ha":0,"x_min":0,"x_max":0,"o":"m -250 360 l 250 360 l 250 500 l -250 500 z "},"̷":{"ha":0,"x_min":0,"x_max":0,"o":"m -132 -14 l 219 743 l 132 786 l -219 29 z "},"̸":{"ha":0,"x_min":0,"x_max":0,"o":"m -137 -14 l 229 933 l 138 972 l -229 25 z "},"ʼ":{"ha":0,"x_min":0,"x_max":0,"o":"m -185 782 l -68 782 l 19 904 l 19 1033 l -171 1033 l -171 890 l -112 890 z "},"ˉ":{"ha":0,"x_min":0,"x_max":0,"o":"m -161 853 l 161 853 l 161 974 l -161 974 z "},"´":{"ha":389,"x_min":0,"x_max":0,"o":"m 39 824 l 192 824 l 349 1000 l 154 1000 z "},"˘":{"ha":389,"x_min":0,"x_max":0,"o":"m 194 811 b 363 1000 306 811 363 876 l 242 1000 b 194 933 242 956 228 933 b 147 1000 161 933 147 956 l 26 1000 b 194 811 26 876 83 811 z "},"ˇ":{"ha":389,"x_min":0,"x_max":0,"o":"m 131 824 l 258 824 l 394 1000 l 242 1000 l 194 947 l 147 1000 l -6 1000 z "},"¸":{"ha":389,"x_min":0,"x_max":0,"o":"m 201 -36 l 232 39 l 176 39 l 136 -62 l 158 -62 b 178 -79 169 -62 178 -67 b 138 -104 178 -99 168 -104 l 94 -104 l 94 -178 l 197 -178 b 294 -107 251 -178 294 -164 b 201 -36 294 -54 265 -39 z "},"ˆ":{"ha":389,"x_min":0,"x_max":0,"o":"m -6 824 l 147 824 l 194 875 l 242 824 l 394 824 l 258 1000 l 131 1000 z "},"¨":{"ha":389,"x_min":0,"x_max":0,"o":"m 7 824 l 171 824 l 171 1000 l 7 1000 z m 218 824 l 382 824 l 382 1000 l 218 1000 z "},"˙":{"ha":389,"x_min":0,"x_max":0,"o":"m 103 824 l 286 824 l 286 1000 l 103 1000 z "},"`":{"ha":389,"x_min":0,"x_max":0,"o":"m 197 824 l 350 824 l 235 1000 l 40 1000 z "},"˝":{"ha":389,"x_min":0,"x_max":0,"o":"m -43 824 l 104 824 l 219 1000 l 51 1000 z m 167 824 l 317 824 l 431 1000 l 264 1000 z "},"¯":{"ha":389,"x_min":0,"x_max":0,"o":"m 33 853 l 356 853 l 356 974 l 33 974 z "},"˛":{"ha":389,"x_min":0,"x_max":0,"o":"m 219 -178 l 289 -178 l 289 -57 l 263 -57 b 222 -29 238 -57 222 -53 b 251 3 222 -14 232 -4 l 192 3 b 100 -93 168 4 100 -28 b 219 -178 100 -149 143 -178 z "},"˚":{"ha":389,"x_min":0,"x_max":0,"o":"m 194 815 b 324 940 271 815 324 869 b 194 1065 324 1013 271 1065 b 65 940 118 1065 65 1013 b 194 815 65 869 118 815 z m 194 894 b 151 940 168 894 151 913 b 194 988 151 968 168 988 b 239 940 221 988 239 968 b 194 894 239 913 221 894 z "},"˜":{"ha":389,"x_min":0,"x_max":0,"o":"m 8 814 l 117 814 b 143 875 119 861 125 875 b 172 860 150 875 157 871 b 263 826 208 833 231 826 b 381 1011 332 826 372 879 l 272 1011 b 246 951 269 965 264 951 b 217 967 239 951 232 956 b 126 1000 181 993 158 1000 b 8 814 57 1000 17 947 z "}}}
